<svg width="561" height="80" viewBox="0 0 561 80" fill="none" xmlns="http://www.w3.org/2000/svg">
<mask id="mask0_157_1518" style="mask-type:alpha" maskUnits="userSpaceOnUse" x="0" y="0" width="81" height="80">
<rect y="0.614014" width="80.5962" height="79.2067" fill="#D9D9D9"/>
</mask>
<g mask="url(#mask0_157_1518)">
<path d="M80.4446 0.308978L80.8812 0.744841L-0.42984 80.6554L-0.866513 80.2195L80.4446 0.308978Z" fill="#018EDD"/>
<path d="M117.891 0.308978L118.328 0.744841L37.0166 80.6554L36.58 80.2195L117.891 0.308978Z" fill="#018EDD"/>
<path d="M42.8746 0.308978L43.3113 0.744841L-37.9998 80.6554L-38.4365 80.2195L42.8746 0.308978Z" fill="#018EDD"/>
<path d="M5.67638 0.308978L6.11306 0.744841L-75.198 80.6554L-75.6347 80.2195L5.67638 0.308978Z" fill="#018EDD"/>
<path d="M1.61569 -0.919049L2.05236 -0.483186L-79.2587 79.4273L-79.6954 78.9915L1.61569 -0.919049Z" fill="#018EDD"/>
<path d="M123.223 0.308978L123.66 0.744841L42.3488 80.6554L41.9121 80.2195L123.223 0.308978Z" fill="#018EDD"/>
<path d="M85.7767 0.308978L86.2134 0.744841L4.90231 80.6554L4.46564 80.2195L85.7767 0.308978Z" fill="#018EDD"/>
<path d="M128.555 0.308978L128.991 0.744841L47.6803 80.6554L47.2436 80.2195L128.555 0.308978Z" fill="#018EDD"/>
<path d="M48.2067 0.308978L48.6434 0.744841L-32.6677 80.6554L-33.1044 80.2195L48.2067 0.308978Z" fill="#018EDD"/>
<path d="M11.0085 0.308978L11.4451 0.744841L-69.8659 80.6554L-70.3026 80.2195L11.0085 0.308978Z" fill="#018EDD"/>
<path d="M133.887 0.308978L134.323 0.744841L53.0124 80.6554L52.5757 80.2195L133.887 0.308978Z" fill="#018EDD"/>
<path d="M91.1082 0.308978L91.5449 0.744841L10.2338 80.6554L9.79712 80.2195L91.1082 0.308978Z" fill="#018EDD"/>
<path d="M139.218 0.308978L139.655 0.744841L58.3439 80.6554L57.9072 80.2195L139.218 0.308978Z" fill="#018EDD"/>
<path d="M53.5383 0.308978L53.9749 0.744841L-27.3362 80.6554L-27.7728 80.2195L53.5383 0.308978Z" fill="#018EDD"/>
<path d="M16.34 0.308978L16.7767 0.744841L-64.5344 80.6554L-64.9711 80.2195L16.34 0.308978Z" fill="#018EDD"/>
<path d="M144.55 0.308978L144.986 0.744841L63.6754 80.6554L63.2387 80.2195L144.55 0.308978Z" fill="#018EDD"/>
<path d="M155.089 0.308978L155.526 0.744841L74.2149 80.6554L73.7782 80.2195L155.089 0.308978Z" fill="#018EDD"/>
<path d="M96.4403 0.308978L96.877 0.744841L15.5659 80.6554L15.1292 80.2195L96.4403 0.308978Z" fill="#018EDD"/>
<path d="M149.944 0.308978L150.38 0.744841L69.0692 80.6554L68.6326 80.2195L149.944 0.308978Z" fill="#018EDD"/>
<path d="M160.483 0.308978L160.92 0.744841L79.6088 80.6554L79.1721 80.2195L160.483 0.308978Z" fill="#018EDD"/>
<path d="M58.8704 0.308978L59.307 0.744841L-22.0041 80.6554L-22.4407 80.2195L58.8704 0.308978Z" fill="#018EDD"/>
<path d="M21.6721 0.308978L22.1088 0.744841L-59.2023 80.6554L-59.639 80.2195L21.6721 0.308978Z" fill="#018EDD"/>
<path d="M101.772 0.308978L102.209 0.744841L20.8974 80.6554L20.4608 80.2195L101.772 0.308978Z" fill="#018EDD"/>
<path d="M64.2018 0.308978L64.6385 0.744841L-16.6726 80.6554L-17.1092 80.2195L64.2018 0.308978Z" fill="#018EDD"/>
<path d="M27.0036 0.308978L27.4403 0.744841L-53.8708 80.6554L-54.3075 80.2195L27.0036 0.308978Z" fill="#018EDD"/>
<path d="M107.103 0.308978L107.54 0.744841L26.2289 80.6554L25.7922 80.2195L107.103 0.308978Z" fill="#018EDD"/>
<path d="M69.5334 0.308978L69.9701 0.744841L-11.341 80.6554L-11.7777 80.2195L69.5334 0.308978Z" fill="#018EDD"/>
<path d="M32.3351 0.308978L32.7718 0.744841L-48.5393 80.6554L-48.976 80.2195L32.3351 0.308978Z" fill="#018EDD"/>
<path d="M112.497 0.308978L112.934 0.744841L31.6228 80.6554L31.1861 80.2195L112.497 0.308978Z" fill="#018EDD"/>
<path d="M74.9272 0.308978L75.3639 0.744841L-5.94717 80.6554L-6.38385 80.2195L74.9272 0.308978Z" fill="#018EDD"/>
<path d="M37.729 0.308978L38.1656 0.744841L-43.1454 80.6554L-43.5821 80.2195L37.729 0.308978Z" fill="#018EDD"/>
</g>
<path d="M400.368 79.5246V66.4776L393.975 39.8652H401.916L404.145 53.2953L406.375 39.8652H414.293L407.922 66.4776V79.5246H400.368Z" fill="#018EDD"/>
<path d="M384.133 79.8848C381.236 79.8848 378.9 78.991 377.125 77.2033C375.366 75.4156 374.486 72.9144 374.486 69.6996V51.4022C374.486 47.5564 375.252 44.612 376.784 42.569C378.331 40.5259 380.842 39.5044 384.315 39.5044C386.211 39.5044 387.895 39.8499 389.366 40.5409C390.853 41.232 392.021 42.2685 392.87 43.6506C393.72 45.0176 394.144 46.7452 394.144 48.8334V55.6836H386.181V49.8248C386.181 48.6381 386.029 47.8419 385.726 47.4363C385.422 47.0156 384.952 46.8053 384.315 46.8053C383.572 46.8053 383.071 47.0757 382.814 47.6165C382.556 48.1423 382.427 48.8484 382.427 49.7347V69.5869C382.427 70.6836 382.586 71.4572 382.905 71.9079C383.238 72.3586 383.708 72.5839 384.315 72.5839C384.998 72.5839 385.476 72.306 385.749 71.7502C386.037 71.1943 386.181 70.4732 386.181 69.5869V62.4437H394.235V69.9475C394.235 73.4327 393.348 75.964 391.573 77.5413C389.799 79.1037 387.319 79.8848 384.133 79.8848Z" fill="#018EDD"/>
<path d="M352.496 79.5246L356.364 39.8652H369.947L373.747 79.5246H366.17L365.601 73.125H360.778L360.277 79.5246H352.496ZM361.346 66.793H364.987L363.235 46.6254H362.871L361.346 66.793Z" fill="#018EDD"/>
<path d="M320.219 79.5246V39.8652H332.415L335.782 64.0439L339.127 39.8652H351.436V79.5246H344.11V50.9518L339.514 79.5246H332.324L327.455 50.9518V79.5246H320.219Z" fill="#018EDD"/>
<path d="M310.692 79.5246V39.8652H318.427V79.5246H310.692Z" fill="#018EDD"/>
<path d="M297.464 79.5246V47.4816H292.708V39.8652H310.228V47.4816H305.473V79.5246H297.464Z" fill="#018EDD"/>
<path d="M284.506 79.5246V39.8652H292.242V79.5246H284.506Z" fill="#018EDD"/>
<path d="M271.908 79.8848C266.19 79.8848 263.331 75.8288 263.331 67.7166V50.6135C263.331 43.2074 266.607 39.5044 273.16 39.5044C275.86 39.5044 277.93 40.0452 279.371 41.1268C280.812 42.1934 281.806 43.7558 282.352 45.8138C282.898 47.8719 283.171 50.3807 283.171 53.3401H275.344V49.8248C275.344 48.9686 275.223 48.255 274.98 47.6841C274.752 47.0983 274.267 46.8053 273.524 46.8053C272.598 46.8053 271.984 47.1133 271.681 47.7292C271.393 48.3451 271.248 49.0211 271.248 49.7572V68.9785C271.248 70.0451 271.385 70.9164 271.658 71.5924C271.946 72.2534 272.5 72.5839 273.319 72.5839C274.168 72.5839 274.73 72.2534 275.003 71.5924C275.291 70.9164 275.435 70.0301 275.435 68.9334V63.2775H273.296V56.4272H283.08V79.5243H279.872L278.507 76.1893C277.111 78.653 274.912 79.8848 271.908 79.8848Z" fill="#018EDD"/>
<path d="M245.844 79.5246V39.8652H261.862V47.5267H253.99V55.2558H261.544V62.7144H253.99V71.7955H262.385V79.5246H245.844Z" fill="#018EDD"/>
<path d="M228.722 79.5246V39.8652H236.731V72.7645H244.968V79.5246H228.722Z" fill="#018EDD"/>
<path d="M203.352 79.9975C200.865 79.9975 198.908 79.0436 197.482 77.1357C196.071 75.2279 195.366 72.5989 195.366 69.2489C195.366 66.8603 195.578 64.8774 196.003 63.3C196.443 61.7227 197.05 60.4082 197.823 59.3566C198.597 58.305 199.484 57.3887 200.485 56.6075L200.303 56.1568C199.666 54.5945 199.105 53.1073 198.62 51.6951C198.149 50.268 197.914 48.8033 197.914 47.3011C197.914 45.7838 198.24 44.4393 198.893 43.2675C199.545 42.0958 200.447 41.1794 201.6 40.5184C202.768 39.8424 204.103 39.5044 205.605 39.5044C207.091 39.5044 208.441 39.8274 209.655 40.4733C210.883 41.1043 211.862 42.0582 212.59 43.3351C213.318 44.612 213.682 46.227 213.682 48.1799C213.682 50.2981 213.28 52.0707 212.476 53.4978C211.687 54.925 210.496 56.2995 208.904 57.6215L211.088 63.0747C211.983 60.8363 213.272 59.1012 214.956 57.8694L218.119 62.7592C216.359 64.1563 214.888 66.4322 213.705 69.5869L217.709 79.5243H209.973L209.086 77.3836C208.494 78.1047 207.698 78.7206 206.697 79.2314C205.711 79.7421 204.596 79.9975 203.352 79.9975ZM205.059 46.6025C205.059 46.9931 205.157 47.5715 205.354 48.3376C205.552 49.0887 206.014 50.3957 206.742 52.2585C207.03 51.958 207.288 51.4848 207.516 50.8389C207.743 50.1929 207.857 49.3066 207.857 48.1799C207.857 47.0231 207.713 46.2119 207.425 45.7462C207.152 45.2805 206.788 45.0477 206.333 45.0477C205.893 45.0477 205.567 45.2129 205.354 45.5434C205.157 45.8589 205.059 46.2119 205.059 46.6025ZM202.328 70.2179C202.328 72.8919 203.094 74.2289 204.626 74.2289C205.248 74.2289 205.749 74.0035 206.128 73.5529C206.507 73.0872 206.765 72.6064 206.902 72.1107L203.079 62.8944C202.579 63.946 202.328 65.7862 202.328 68.4152V70.2179Z" fill="#018EDD"/>
<path d="M173.222 79.5246V47.4816H168.467V39.8652H185.987V47.4816H181.231V79.5246H173.222Z" fill="#018EDD"/>
<path d="M159.173 79.8848C155.518 79.8848 152.878 78.9835 151.255 77.1808C149.647 75.3781 148.843 72.5088 148.843 68.5729V64.6971H156.761V69.6545C156.761 70.5709 156.898 71.292 157.171 71.8178C157.459 72.3285 157.952 72.5839 158.65 72.5839C159.378 72.5839 159.878 72.3736 160.151 71.953C160.44 71.5323 160.584 70.8413 160.584 69.8799C160.584 68.663 160.462 67.649 160.22 66.8378C159.977 66.0116 159.552 65.2304 158.946 64.4943C158.354 63.7432 157.527 62.8719 156.466 61.8804L152.871 58.5003C150.186 55.9916 148.843 53.1223 148.843 49.8924C148.843 46.5124 149.632 43.936 151.21 42.1634C152.802 40.3907 155.1 39.5044 158.104 39.5044C161.774 39.5044 164.376 40.4733 165.908 42.4112C167.455 44.3491 168.229 47.2936 168.229 51.2445H160.083V48.5179C160.083 47.9771 159.924 47.5564 159.605 47.256C159.302 46.9555 158.885 46.8053 158.354 46.8053C157.717 46.8053 157.247 46.9856 156.943 47.3461C156.655 47.6916 156.511 48.1423 156.511 48.6982C156.511 49.254 156.663 49.8549 156.966 50.5009C157.269 51.1468 157.869 51.8904 158.764 52.7317L163.382 57.1258C164.308 57.9971 165.157 58.921 165.931 59.8974C166.704 60.8589 167.326 61.9855 167.796 63.2775C168.267 64.5544 168.502 66.1167 168.502 67.9645C168.502 71.6901 167.804 74.6119 166.408 76.7301C165.028 78.8333 162.616 79.8848 159.173 79.8848Z" fill="#018EDD"/>
<path d="M138.25 79.8851C134.913 79.8851 132.456 78.9613 130.879 77.1135C129.301 75.2507 128.512 72.5166 128.512 68.9112V39.8652H136.294V68.5957C136.294 69.2567 136.332 69.8952 136.407 70.5111C136.483 71.112 136.658 71.6077 136.931 71.9983C137.204 72.3889 137.644 72.5842 138.25 72.5842C138.872 72.5842 139.32 72.3964 139.593 72.0209C139.866 71.6303 140.033 71.127 140.093 70.5111C140.169 69.8952 140.207 69.2567 140.207 68.5957V39.8652H147.988V68.9112C147.988 72.5166 147.2 75.2507 145.622 77.1135C144.045 78.9613 141.587 79.8851 138.25 79.8851Z" fill="#018EDD"/>
<path d="M108.181 79.5246V39.8652H120.467C122.515 39.8652 124.062 40.3309 125.109 41.2623C126.156 42.1787 126.853 43.4706 127.202 45.1381C127.566 46.7906 127.748 48.736 127.748 50.9744C127.748 53.1376 127.468 54.8652 126.906 56.1571C126.36 57.4491 125.321 58.3429 123.789 58.8386C125.048 59.094 125.928 59.7174 126.429 60.7089C126.944 61.6854 127.202 62.9548 127.202 64.5171V79.5246H119.307V63.9989C119.307 62.8421 119.064 62.1286 118.579 61.8581C118.109 61.5727 117.343 61.43 116.281 61.43V79.5246H108.181ZM116.327 54.5572H118.26C119.368 54.5572 119.921 53.3629 119.921 50.9744C119.921 49.427 119.8 48.413 119.557 47.9323C119.315 47.4516 118.86 47.2112 118.192 47.2112H116.327V54.5572Z" fill="#018EDD"/>
<path d="M94.5836 79.5246V47.4816H89.8283V39.8652H107.348V47.4816H102.593V79.5246H94.5836Z" fill="#018EDD"/>
<path d="M550.083 32.6266V6.5029H546.206V0.293457H560.49V6.5029H556.613V32.6266H550.083Z" fill="#1C2541"/>
<path d="M529.501 32.6266V0.293457H536.216L539.221 15.7803V0.293457H545.528V32.6266H539.147L535.882 16.46V32.6266H529.501Z" fill="#1C2541"/>
<path d="M514.989 32.6266V0.293457H528.048V6.53964H521.629V12.8409H527.788V18.9218H521.629V26.3253H528.474V32.6266H514.989Z" fill="#1C2541"/>
<path d="M487.785 32.6266V0.293457H497.727L500.473 20.0057L503.199 0.293457H513.235V32.6266H507.262V9.33205L503.515 32.6266H497.653L493.683 9.33205V32.6266H487.785Z" fill="#1C2541"/>
<path d="M473.265 32.6266V0.293457H486.324V6.53964H479.906V12.8409H486.064V18.9218H479.906V26.3253H486.751V32.6266H473.265Z" fill="#1C2541"/>
<path d="M463.988 32.9211C461.626 32.9211 459.722 32.1923 458.275 30.7349C456.841 29.2774 456.123 27.2383 456.123 24.6173V9.69995C456.123 6.56461 456.748 4.16412 457.997 2.49847C459.258 0.832824 461.305 0 464.137 0C465.683 0 467.055 0.281691 468.255 0.845072C469.467 1.40845 470.419 2.25352 471.111 3.38029C471.804 4.4948 472.15 5.90325 472.15 7.60564V13.1905H465.658V8.41397C465.658 7.44643 465.534 6.79732 465.287 6.46663C465.039 6.12371 464.656 5.95224 464.137 5.95224C463.531 5.95224 463.123 6.1727 462.912 6.6136C462.702 7.04226 462.597 7.61789 462.597 8.34049V24.5254C462.597 25.4195 462.727 26.0503 462.987 26.4177C463.259 26.7851 463.642 26.9688 464.137 26.9688C464.693 26.9688 465.083 26.7422 465.305 26.2891C465.54 25.8359 465.658 25.248 465.658 24.5254V18.7018H472.224V24.8194C472.224 27.6608 471.501 29.7245 470.054 31.0105C468.607 32.2842 466.585 32.9211 463.988 32.9211Z" fill="#1C2541"/>
<path d="M439.418 32.6266V0.293457H449.434C451.104 0.293457 452.365 0.673127 453.219 1.43247C454.072 2.17956 454.641 3.23284 454.925 4.5923C455.222 5.93952 455.37 7.52556 455.37 9.35042C455.37 11.114 455.142 12.5225 454.684 13.5758C454.239 14.6291 453.392 15.3578 452.143 15.7619C453.169 15.9702 453.886 16.4784 454.294 17.2867C454.715 18.0828 454.925 19.1177 454.925 20.3915V32.6266H448.488V19.9689C448.488 19.0259 448.291 18.4441 447.895 18.2237C447.511 17.991 446.887 17.8746 446.021 17.8746V32.6266H439.418ZM446.058 12.2714H447.635C448.538 12.2714 448.989 11.2978 448.989 9.35042C448.989 8.08894 448.89 7.26224 448.692 6.87032C448.495 6.4784 448.124 6.28244 447.579 6.28244H446.058V12.2714Z" fill="#1C2541"/>
<path d="M429.87 32.9211C427.26 32.9211 425.263 32.1433 423.878 30.5879C422.505 29.0202 421.819 26.7606 421.819 23.809V8.45072C421.819 5.6828 422.499 3.58237 423.86 2.14942C425.232 0.716474 427.236 0 429.87 0C432.504 0 434.501 0.716474 435.861 2.14942C437.234 3.58237 437.92 5.6828 437.92 8.45072V23.809C437.92 26.7606 437.228 29.0202 435.843 30.5879C434.47 32.1433 432.479 32.9211 429.87 32.9211ZM429.925 26.9688C430.915 26.9688 431.409 26.0196 431.409 24.1213V8.34049C431.409 6.74833 430.927 5.95224 429.962 5.95224C428.874 5.95224 428.33 6.7667 428.33 8.3956V24.158C428.33 25.1623 428.454 25.8849 428.701 26.3258C428.948 26.7545 429.356 26.9688 429.925 26.9688Z" fill="#1C2541"/>
<path d="M408.05 32.6266V0.293457H421.109V6.59475H414.617V11.7387H420.775V17.9665H414.617V32.6266H408.05Z" fill="#1C2541"/>
<path d="M390.266 32.6266V0.293457H396.981L399.986 15.7803V0.293457H406.293V32.6266H399.912L396.647 16.46V32.6266H390.266Z" fill="#1C2541"/>
<path d="M375.754 32.6266V0.293457H388.813V6.53964H382.395V12.8409H388.553V18.9218H382.395V26.3253H389.24V32.6266H375.754Z" fill="#1C2541"/>
<path d="M344.647 32.6266L341.141 0.293457H347.522L349.321 20.7038L351.158 0.293457H357.242L358.986 20.7038L360.729 0.293457H367.185L363.623 32.6266H355.795L354.163 17.0663L352.605 32.6266H344.647Z" fill="#1C2541"/>
<path d="M324.414 32.6266L327.567 0.293457H338.641L341.739 32.6266H335.562L335.098 27.4092H331.166L330.758 32.6266H324.414ZM331.63 22.247H334.598L333.169 5.80479H332.872L331.63 22.247Z" fill="#1C2541"/>
<path d="M311.347 32.6266V0.293457H317.876V27.1153H324.591V32.6266H311.347Z" fill="#1C2541"/>
<path d="M287.173 32.6266L290.326 0.293457H301.4L304.498 32.6266H298.321L297.858 27.4092H293.925L293.517 32.6266H287.173ZM294.389 22.247H297.357L295.928 5.80479H295.632L294.389 22.247Z" fill="#1C2541"/>
<path d="M271.289 32.6266V0.293457H278.004L281.009 15.7803V0.293457H287.316V32.6266H280.935L277.67 16.46V32.6266H271.289Z" fill="#1C2541"/>
<path d="M263.527 32.6266V0.293457H269.834V32.6266H263.527Z" fill="#1C2541"/>
<path d="M249.863 32.6266V0.293457H256.392V27.1153H263.107V32.6266H249.863Z" fill="#1C2541"/>
<path d="M240.318 32.9211C237.708 32.9211 235.711 32.1433 234.326 30.5879C232.953 29.0202 232.267 26.7606 232.267 23.809V8.45072C232.267 5.6828 232.947 3.58237 234.308 2.14942C235.68 0.716474 237.684 0 240.318 0C242.952 0 244.949 0.716474 246.309 2.14942C247.682 3.58237 248.368 5.6828 248.368 8.45072V23.809C248.368 26.7606 247.676 29.0202 246.291 30.5879C244.918 32.1433 242.927 32.9211 240.318 32.9211ZM240.373 26.9688C241.363 26.9688 241.857 26.0196 241.857 24.1213V8.34049C241.857 6.74833 241.375 5.95224 240.41 5.95224C239.322 5.95224 238.778 6.7667 238.778 8.3956V24.158C238.778 25.1623 238.902 25.8849 239.149 26.3258C239.396 26.7545 239.804 26.9688 240.373 26.9688Z" fill="#1C2541"/>
<path d="M215.568 32.6266V0.293457H225.585C227.254 0.293457 228.516 0.673127 229.369 1.43247C230.222 2.17956 230.791 3.23284 231.075 4.5923C231.372 5.93952 231.521 7.52556 231.521 9.35042C231.521 11.114 231.292 12.5225 230.834 13.5758C230.389 14.6291 229.542 15.3578 228.293 15.7619C229.319 15.9702 230.037 16.4784 230.445 17.2867C230.865 18.0828 231.075 19.1177 231.075 20.3915V32.6266H224.639V19.9689C224.639 19.0259 224.441 18.4441 224.045 18.2237C223.662 17.991 223.037 17.8746 222.172 17.8746V32.6266H215.568ZM222.209 12.2714H223.785C224.688 12.2714 225.14 11.2978 225.14 9.35042C225.14 8.08894 225.041 7.26224 224.843 6.87032C224.645 6.4784 224.274 6.28244 223.73 6.28244H222.209V12.2714Z" fill="#1C2541"/>
<path d="M197.372 32.6266L200.526 0.293457H211.6L214.698 32.6266H208.521L208.057 27.4092H204.124L203.716 32.6266H197.372ZM204.588 22.247H207.556L206.128 5.80479H205.831L204.588 22.247Z" fill="#1C2541"/>
<path d="M188.982 32.9211C186.62 32.9211 184.715 32.1923 183.269 30.7349C181.834 29.2774 181.117 27.2383 181.117 24.6173V9.69995C181.117 6.56461 181.741 4.16412 182.99 2.49847C184.252 0.832824 186.298 0 189.13 0C190.676 0 192.049 0.281691 193.248 0.845072C194.46 1.40845 195.412 2.25352 196.105 3.38029C196.797 4.4948 197.144 5.90325 197.144 7.60564V13.1905H190.651V8.41397C190.651 7.44643 190.528 6.79732 190.28 6.46663C190.033 6.12371 189.65 5.95224 189.13 5.95224C188.524 5.95224 188.116 6.1727 187.906 6.6136C187.696 7.04226 187.591 7.61789 187.591 8.34049V24.5254C187.591 25.4195 187.72 26.0503 187.98 26.4177C188.252 26.7851 188.636 26.9688 189.13 26.9688C189.687 26.9688 190.076 26.7422 190.299 26.2891C190.534 25.8359 190.651 25.248 190.651 24.5254V18.7018H197.218V24.8194C197.218 27.6608 196.494 29.7245 195.048 31.0105C193.601 32.2842 191.579 32.9211 188.982 32.9211Z" fill="#1C2541"/>
<path d="M155.797 32.6266V0.293457H162.289V11.8489H165.368V0.293457H171.861V32.6266H165.368V17.9665H162.289V32.6266H155.797Z" fill="#1C2541"/>
<path d="M144.712 32.6266V6.5029H140.835V0.293457H155.119V6.5029H151.242V32.6266H144.712Z" fill="#1C2541"/>
<path d="M124.946 32.6266V0.293457H134.962C136.632 0.293457 137.893 0.673127 138.747 1.43247C139.6 2.17956 140.169 3.23284 140.453 4.5923C140.75 5.93952 140.898 7.52556 140.898 9.35042C140.898 11.114 140.67 12.5225 140.212 13.5758C139.767 14.6291 138.92 15.3578 137.671 15.7619C138.697 15.9702 139.414 16.4784 139.822 17.2867C140.243 18.0828 140.453 19.1177 140.453 20.3915V32.6266H134.016V19.9689C134.016 19.0259 133.819 18.4441 133.423 18.2237C133.04 17.991 132.415 17.8746 131.549 17.8746V32.6266H124.946ZM131.586 12.2714H133.163C134.066 12.2714 134.517 11.2978 134.517 9.35042C134.517 8.08894 134.418 7.26224 134.22 6.87032C134.023 6.4784 133.652 6.28244 133.108 6.28244H131.586V12.2714Z" fill="#1C2541"/>
<path d="M115.405 32.9211C112.796 32.9211 110.799 32.1433 109.414 30.5879C108.041 29.0202 107.355 26.7606 107.355 23.809V8.45072C107.355 5.6828 108.035 3.58237 109.395 2.14942C110.768 0.716474 112.771 0 115.405 0C118.039 0 120.036 0.716474 121.397 2.14942C122.769 3.58237 123.456 5.6828 123.456 8.45072V23.809C123.456 26.7606 122.763 29.0202 121.378 30.5879C120.006 32.1433 118.015 32.9211 115.405 32.9211ZM115.461 26.9688C116.45 26.9688 116.945 26.0196 116.945 24.1213V8.34049C116.945 6.74833 116.463 5.95224 115.498 5.95224C114.41 5.95224 113.866 6.7667 113.866 8.3956V24.158C113.866 25.1623 113.989 25.8849 114.237 26.3258C114.484 26.7545 114.892 26.9688 115.461 26.9688Z" fill="#1C2541"/>
<path d="M89.8292 32.6266V0.293457H96.5441L99.5492 15.7803V0.293457H105.856V32.6266H99.475L96.2102 16.46V32.6266H89.8292Z" fill="#1C2541"/>
<path d="M548.199 79.6379V47.5036H543.431V39.8655H561V47.5036H556.231V79.6379H548.199Z" fill="#018EDD"/>
<path d="M533.333 79.9999C530.427 79.9999 528.085 79.1035 526.305 77.3108C524.54 75.518 523.658 73.0096 523.658 69.7856V51.4361C523.658 47.5794 524.426 44.6266 525.963 42.5777C527.514 40.5288 530.032 39.5044 533.515 39.5044C535.417 39.5044 537.105 39.8509 538.581 40.5439C540.072 41.2369 541.243 42.2764 542.095 43.6624C542.947 45.0334 543.372 46.7659 543.372 48.8599V55.7297H535.386V49.8543C535.386 48.6641 535.234 47.8656 534.93 47.4589C534.626 47.037 534.154 46.8261 533.515 46.8261C532.77 46.8261 532.268 47.0973 532.009 47.6397C531.751 48.1669 531.621 48.875 531.621 49.7639V69.6727C531.621 70.7724 531.781 71.5483 532.101 72.0002C532.435 72.4522 532.907 72.6782 533.515 72.6782C534.2 72.6782 534.679 72.3995 534.953 71.8421C535.242 71.2846 535.386 70.5615 535.386 69.6727V62.5091H543.464V70.0342C543.464 73.5294 542.574 76.0679 540.794 77.6497C539.014 79.2165 536.527 79.9999 533.333 79.9999Z" fill="#018EDD"/>
<path d="M506.121 79.6379V39.8655H522.185V47.5488H514.29V55.2999H521.865V62.7798H514.29V71.8868H522.71V79.6379H506.121Z" fill="#018EDD"/>
<path d="M494.608 79.9995C492.798 79.9995 491.147 79.6529 489.657 78.9599C488.166 78.2669 486.979 77.2425 486.097 75.8866C485.23 74.5157 484.796 72.8359 484.796 70.8473V60.8816H492.737V70.3727C492.737 71.0657 492.874 71.6231 493.148 72.045C493.437 72.4668 493.893 72.6777 494.517 72.6777C495.718 72.6777 496.319 71.947 496.319 70.4857V39.8655H504.419V69.6948C504.419 71.8039 504.001 73.6344 503.165 75.1861C502.328 76.7227 501.172 77.9129 499.696 78.7566C498.221 79.5852 496.525 79.9995 494.608 79.9995Z" fill="#018EDD"/>
<path d="M473.967 79.9999C470.758 79.9999 468.301 79.0433 466.597 77.13C464.909 75.2016 464.065 72.4221 464.065 68.7913V49.8995C464.065 46.4947 464.901 43.911 466.575 42.1484C468.263 40.3857 470.727 39.5044 473.967 39.5044C477.208 39.5044 479.664 40.3857 481.338 42.1484C483.026 43.911 483.87 46.4947 483.87 49.8995V68.7913C483.87 72.4221 483.018 75.2016 481.315 77.13C479.626 79.0433 477.177 79.9999 473.967 79.9999ZM474.036 72.6782C475.253 72.6782 475.861 71.5106 475.861 69.1755V49.7639C475.861 47.8054 475.268 46.8261 474.082 46.8261C472.743 46.8261 472.074 47.828 472.074 49.8317V69.2207C472.074 70.4561 472.226 71.3449 472.53 71.8873C472.834 72.4145 473.336 72.6782 474.036 72.6782Z" fill="#018EDD"/>
<path d="M443.517 79.6379V39.8655H455.839C457.892 39.8655 459.444 40.3325 460.494 41.2666C461.543 42.1855 462.243 43.4812 462.593 45.1534C462.958 46.8106 463.14 48.7615 463.14 51.0063C463.14 53.1757 462.859 54.9082 462.296 56.2038C461.749 57.4994 460.707 58.3958 459.17 58.893C460.433 59.1491 461.315 59.7743 461.817 60.7686C462.334 61.7478 462.593 63.0208 462.593 64.5876V79.6379H454.675V64.0679C454.675 62.9079 454.432 62.1923 453.945 61.9211C453.473 61.6348 452.705 61.4917 451.64 61.4917V79.6379H443.517ZM451.686 54.5993H453.625C454.736 54.5993 455.291 53.4017 455.291 51.0063C455.291 49.4545 455.169 48.4376 454.926 47.9555C454.683 47.4735 454.226 47.2324 453.557 47.2324H451.686V54.5993Z" fill="#018EDD"/>
<path d="M422.832 79.6384V39.866H433.443C435.663 39.866 437.42 40.3556 438.713 41.3348C440.022 42.3141 440.957 43.7076 441.52 45.5155C442.083 47.3233 442.364 49.4776 442.364 51.9785C442.364 54.3889 442.128 56.4905 441.657 58.2833C441.185 60.061 440.341 61.4395 439.124 62.4187C437.922 63.398 436.211 63.8876 433.99 63.8876H430.727V79.6384H422.832ZM430.727 56.7466H431.184C432.674 56.7466 433.587 56.3323 433.922 55.5038C434.256 54.6752 434.424 53.4549 434.424 51.8429C434.424 50.3364 434.256 49.1763 433.922 48.3628C433.602 47.5342 432.834 47.1199 431.617 47.1199H430.727V56.7466Z" fill="#018EDD"/>
</svg>
