<svg width="139" height="609" viewBox="0 0 139 609" fill="none" xmlns="http://www.w3.org/2000/svg">
<line x1="135.5" y1="4" x2="135.5" y2="609" stroke="#D1D1D1"/>
<rect x="132" width="7" height="7" fill="#018EDD"/>
<mask id="mask0_81_4" style="mask-type:alpha" maskUnits="userSpaceOnUse" x="0" y="472" width="135" height="136">
<rect x="0.5" y="472.5" width="134" height="135" fill="#D9D9D9" stroke="#3B506B"/>
</mask>
<g mask="url(#mask0_81_4)">
<line x1="183.354" y1="170.524" x2="-1143.65" y2="1497.52" stroke="#D1D1D1"/>
<line x1="174.354" y1="170.524" x2="-1152.65" y2="1497.52" stroke="#D1D1D1"/>
<line x1="165.354" y1="170.524" x2="-1161.65" y2="1497.52" stroke="#D1D1D1"/>
<line x1="156.354" y1="170.524" x2="-1170.65" y2="1497.52" stroke="#D1D1D1"/>
<line x1="147.354" y1="170.524" x2="-1179.65" y2="1497.52" stroke="#D1D1D1"/>
<line x1="138.354" y1="170.524" x2="-1188.65" y2="1497.52" stroke="#D1D1D1"/>
<line x1="129.354" y1="170.524" x2="-1197.65" y2="1497.52" stroke="#D1D1D1"/>
<line x1="120.354" y1="170.524" x2="-1206.65" y2="1497.52" stroke="#D1D1D1"/>
<line x1="111.354" y1="170.524" x2="-1215.65" y2="1497.52" stroke="#D1D1D1"/>
<line x1="102.354" y1="170.524" x2="-1224.65" y2="1497.52" stroke="#D1D1D1"/>
<line x1="93.3536" y1="170.524" x2="-1233.65" y2="1497.52" stroke="#D1D1D1"/>
<line x1="84.3536" y1="170.524" x2="-1242.65" y2="1497.52" stroke="#D1D1D1"/>
<line x1="75.3536" y1="170.524" x2="-1251.65" y2="1497.52" stroke="#D1D1D1"/>
<line x1="66.3536" y1="170.524" x2="-1260.65" y2="1497.52" stroke="#D1D1D1"/>
<line x1="57.3536" y1="170.524" x2="-1269.65" y2="1497.52" stroke="#D1D1D1"/>
<line x1="48.3536" y1="170.524" x2="-1278.65" y2="1497.52" stroke="#D1D1D1"/>
<line x1="39.3536" y1="170.524" x2="-1287.65" y2="1497.52" stroke="#D1D1D1"/>
<line x1="30.3536" y1="170.524" x2="-1296.65" y2="1497.52" stroke="#D1D1D1"/>
<line x1="21.3536" y1="170.524" x2="-1305.65" y2="1497.52" stroke="#D1D1D1"/>
<line x1="12.3536" y1="170.524" x2="-1314.65" y2="1497.52" stroke="#D1D1D1"/>
<line x1="3.35355" y1="170.524" x2="-1323.65" y2="1497.52" stroke="#D1D1D1"/>
<line x1="1047.35" y1="170.524" x2="-279.646" y2="1497.52" stroke="#D1D1D1"/>
<line x1="1038.35" y1="170.524" x2="-288.646" y2="1497.52" stroke="#D1D1D1"/>
<line x1="1029.35" y1="170.524" x2="-297.646" y2="1497.52" stroke="#D1D1D1"/>
<line x1="1020.35" y1="170.524" x2="-306.646" y2="1497.52" stroke="#D1D1D1"/>
<line x1="1011.35" y1="170.524" x2="-315.646" y2="1497.52" stroke="#D1D1D1"/>
<line x1="1002.35" y1="170.524" x2="-324.646" y2="1497.52" stroke="#D1D1D1"/>
<line x1="993.354" y1="170.524" x2="-333.646" y2="1497.52" stroke="#D1D1D1"/>
<line x1="984.354" y1="170.524" x2="-342.646" y2="1497.52" stroke="#D1D1D1"/>
<line x1="975.354" y1="170.524" x2="-351.646" y2="1497.52" stroke="#D1D1D1"/>
<line x1="966.354" y1="170.524" x2="-360.646" y2="1497.52" stroke="#D1D1D1"/>
<line x1="957.354" y1="170.524" x2="-369.646" y2="1497.52" stroke="#D1D1D1"/>
<line x1="948.354" y1="170.524" x2="-378.646" y2="1497.52" stroke="#D1D1D1"/>
<line x1="939.354" y1="170.524" x2="-387.646" y2="1497.52" stroke="#D1D1D1"/>
<line x1="930.354" y1="170.524" x2="-396.646" y2="1497.52" stroke="#D1D1D1"/>
<line x1="921.354" y1="170.524" x2="-405.646" y2="1497.52" stroke="#D1D1D1"/>
<line x1="912.354" y1="170.524" x2="-414.646" y2="1497.52" stroke="#D1D1D1"/>
<line x1="903.354" y1="170.524" x2="-423.646" y2="1497.52" stroke="#D1D1D1"/>
<line x1="894.354" y1="170.524" x2="-432.646" y2="1497.52" stroke="#D1D1D1"/>
<line x1="885.354" y1="170.524" x2="-441.646" y2="1497.52" stroke="#D1D1D1"/>
<line x1="876.354" y1="170.524" x2="-450.646" y2="1497.52" stroke="#D1D1D1"/>
<line x1="867.354" y1="170.524" x2="-459.646" y2="1497.52" stroke="#D1D1D1"/>
<line x1="858.354" y1="170.524" x2="-468.646" y2="1497.52" stroke="#D1D1D1"/>
<line x1="849.354" y1="170.524" x2="-477.646" y2="1497.52" stroke="#D1D1D1"/>
<line x1="840.354" y1="170.524" x2="-486.646" y2="1497.52" stroke="#D1D1D1"/>
<line x1="831.354" y1="170.524" x2="-495.646" y2="1497.52" stroke="#D1D1D1"/>
<line x1="822.354" y1="170.524" x2="-504.646" y2="1497.52" stroke="#D1D1D1"/>
<line x1="813.354" y1="170.524" x2="-513.646" y2="1497.52" stroke="#D1D1D1"/>
<line x1="804.354" y1="170.524" x2="-522.646" y2="1497.52" stroke="#D1D1D1"/>
<line x1="795.354" y1="170.524" x2="-531.646" y2="1497.52" stroke="#D1D1D1"/>
<line x1="786.354" y1="170.524" x2="-540.646" y2="1497.52" stroke="#D1D1D1"/>
<line x1="777.354" y1="170.524" x2="-549.646" y2="1497.52" stroke="#D1D1D1"/>
<line x1="768.354" y1="170.524" x2="-558.646" y2="1497.52" stroke="#D1D1D1"/>
<line x1="759.354" y1="170.524" x2="-567.646" y2="1497.52" stroke="#D1D1D1"/>
<line x1="750.354" y1="170.524" x2="-576.646" y2="1497.52" stroke="#D1D1D1"/>
<line x1="741.354" y1="170.524" x2="-585.646" y2="1497.52" stroke="#D1D1D1"/>
<line x1="732.354" y1="170.524" x2="-594.646" y2="1497.52" stroke="#D1D1D1"/>
<line x1="723.354" y1="170.524" x2="-603.646" y2="1497.52" stroke="#D1D1D1"/>
<line x1="714.354" y1="170.524" x2="-612.646" y2="1497.52" stroke="#D1D1D1"/>
<line x1="705.354" y1="170.524" x2="-621.646" y2="1497.52" stroke="#D1D1D1"/>
<line x1="696.354" y1="170.524" x2="-630.646" y2="1497.52" stroke="#D1D1D1"/>
<line x1="687.354" y1="170.524" x2="-639.646" y2="1497.52" stroke="#D1D1D1"/>
<line x1="678.354" y1="170.524" x2="-648.646" y2="1497.52" stroke="#D1D1D1"/>
<line x1="669.354" y1="170.524" x2="-657.646" y2="1497.52" stroke="#D1D1D1"/>
<line x1="660.354" y1="170.524" x2="-666.646" y2="1497.52" stroke="#D1D1D1"/>
<line x1="651.354" y1="170.524" x2="-675.646" y2="1497.52" stroke="#D1D1D1"/>
<line x1="642.354" y1="170.524" x2="-684.646" y2="1497.52" stroke="#D1D1D1"/>
<line x1="633.354" y1="170.524" x2="-693.646" y2="1497.52" stroke="#D1D1D1"/>
<line x1="624.354" y1="170.524" x2="-702.646" y2="1497.52" stroke="#D1D1D1"/>
<line x1="615.354" y1="170.524" x2="-711.646" y2="1497.52" stroke="#D1D1D1"/>
<line x1="606.354" y1="170.524" x2="-720.646" y2="1497.52" stroke="#D1D1D1"/>
<line x1="597.354" y1="170.524" x2="-729.646" y2="1497.52" stroke="#D1D1D1"/>
<line x1="588.354" y1="170.524" x2="-738.646" y2="1497.52" stroke="#D1D1D1"/>
<line x1="579.354" y1="170.524" x2="-747.646" y2="1497.52" stroke="#D1D1D1"/>
<line x1="570.354" y1="170.524" x2="-756.646" y2="1497.52" stroke="#D1D1D1"/>
<line x1="561.354" y1="170.524" x2="-765.646" y2="1497.52" stroke="#D1D1D1"/>
<line x1="552.354" y1="170.524" x2="-774.646" y2="1497.52" stroke="#D1D1D1"/>
<line x1="543.354" y1="170.524" x2="-783.646" y2="1497.52" stroke="#D1D1D1"/>
<line x1="534.354" y1="170.524" x2="-792.646" y2="1497.52" stroke="#D1D1D1"/>
<line x1="525.354" y1="170.524" x2="-801.646" y2="1497.52" stroke="#D1D1D1"/>
<line x1="516.354" y1="170.524" x2="-810.646" y2="1497.52" stroke="#D1D1D1"/>
<line x1="507.354" y1="170.524" x2="-819.646" y2="1497.52" stroke="#D1D1D1"/>
<line x1="498.354" y1="170.524" x2="-828.646" y2="1497.52" stroke="#D1D1D1"/>
<line x1="489.354" y1="170.524" x2="-837.646" y2="1497.52" stroke="#D1D1D1"/>
<line x1="480.354" y1="170.524" x2="-846.646" y2="1497.52" stroke="#D1D1D1"/>
<line x1="471.354" y1="170.524" x2="-855.646" y2="1497.52" stroke="#D1D1D1"/>
<line x1="462.354" y1="170.524" x2="-864.646" y2="1497.52" stroke="#D1D1D1"/>
<line x1="453.354" y1="170.524" x2="-873.646" y2="1497.52" stroke="#D1D1D1"/>
<line x1="444.354" y1="170.524" x2="-882.646" y2="1497.52" stroke="#D1D1D1"/>
<line x1="435.354" y1="170.524" x2="-891.646" y2="1497.52" stroke="#D1D1D1"/>
<line x1="426.354" y1="170.524" x2="-900.646" y2="1497.52" stroke="#D1D1D1"/>
<line x1="417.354" y1="170.524" x2="-909.646" y2="1497.52" stroke="#D1D1D1"/>
<line x1="408.354" y1="170.524" x2="-918.646" y2="1497.52" stroke="#D1D1D1"/>
<line x1="399.354" y1="170.524" x2="-927.646" y2="1497.52" stroke="#D1D1D1"/>
<line x1="390.354" y1="170.524" x2="-936.646" y2="1497.52" stroke="#D1D1D1"/>
<line x1="381.354" y1="170.524" x2="-945.646" y2="1497.52" stroke="#D1D1D1"/>
<line x1="372.354" y1="170.524" x2="-954.646" y2="1497.52" stroke="#D1D1D1"/>
<line x1="363.354" y1="170.524" x2="-963.646" y2="1497.52" stroke="#D1D1D1"/>
<line x1="354.354" y1="170.524" x2="-972.646" y2="1497.52" stroke="#D1D1D1"/>
<line x1="345.354" y1="170.524" x2="-981.646" y2="1497.52" stroke="#D1D1D1"/>
<line x1="336.354" y1="170.524" x2="-990.646" y2="1497.52" stroke="#D1D1D1"/>
<line x1="327.354" y1="170.524" x2="-999.646" y2="1497.52" stroke="#D1D1D1"/>
<line x1="318.354" y1="170.524" x2="-1008.65" y2="1497.52" stroke="#D1D1D1"/>
<line x1="309.354" y1="170.524" x2="-1017.65" y2="1497.52" stroke="#D1D1D1"/>
<line x1="300.354" y1="170.524" x2="-1026.65" y2="1497.52" stroke="#D1D1D1"/>
<line x1="291.354" y1="170.524" x2="-1035.65" y2="1497.52" stroke="#D1D1D1"/>
<line x1="282.354" y1="170.524" x2="-1044.65" y2="1497.52" stroke="#D1D1D1"/>
<line x1="273.354" y1="170.524" x2="-1053.65" y2="1497.52" stroke="#D1D1D1"/>
<line x1="264.354" y1="170.524" x2="-1062.65" y2="1497.52" stroke="#D1D1D1"/>
<line x1="255.354" y1="170.524" x2="-1071.65" y2="1497.52" stroke="#D1D1D1"/>
<line x1="246.354" y1="170.524" x2="-1080.65" y2="1497.52" stroke="#D1D1D1"/>
<line x1="237.354" y1="170.524" x2="-1089.65" y2="1497.52" stroke="#D1D1D1"/>
<line x1="228.354" y1="170.524" x2="-1098.65" y2="1497.52" stroke="#D1D1D1"/>
<line x1="219.354" y1="170.524" x2="-1107.65" y2="1497.52" stroke="#D1D1D1"/>
<line x1="210.354" y1="170.524" x2="-1116.65" y2="1497.52" stroke="#D1D1D1"/>
<line x1="201.354" y1="170.524" x2="-1125.65" y2="1497.52" stroke="#D1D1D1"/>
<line x1="192.354" y1="170.524" x2="-1134.65" y2="1497.52" stroke="#D1D1D1"/>
</g>
</svg>
