<svg width="176" height="204" viewBox="0 0 176 204" fill="none" xmlns="http://www.w3.org/2000/svg">
<mask id="mask0_69_5044" style="mask-type:alpha" maskUnits="userSpaceOnUse" x="0" y="0" width="176" height="204">
<rect x="0.5" y="0.5" width="175" height="203" fill="#D9D9D9" stroke="#59BDFF"/>
</mask>
<g mask="url(#mask0_69_5044)">
<line x1="329.354" y1="-301.476" x2="-997.646" y2="1025.52" stroke="#59BDFF"/>
<line x1="320.354" y1="-301.476" x2="-1006.65" y2="1025.52" stroke="#59BDFF"/>
<line x1="311.354" y1="-301.476" x2="-1015.65" y2="1025.52" stroke="#59BDFF"/>
<line x1="302.354" y1="-301.476" x2="-1024.65" y2="1025.52" stroke="#59BDFF"/>
<line x1="293.354" y1="-301.476" x2="-1033.65" y2="1025.52" stroke="#59BDFF"/>
<line x1="284.354" y1="-301.476" x2="-1042.65" y2="1025.52" stroke="#59BDFF"/>
<line x1="275.354" y1="-301.476" x2="-1051.65" y2="1025.52" stroke="#59BDFF"/>
<line x1="266.354" y1="-301.476" x2="-1060.65" y2="1025.52" stroke="#59BDFF"/>
<line x1="257.354" y1="-301.476" x2="-1069.65" y2="1025.52" stroke="#59BDFF"/>
<line x1="248.354" y1="-301.476" x2="-1078.65" y2="1025.52" stroke="#59BDFF"/>
<line x1="239.354" y1="-301.476" x2="-1087.65" y2="1025.52" stroke="#59BDFF"/>
<line x1="230.354" y1="-301.476" x2="-1096.65" y2="1025.52" stroke="#59BDFF"/>
<line x1="221.354" y1="-301.476" x2="-1105.65" y2="1025.52" stroke="#59BDFF"/>
<line x1="212.354" y1="-301.476" x2="-1114.65" y2="1025.52" stroke="#59BDFF"/>
<line x1="203.354" y1="-301.476" x2="-1123.65" y2="1025.52" stroke="#59BDFF"/>
<line x1="194.354" y1="-301.476" x2="-1132.65" y2="1025.52" stroke="#59BDFF"/>
<line x1="185.354" y1="-301.476" x2="-1141.65" y2="1025.52" stroke="#59BDFF"/>
<line x1="176.354" y1="-301.476" x2="-1150.65" y2="1025.52" stroke="#59BDFF"/>
<line x1="167.354" y1="-301.476" x2="-1159.65" y2="1025.52" stroke="#59BDFF"/>
<line x1="158.354" y1="-301.476" x2="-1168.65" y2="1025.52" stroke="#59BDFF"/>
<line x1="149.354" y1="-301.476" x2="-1177.65" y2="1025.52" stroke="#59BDFF"/>
<line x1="140.354" y1="-301.476" x2="-1186.65" y2="1025.52" stroke="#59BDFF"/>
<line x1="131.354" y1="-301.476" x2="-1195.65" y2="1025.52" stroke="#59BDFF"/>
<line x1="122.354" y1="-301.476" x2="-1204.65" y2="1025.52" stroke="#59BDFF"/>
<line x1="113.354" y1="-301.476" x2="-1213.65" y2="1025.52" stroke="#59BDFF"/>
<line x1="104.354" y1="-301.476" x2="-1222.65" y2="1025.52" stroke="#59BDFF"/>
<line x1="95.3536" y1="-301.476" x2="-1231.65" y2="1025.52" stroke="#59BDFF"/>
<line x1="86.3536" y1="-301.476" x2="-1240.65" y2="1025.52" stroke="#59BDFF"/>
<line x1="77.3536" y1="-301.476" x2="-1249.65" y2="1025.52" stroke="#59BDFF"/>
<line x1="68.3536" y1="-301.476" x2="-1258.65" y2="1025.52" stroke="#59BDFF"/>
<line x1="59.3536" y1="-301.476" x2="-1267.65" y2="1025.52" stroke="#59BDFF"/>
<line x1="50.3536" y1="-301.476" x2="-1276.65" y2="1025.52" stroke="#59BDFF"/>
<line x1="41.3536" y1="-301.476" x2="-1285.65" y2="1025.52" stroke="#59BDFF"/>
<line x1="32.3536" y1="-301.476" x2="-1294.65" y2="1025.52" stroke="#59BDFF"/>
<line x1="23.3536" y1="-301.476" x2="-1303.65" y2="1025.52" stroke="#59BDFF"/>
<line x1="14.3536" y1="-301.476" x2="-1312.65" y2="1025.52" stroke="#59BDFF"/>
<line x1="5.35355" y1="-301.476" x2="-1321.65" y2="1025.52" stroke="#59BDFF"/>
<line x1="1193.35" y1="-301.476" x2="-133.646" y2="1025.52" stroke="#59BDFF"/>
<line x1="1184.35" y1="-301.476" x2="-142.646" y2="1025.52" stroke="#59BDFF"/>
<line x1="1175.35" y1="-301.476" x2="-151.646" y2="1025.52" stroke="#59BDFF"/>
<line x1="1166.35" y1="-301.476" x2="-160.646" y2="1025.52" stroke="#59BDFF"/>
<line x1="1157.35" y1="-301.476" x2="-169.646" y2="1025.52" stroke="#59BDFF"/>
<line x1="1148.35" y1="-301.476" x2="-178.646" y2="1025.52" stroke="#59BDFF"/>
<line x1="1139.35" y1="-301.476" x2="-187.646" y2="1025.52" stroke="#59BDFF"/>
<line x1="1130.35" y1="-301.476" x2="-196.646" y2="1025.52" stroke="#59BDFF"/>
<line x1="1121.35" y1="-301.476" x2="-205.646" y2="1025.52" stroke="#59BDFF"/>
<line x1="1112.35" y1="-301.476" x2="-214.646" y2="1025.52" stroke="#59BDFF"/>
<line x1="1103.35" y1="-301.476" x2="-223.646" y2="1025.52" stroke="#59BDFF"/>
<line x1="1094.35" y1="-301.476" x2="-232.646" y2="1025.52" stroke="#59BDFF"/>
<line x1="1085.35" y1="-301.476" x2="-241.646" y2="1025.52" stroke="#59BDFF"/>
<line x1="1076.35" y1="-301.476" x2="-250.646" y2="1025.52" stroke="#59BDFF"/>
<line x1="1067.35" y1="-301.476" x2="-259.646" y2="1025.52" stroke="#59BDFF"/>
<line x1="1058.35" y1="-301.476" x2="-268.646" y2="1025.52" stroke="#59BDFF"/>
<line x1="1049.35" y1="-301.476" x2="-277.646" y2="1025.52" stroke="#59BDFF"/>
<line x1="1040.35" y1="-301.476" x2="-286.646" y2="1025.52" stroke="#59BDFF"/>
<line x1="1031.35" y1="-301.476" x2="-295.646" y2="1025.52" stroke="#59BDFF"/>
<line x1="1022.35" y1="-301.476" x2="-304.646" y2="1025.52" stroke="#59BDFF"/>
<line x1="1013.35" y1="-301.476" x2="-313.646" y2="1025.52" stroke="#59BDFF"/>
<line x1="1004.35" y1="-301.476" x2="-322.646" y2="1025.52" stroke="#59BDFF"/>
<line x1="995.354" y1="-301.476" x2="-331.646" y2="1025.52" stroke="#59BDFF"/>
<line x1="986.354" y1="-301.476" x2="-340.646" y2="1025.52" stroke="#59BDFF"/>
<line x1="977.354" y1="-301.476" x2="-349.646" y2="1025.52" stroke="#59BDFF"/>
<line x1="968.354" y1="-301.476" x2="-358.646" y2="1025.52" stroke="#59BDFF"/>
<line x1="959.354" y1="-301.476" x2="-367.646" y2="1025.52" stroke="#59BDFF"/>
<line x1="950.354" y1="-301.476" x2="-376.646" y2="1025.52" stroke="#59BDFF"/>
<line x1="941.354" y1="-301.476" x2="-385.646" y2="1025.52" stroke="#59BDFF"/>
<line x1="932.354" y1="-301.476" x2="-394.646" y2="1025.52" stroke="#59BDFF"/>
<line x1="923.354" y1="-301.476" x2="-403.646" y2="1025.52" stroke="#59BDFF"/>
<line x1="914.354" y1="-301.476" x2="-412.646" y2="1025.52" stroke="#59BDFF"/>
<line x1="905.354" y1="-301.476" x2="-421.646" y2="1025.52" stroke="#59BDFF"/>
<line x1="896.354" y1="-301.476" x2="-430.646" y2="1025.52" stroke="#59BDFF"/>
<line x1="887.354" y1="-301.476" x2="-439.646" y2="1025.52" stroke="#59BDFF"/>
<line x1="878.354" y1="-301.476" x2="-448.646" y2="1025.52" stroke="#59BDFF"/>
<line x1="869.354" y1="-301.476" x2="-457.646" y2="1025.52" stroke="#59BDFF"/>
<line x1="860.354" y1="-301.476" x2="-466.646" y2="1025.52" stroke="#59BDFF"/>
<line x1="851.354" y1="-301.476" x2="-475.646" y2="1025.52" stroke="#59BDFF"/>
<line x1="842.354" y1="-301.476" x2="-484.646" y2="1025.52" stroke="#59BDFF"/>
<line x1="833.354" y1="-301.476" x2="-493.646" y2="1025.52" stroke="#59BDFF"/>
<line x1="824.354" y1="-301.476" x2="-502.646" y2="1025.52" stroke="#59BDFF"/>
<line x1="815.354" y1="-301.476" x2="-511.646" y2="1025.52" stroke="#59BDFF"/>
<line x1="806.354" y1="-301.476" x2="-520.646" y2="1025.52" stroke="#59BDFF"/>
<line x1="797.354" y1="-301.476" x2="-529.646" y2="1025.52" stroke="#59BDFF"/>
<line x1="788.354" y1="-301.476" x2="-538.646" y2="1025.52" stroke="#59BDFF"/>
<line x1="779.354" y1="-301.476" x2="-547.646" y2="1025.52" stroke="#59BDFF"/>
<line x1="770.354" y1="-301.476" x2="-556.646" y2="1025.52" stroke="#59BDFF"/>
<line x1="761.354" y1="-301.476" x2="-565.646" y2="1025.52" stroke="#59BDFF"/>
<line x1="752.354" y1="-301.476" x2="-574.646" y2="1025.52" stroke="#59BDFF"/>
<line x1="743.354" y1="-301.476" x2="-583.646" y2="1025.52" stroke="#59BDFF"/>
<line x1="734.354" y1="-301.476" x2="-592.646" y2="1025.52" stroke="#59BDFF"/>
<line x1="725.354" y1="-301.476" x2="-601.646" y2="1025.52" stroke="#59BDFF"/>
<line x1="716.354" y1="-301.476" x2="-610.646" y2="1025.52" stroke="#59BDFF"/>
<line x1="707.354" y1="-301.476" x2="-619.646" y2="1025.52" stroke="#59BDFF"/>
<line x1="698.354" y1="-301.476" x2="-628.646" y2="1025.52" stroke="#59BDFF"/>
<line x1="689.354" y1="-301.476" x2="-637.646" y2="1025.52" stroke="#59BDFF"/>
<line x1="680.354" y1="-301.476" x2="-646.646" y2="1025.52" stroke="#59BDFF"/>
<line x1="671.354" y1="-301.476" x2="-655.646" y2="1025.52" stroke="#59BDFF"/>
<line x1="662.354" y1="-301.476" x2="-664.646" y2="1025.52" stroke="#59BDFF"/>
<line x1="653.354" y1="-301.476" x2="-673.646" y2="1025.52" stroke="#59BDFF"/>
<line x1="644.354" y1="-301.476" x2="-682.646" y2="1025.52" stroke="#59BDFF"/>
<line x1="635.354" y1="-301.476" x2="-691.646" y2="1025.52" stroke="#59BDFF"/>
<line x1="626.354" y1="-301.476" x2="-700.646" y2="1025.52" stroke="#59BDFF"/>
<line x1="617.354" y1="-301.476" x2="-709.646" y2="1025.52" stroke="#59BDFF"/>
<line x1="608.354" y1="-301.476" x2="-718.646" y2="1025.52" stroke="#59BDFF"/>
<line x1="599.354" y1="-301.476" x2="-727.646" y2="1025.52" stroke="#59BDFF"/>
<line x1="590.354" y1="-301.476" x2="-736.646" y2="1025.52" stroke="#59BDFF"/>
<line x1="581.354" y1="-301.476" x2="-745.646" y2="1025.52" stroke="#59BDFF"/>
<line x1="572.354" y1="-301.476" x2="-754.646" y2="1025.52" stroke="#59BDFF"/>
<line x1="563.354" y1="-301.476" x2="-763.646" y2="1025.52" stroke="#59BDFF"/>
<line x1="554.354" y1="-301.476" x2="-772.646" y2="1025.52" stroke="#59BDFF"/>
<line x1="545.354" y1="-301.476" x2="-781.646" y2="1025.52" stroke="#59BDFF"/>
<line x1="536.354" y1="-301.476" x2="-790.646" y2="1025.52" stroke="#59BDFF"/>
<line x1="527.354" y1="-301.476" x2="-799.646" y2="1025.52" stroke="#59BDFF"/>
<line x1="518.354" y1="-301.476" x2="-808.646" y2="1025.52" stroke="#59BDFF"/>
<line x1="509.354" y1="-301.476" x2="-817.646" y2="1025.52" stroke="#59BDFF"/>
<line x1="500.354" y1="-301.476" x2="-826.646" y2="1025.52" stroke="#59BDFF"/>
<line x1="491.354" y1="-301.476" x2="-835.646" y2="1025.52" stroke="#59BDFF"/>
<line x1="482.354" y1="-301.476" x2="-844.646" y2="1025.52" stroke="#59BDFF"/>
<line x1="473.354" y1="-301.476" x2="-853.646" y2="1025.52" stroke="#59BDFF"/>
<line x1="464.354" y1="-301.476" x2="-862.646" y2="1025.52" stroke="#59BDFF"/>
<line x1="455.354" y1="-301.476" x2="-871.646" y2="1025.52" stroke="#59BDFF"/>
<line x1="446.354" y1="-301.476" x2="-880.646" y2="1025.52" stroke="#59BDFF"/>
<line x1="437.354" y1="-301.476" x2="-889.646" y2="1025.52" stroke="#59BDFF"/>
<line x1="428.354" y1="-301.476" x2="-898.646" y2="1025.52" stroke="#59BDFF"/>
<line x1="419.354" y1="-301.476" x2="-907.646" y2="1025.52" stroke="#59BDFF"/>
<line x1="410.354" y1="-301.476" x2="-916.646" y2="1025.52" stroke="#59BDFF"/>
<line x1="401.354" y1="-301.476" x2="-925.646" y2="1025.52" stroke="#59BDFF"/>
<line x1="392.354" y1="-301.476" x2="-934.646" y2="1025.52" stroke="#59BDFF"/>
<line x1="383.354" y1="-301.476" x2="-943.646" y2="1025.52" stroke="#59BDFF"/>
<line x1="374.354" y1="-301.476" x2="-952.646" y2="1025.52" stroke="#59BDFF"/>
<line x1="365.354" y1="-301.476" x2="-961.646" y2="1025.52" stroke="#59BDFF"/>
<line x1="356.354" y1="-301.476" x2="-970.646" y2="1025.52" stroke="#59BDFF"/>
<line x1="347.354" y1="-301.476" x2="-979.646" y2="1025.52" stroke="#59BDFF"/>
<line x1="338.354" y1="-301.476" x2="-988.646" y2="1025.52" stroke="#59BDFF"/>
</g>
</svg>
