<svg width="47" height="51" viewBox="0 0 47 51" fill="none" xmlns="http://www.w3.org/2000/svg">
<path d="M4.57031 9.20312C4.57031 8.98503 4.51986 8.80111 4.41895 8.65137C4.32129 8.50163 4.19434 8.37467 4.03809 8.27051C3.88184 8.1696 3.70931 8.08496 3.52051 8.0166C3.33496 7.94824 3.15592 7.88639 2.9834 7.83105C2.73275 7.74967 2.47721 7.65202 2.2168 7.53809C1.95964 7.4209 1.72526 7.28092 1.51367 7.11816C1.29883 6.95215 1.12305 6.75684 0.986328 6.53223C0.852865 6.30436 0.786133 6.03743 0.786133 5.73145C0.786133 5.42546 0.852865 5.15202 0.986328 4.91113C1.12305 4.67025 1.30046 4.4668 1.51855 4.30078C1.73665 4.13477 1.98405 4.00944 2.26074 3.9248C2.53743 3.83691 2.81576 3.79297 3.0957 3.79297C3.40495 3.79297 3.7028 3.84505 3.98926 3.94922C4.27572 4.05013 4.52962 4.19336 4.75098 4.37891C4.97233 4.56445 5.14974 4.78906 5.2832 5.05273C5.41667 5.31641 5.48665 5.611 5.49316 5.93652H4.56543C4.53939 5.73145 4.48893 5.5459 4.41406 5.37988C4.33919 5.21061 4.23991 5.06576 4.11621 4.94531C3.99251 4.82487 3.8444 4.7321 3.67188 4.66699C3.5026 4.59863 3.31055 4.56445 3.0957 4.56445C2.92318 4.56445 2.75391 4.58887 2.58789 4.6377C2.42513 4.68652 2.28027 4.75977 2.15332 4.85742C2.02311 4.95508 1.91895 5.07552 1.84082 5.21875C1.76595 5.36198 1.72852 5.52799 1.72852 5.7168C1.73177 5.92188 1.78385 6.09603 1.88477 6.23926C1.98568 6.37923 2.11426 6.49805 2.27051 6.5957C2.4235 6.69336 2.58952 6.77474 2.76855 6.83984C2.95085 6.90495 3.12174 6.96191 3.28125 7.01074C3.54492 7.09212 3.80859 7.19141 4.07227 7.30859C4.33594 7.42253 4.57682 7.56901 4.79492 7.74805C5.00977 7.91406 5.18229 8.11751 5.3125 8.3584C5.44596 8.59928 5.5127 8.8776 5.5127 9.19336C5.5127 9.51237 5.44108 9.79069 5.29785 10.0283C5.15788 10.266 4.97559 10.4629 4.75098 10.6191C4.52637 10.7786 4.27246 10.8991 3.98926 10.9805C3.70605 11.0586 3.42285 11.0977 3.13965 11.0977C2.80111 11.0977 2.46745 11.0407 2.13867 10.9268C1.81315 10.8128 1.52995 10.6484 1.28906 10.4336C1.07422 10.248 0.90332 10.0316 0.776367 9.78418C0.652669 9.53353 0.585938 9.25521 0.576172 8.94922H1.49902C1.52832 9.17057 1.58854 9.36751 1.67969 9.54004C1.77083 9.70931 1.88802 9.85254 2.03125 9.96973C2.17448 10.0902 2.33887 10.1813 2.52441 10.2432C2.71322 10.3018 2.91829 10.3311 3.13965 10.3311C3.31543 10.3311 3.48796 10.3099 3.65723 10.2676C3.82975 10.222 3.98275 10.152 4.11621 10.0576C4.24967 9.96647 4.35872 9.85091 4.44336 9.71094C4.52799 9.56771 4.57031 9.39844 4.57031 9.20312ZM13.56 8.86133C13.5176 9.1901 13.433 9.49284 13.3061 9.76953C13.1791 10.043 13.0147 10.2773 12.8129 10.4727C12.6078 10.6712 12.3653 10.8258 12.0854 10.9365C11.8087 11.0439 11.4994 11.0977 11.1576 11.0977C10.8646 11.0977 10.5977 11.057 10.3568 10.9756C10.1192 10.891 9.90762 10.7754 9.72207 10.6289C9.53327 10.4824 9.37051 10.3099 9.23379 10.1113C9.10033 9.91276 8.98965 9.69629 8.90176 9.46191C8.81061 9.22754 8.74225 8.98177 8.69668 8.72461C8.65436 8.46745 8.63158 8.20703 8.62832 7.94336V6.95215C8.63158 6.68848 8.65436 6.42806 8.69668 6.1709C8.74225 5.91374 8.81061 5.66797 8.90176 5.43359C8.98965 5.19922 9.10033 4.98275 9.23379 4.78418C9.37051 4.58236 9.53327 4.4082 9.72207 4.26172C9.90762 4.11523 10.1192 4.0013 10.3568 3.91992C10.5945 3.83529 10.8614 3.79297 11.1576 3.79297C11.5124 3.79297 11.8298 3.84831 12.1098 3.95898C12.3897 4.06641 12.6306 4.2194 12.8324 4.41797C13.0342 4.61979 13.1954 4.86068 13.3158 5.14062C13.4395 5.42057 13.5209 5.72982 13.56 6.06836H12.6566C12.6273 5.85352 12.5769 5.65332 12.5053 5.46777C12.4337 5.28223 12.3376 5.11947 12.2172 4.97949C12.0967 4.83952 11.9486 4.73047 11.7729 4.65234C11.6003 4.57096 11.3952 4.53027 11.1576 4.53027C10.9428 4.53027 10.7523 4.56608 10.5863 4.6377C10.4236 4.70605 10.2836 4.80046 10.1664 4.9209C10.046 5.04134 9.94505 5.18132 9.86367 5.34082C9.78555 5.50033 9.72207 5.6696 9.67324 5.84863C9.62441 6.02767 9.58861 6.21159 9.56582 6.40039C9.54629 6.58594 9.53652 6.7666 9.53652 6.94238V7.94336C9.53652 8.11914 9.54629 8.30143 9.56582 8.49023C9.58861 8.67578 9.62441 8.85807 9.67324 9.03711C9.72207 9.2194 9.78555 9.3903 9.86367 9.5498C9.9418 9.70931 10.0411 9.84928 10.1615 9.96973C10.282 10.0934 10.4236 10.1911 10.5863 10.2627C10.7491 10.3311 10.9395 10.3652 11.1576 10.3652C11.3952 10.3652 11.6003 10.3278 11.7729 10.2529C11.9486 10.1781 12.0967 10.0723 12.2172 9.93555C12.3376 9.80208 12.4337 9.64421 12.5053 9.46191C12.5769 9.27637 12.6273 9.07617 12.6566 8.86133H13.56ZM19.4148 8.09961H17.9939V11H17.0955V3.89062H19.1805C19.5125 3.89714 19.825 3.94434 20.118 4.03223C20.4109 4.12012 20.6681 4.25195 20.8895 4.42773C21.1076 4.60352 21.2785 4.82487 21.4021 5.0918C21.5291 5.35547 21.5926 5.66634 21.5926 6.02441C21.5926 6.25553 21.5584 6.46712 21.49 6.65918C21.4249 6.85124 21.3338 7.02539 21.2166 7.18164C21.0994 7.33789 20.9594 7.47624 20.7967 7.59668C20.6339 7.71712 20.4549 7.81966 20.2596 7.9043L21.7684 10.9414L21.7635 11H20.8113L19.4148 8.09961ZM17.9939 7.35742H19.2049C19.4067 7.35417 19.5971 7.32324 19.7762 7.26465C19.9552 7.2028 20.1131 7.11491 20.2498 7.00098C20.3833 6.88704 20.4891 6.7487 20.5672 6.58594C20.6453 6.41992 20.6844 6.22949 20.6844 6.01465C20.6844 5.78678 20.6469 5.58822 20.5721 5.41895C20.4972 5.24642 20.393 5.10156 20.2596 4.98438C20.1261 4.87044 19.9666 4.78418 19.7811 4.72559C19.5988 4.66699 19.3986 4.63607 19.1805 4.63281H17.9939V7.35742ZM29.7912 7.85547C29.788 8.10938 29.7652 8.36654 29.7229 8.62695C29.6838 8.88411 29.6219 9.13314 29.5373 9.37402C29.4527 9.61491 29.3436 9.83952 29.2102 10.0479C29.0799 10.2562 28.9237 10.4385 28.7414 10.5947C28.5591 10.751 28.3492 10.8747 28.1115 10.9658C27.8771 11.0537 27.6135 11.0977 27.3205 11.0977C27.0275 11.0977 26.7622 11.0537 26.5246 10.9658C26.2902 10.8747 26.0819 10.751 25.8996 10.5947C25.7173 10.4385 25.5594 10.2562 25.426 10.0479C25.2925 9.83626 25.1835 9.61003 25.0988 9.36914C25.0109 9.12826 24.9458 8.87923 24.9035 8.62207C24.8612 8.36491 24.8384 8.10938 24.8352 7.85547V7.04492C24.8384 6.79102 24.8596 6.53548 24.8986 6.27832C24.9409 6.0179 25.0061 5.76725 25.0939 5.52637C25.1786 5.28548 25.286 5.06087 25.4162 4.85254C25.5497 4.64095 25.7076 4.4554 25.8898 4.2959C26.0721 4.13965 26.2805 4.01758 26.5148 3.92969C26.7525 3.83854 27.0178 3.79297 27.3107 3.79297C27.6037 3.79297 27.869 3.83854 28.1066 3.92969C28.3443 4.01758 28.5542 4.13965 28.7365 4.2959C28.9188 4.45215 29.0751 4.63607 29.2053 4.84766C29.3387 5.05599 29.4494 5.2806 29.5373 5.52148C29.6219 5.76237 29.6838 6.01302 29.7229 6.27344C29.7652 6.53385 29.788 6.79102 29.7912 7.04492V7.85547ZM28.8977 7.03516C28.8944 6.86589 28.883 6.6901 28.8635 6.50781C28.8439 6.32227 28.8114 6.13835 28.7658 5.95605C28.717 5.77702 28.6535 5.60612 28.5754 5.44336C28.4973 5.27734 28.3996 5.13086 28.2824 5.00391C28.1652 4.88021 28.0269 4.78255 27.8674 4.71094C27.7079 4.63607 27.5223 4.59863 27.3107 4.59863C27.1024 4.59863 26.9185 4.63607 26.759 4.71094C26.5995 4.78581 26.4611 4.88509 26.3439 5.00879C26.2268 5.13574 26.1291 5.28223 26.051 5.44824C25.9729 5.611 25.911 5.7819 25.8654 5.96094C25.8166 6.14323 25.7808 6.32715 25.758 6.5127C25.7385 6.69499 25.7271 6.86914 25.7238 7.03516V7.85547C25.7271 8.02148 25.7385 8.19727 25.758 8.38281C25.7808 8.56836 25.8166 8.75065 25.8654 8.92969C25.9143 9.11198 25.9777 9.28613 26.0559 9.45215C26.134 9.61816 26.2316 9.76302 26.3488 9.88672C26.466 10.0137 26.6044 10.1146 26.7639 10.1895C26.9234 10.2643 27.1089 10.3018 27.3205 10.3018C27.5321 10.3018 27.7176 10.2643 27.8771 10.1895C28.0399 10.1146 28.1799 10.0137 28.2971 9.88672C28.411 9.76302 28.5054 9.61979 28.5803 9.45703C28.6584 9.29102 28.7219 9.11686 28.7707 8.93457C28.8163 8.75553 28.8472 8.57324 28.8635 8.3877C28.883 8.20215 28.8944 8.02474 28.8977 7.85547V7.03516ZM34.2936 10.2334H37.7701V11H33.3902V3.89062H34.2936V10.2334ZM42.3994 10.2334H45.876V11H41.4961V3.89062H42.3994V10.2334Z" fill="#9A9A9A"/>
<line x1="23.5" y1="51" x2="23.5" y2="20" stroke="#9A9A9A"/>
</svg>
