<svg width="808" height="460" viewBox="0 0 808 460" fill="none" xmlns="http://www.w3.org/2000/svg">
<path d="M5.71289 189V60.0938H45.2637C51.8555 60.0938 56.8359 61.6074 60.2051 64.6348C63.5742 67.6133 65.8203 71.8125 66.9434 77.2324C68.1152 82.6035 68.7012 88.9268 68.7012 96.2021C68.7012 103.233 67.7979 108.849 65.9912 113.048C64.2334 117.247 60.8887 120.152 55.957 121.764C60.0098 122.594 62.8418 124.62 64.4531 127.843C66.1133 131.017 66.9434 135.143 66.9434 140.221V189H41.5283V138.536C41.5283 134.776 40.7471 132.457 39.1846 131.578C37.6709 130.65 35.2051 130.187 31.7871 130.187V189H5.71289ZM31.9336 107.848H38.1592C41.7236 107.848 43.5059 103.966 43.5059 96.2021C43.5059 91.1729 43.1152 87.877 42.334 86.3145C41.5527 84.752 40.0879 83.9707 37.9395 83.9707H31.9336V107.848ZM102.507 190.172C91.7646 190.172 83.8545 187.169 78.7764 181.163C73.6982 175.108 71.1592 166.222 71.1592 154.503V60.0938H96.208V153.478C96.208 155.626 96.3301 157.701 96.5742 159.703C96.8184 161.656 97.3799 163.268 98.2588 164.537C99.1377 165.807 100.554 166.441 102.507 166.441C104.509 166.441 105.949 165.831 106.828 164.61C107.707 163.341 108.244 161.705 108.439 159.703C108.684 157.701 108.806 155.626 108.806 153.478V60.0938H133.854V154.503C133.854 166.222 131.315 175.108 126.237 181.163C121.159 187.169 113.249 190.172 102.507 190.172ZM139.242 189V60.0938H165.023V167.027H191.537V189H139.242ZM194.361 189V60.0938H245.924V84.9961H220.582V110.118H244.898V134.361H220.582V163.878H247.608V189H194.361ZM313.096 190.172C302.793 190.172 294.907 187.071 289.438 180.87C284.019 174.62 281.309 165.611 281.309 153.844V92.6133C281.309 81.5781 283.994 73.2041 289.365 67.4912C294.785 61.7783 302.695 58.9219 313.096 58.9219C323.496 58.9219 331.382 61.7783 336.753 67.4912C342.173 73.2041 344.883 81.5781 344.883 92.6133V153.844C344.883 165.611 342.148 174.62 336.68 180.87C331.26 187.071 323.398 190.172 313.096 190.172ZM313.315 166.441C317.222 166.441 319.175 162.657 319.175 155.089V92.1738C319.175 85.8262 317.271 82.6523 313.462 82.6523C309.165 82.6523 307.017 85.8994 307.017 92.3936V155.235C307.017 159.239 307.505 162.12 308.481 163.878C309.458 165.587 311.069 166.441 313.315 166.441ZM350.783 189V60.0938H402.346V85.2158H376.711V105.724H401.027V130.553H376.711V189H350.783ZM436.852 189V60.0938H462.633V167.027H489.146V189H436.852ZM488.455 189L500.906 60.0938H544.632L556.863 189H532.474L530.643 168.199H515.115L513.504 189H488.455ZM516.946 147.618H528.665L523.025 82.0664H521.854L516.946 147.618ZM568.33 189L554.487 60.0938H579.683L586.787 141.466L594.038 60.0938H618.062L624.946 141.466L631.831 60.0938H657.319L643.257 189H612.349L605.903 126.964L599.751 189H568.33Z" fill="#1C2541"/>
<path d="M16.6797 445.547C12.3275 445.547 8.81836 444.191 6.15234 441.479C3.50911 438.768 2.1875 434.974 2.1875 430.098V402.344C2.1875 396.51 3.33822 392.044 5.63965 388.945C7.96387 385.846 11.735 384.297 16.9531 384.297C19.8014 384.297 22.3307 384.821 24.541 385.869C26.7741 386.917 28.5286 388.49 29.8047 390.586C31.0807 392.66 31.7188 395.28 31.7188 398.447V408.838H19.7559V399.951C19.7559 398.151 19.528 396.943 19.0723 396.328C18.6165 395.69 17.9102 395.371 16.9531 395.371C15.8366 395.371 15.0846 395.781 14.6973 396.602C14.3099 397.399 14.1162 398.47 14.1162 399.814V429.927C14.1162 431.59 14.3555 432.764 14.834 433.447C15.3353 434.131 16.0417 434.473 16.9531 434.473C17.9785 434.473 18.6963 434.051 19.1064 433.208C19.5394 432.365 19.7559 431.271 19.7559 429.927V419.092H31.8555V430.474C31.8555 435.76 30.5225 439.6 27.8564 441.992C25.1904 444.362 21.4648 445.547 16.6797 445.547ZM48.1441 445.547C43.3362 445.547 39.6562 444.1 37.1041 441.206C34.5748 438.289 33.3102 434.085 33.3102 428.594V400.02C33.3102 394.87 34.5634 390.962 37.0699 388.296C39.5992 385.63 43.2906 384.297 48.1441 384.297C52.9977 384.297 56.6777 385.63 59.1842 388.296C61.7135 390.962 62.9781 394.87 62.9781 400.02V428.594C62.9781 434.085 61.7021 438.289 59.15 441.206C56.6207 444.1 52.9521 445.547 48.1441 445.547ZM48.2467 434.473C50.0696 434.473 50.9811 432.707 50.9811 429.175V399.814C50.9811 396.852 50.0924 395.371 48.315 395.371C46.3098 395.371 45.3072 396.886 45.3072 399.917V429.243C45.3072 431.112 45.5351 432.456 45.9908 433.276C46.4465 434.074 47.1985 434.473 48.2467 434.473ZM65.7316 445V384.844H78.1047L83.6418 413.657V384.844H95.2629V445H83.5051L77.4895 414.922V445H65.7316ZM112.782 445.547C107.29 445.547 103.326 444.18 100.887 441.445C98.4721 438.711 97.2645 434.359 97.2645 428.389V422.51H109.159V430.029C109.159 431.419 109.364 432.513 109.774 433.311C110.207 434.085 110.948 434.473 111.996 434.473C113.09 434.473 113.842 434.154 114.252 433.516C114.685 432.878 114.901 431.829 114.901 430.371C114.901 428.525 114.719 426.987 114.354 425.757C113.99 424.504 113.352 423.319 112.44 422.202C111.552 421.063 110.31 419.741 108.715 418.237L103.314 413.11C99.2811 409.305 97.2645 404.953 97.2645 400.054C97.2645 394.927 98.4493 391.019 100.819 388.33C103.212 385.641 106.664 384.297 111.176 384.297C116.69 384.297 120.598 385.767 122.899 388.706C125.223 391.646 126.386 396.112 126.386 402.104H114.149V397.969C114.149 397.148 113.91 396.51 113.431 396.055C112.976 395.599 112.349 395.371 111.552 395.371C110.595 395.371 109.888 395.645 109.432 396.191C108.999 396.715 108.783 397.399 108.783 398.242C108.783 399.085 109.011 399.997 109.467 400.977C109.922 401.956 110.822 403.084 112.167 404.36L119.105 411.025C120.495 412.347 121.771 413.748 122.933 415.229C124.096 416.688 125.03 418.397 125.736 420.356C126.443 422.293 126.796 424.663 126.796 427.466C126.796 433.117 125.748 437.549 123.651 440.762C121.578 443.952 117.955 445.547 112.782 445.547ZM133.89 445V396.396H126.746V384.844H153.065V396.396H145.921V445H133.89ZM153.768 445V384.844H165.389V445H153.768ZM173.235 445V396.396H166.091V384.844H192.41V396.396H185.266V445H173.235ZM207.571 445.547C202.557 445.547 198.866 444.146 196.496 441.343C194.127 438.517 192.942 434.37 192.942 428.901V384.844H204.631V428.423C204.631 429.425 204.688 430.394 204.802 431.328C204.916 432.24 205.178 432.992 205.588 433.584C205.998 434.176 206.659 434.473 207.571 434.473C208.505 434.473 209.177 434.188 209.587 433.618C209.997 433.026 210.248 432.262 210.339 431.328C210.453 430.394 210.51 429.425 210.51 428.423V384.844H222.199V428.901C222.199 434.37 221.015 438.517 218.645 441.343C216.275 444.146 212.584 445.547 207.571 445.547ZM229.875 445V396.396H222.731V384.844H249.05V396.396H241.906V445H229.875ZM249.752 445V384.844H261.373V445H249.752ZM278.414 445.547C273.606 445.547 269.926 444.1 267.374 441.206C264.845 438.289 263.58 434.085 263.58 428.594V400.02C263.58 394.87 264.833 390.962 267.34 388.296C269.869 385.63 273.561 384.297 278.414 384.297C283.268 384.297 286.948 385.63 289.454 388.296C291.983 390.962 293.248 394.87 293.248 400.02V428.594C293.248 434.085 291.972 438.289 289.42 441.206C286.891 444.1 283.222 445.547 278.414 445.547ZM278.517 434.473C280.34 434.473 281.251 432.707 281.251 429.175V399.814C281.251 396.852 280.362 395.371 278.585 395.371C276.58 395.371 275.577 396.886 275.577 399.917V429.243C275.577 431.112 275.805 432.456 276.261 433.276C276.716 434.074 277.468 434.473 278.517 434.473ZM296.002 445V384.844H308.375L313.912 413.657V384.844H325.533V445H313.775L307.759 414.922V445H296.002ZM327.124 445L332.935 384.844H353.34L359.048 445H347.666L346.812 435.293H339.566L338.814 445H327.124ZM340.42 425.688H345.889L343.257 395.098H342.71L340.42 425.688ZM360.639 445V384.844H372.671V434.746H385.044V445H360.639ZM399.027 445L404.838 384.844H425.243L430.951 445H419.569L418.715 435.293H411.469L410.717 445H399.027ZM412.323 425.688H417.792L415.16 395.098H414.613L412.323 425.688ZM446.556 445.547C442.204 445.547 438.695 444.191 436.029 441.479C433.386 438.768 432.064 434.974 432.064 430.098V402.344C432.064 396.51 433.215 392.044 435.516 388.945C437.84 385.846 441.612 384.297 446.83 384.297C449.678 384.297 452.207 384.821 454.418 385.869C456.651 386.917 458.405 388.49 459.681 390.586C460.957 392.66 461.595 395.28 461.595 398.447V408.838H449.632V399.951C449.632 398.151 449.405 396.943 448.949 396.328C448.493 395.69 447.787 395.371 446.83 395.371C445.713 395.371 444.961 395.781 444.574 396.602C444.186 397.399 443.993 398.47 443.993 399.814V429.927C443.993 431.59 444.232 432.764 444.711 433.447C445.212 434.131 445.918 434.473 446.83 434.473C447.855 434.473 448.573 434.051 448.983 433.208C449.416 432.365 449.632 431.271 449.632 429.927V419.092H461.732V430.474C461.732 435.76 460.399 439.6 457.733 441.992C455.067 444.362 451.341 445.547 446.556 445.547ZM477.679 445.547C473.327 445.547 469.818 444.191 467.152 441.479C464.508 438.768 463.187 434.974 463.187 430.098V402.344C463.187 396.51 464.337 392.044 466.639 388.945C468.963 385.846 472.734 384.297 477.952 384.297C480.801 384.297 483.33 384.821 485.54 385.869C487.773 386.917 489.528 388.49 490.804 390.586C492.08 392.66 492.718 395.28 492.718 398.447V408.838H480.755V399.951C480.755 398.151 480.527 396.943 480.071 396.328C479.616 395.69 478.909 395.371 477.952 395.371C476.836 395.371 476.084 395.781 475.696 396.602C475.309 397.399 475.115 398.47 475.115 399.814V429.927C475.115 431.59 475.355 432.764 475.833 433.447C476.334 434.131 477.041 434.473 477.952 434.473C478.978 434.473 479.695 434.051 480.106 433.208C480.539 432.365 480.755 431.271 480.755 429.927V419.092H492.855V430.474C492.855 435.76 491.522 439.6 488.856 441.992C486.19 444.362 482.464 445.547 477.679 445.547ZM509.143 445.547C504.335 445.547 500.655 444.1 498.103 441.206C495.574 438.289 494.309 434.085 494.309 428.594V400.02C494.309 394.87 495.563 390.962 498.069 388.296C500.598 385.63 504.29 384.297 509.143 384.297C513.997 384.297 517.677 385.63 520.183 388.296C522.713 390.962 523.977 394.87 523.977 400.02V428.594C523.977 434.085 522.701 438.289 520.149 441.206C517.62 444.1 513.951 445.547 509.143 445.547ZM509.246 434.473C511.069 434.473 511.98 432.707 511.98 429.175V399.814C511.98 396.852 511.092 395.371 509.314 395.371C507.309 395.371 506.306 396.886 506.306 399.917V429.243C506.306 431.112 506.534 432.456 506.99 433.276C507.446 434.074 508.198 434.473 509.246 434.473ZM540.642 445.547C535.629 445.547 531.938 444.146 529.568 441.343C527.198 438.517 526.013 434.37 526.013 428.901V384.844H537.703V428.423C537.703 429.425 537.759 430.394 537.873 431.328C537.987 432.24 538.249 432.992 538.66 433.584C539.07 434.176 539.731 434.473 540.642 434.473C541.576 434.473 542.248 434.188 542.659 433.618C543.069 433.026 543.319 432.262 543.411 431.328C543.524 430.394 543.581 429.425 543.581 428.423V384.844H555.271V428.901C555.271 434.37 554.086 438.517 551.716 441.343C549.346 444.146 545.655 445.547 540.642 445.547ZM557.785 445V384.844H570.158L575.695 413.657V384.844H587.316V445H575.559L569.543 414.922V445H557.785ZM595.71 445V396.396H588.566V384.844H614.884V396.396H607.741V445H595.71ZM613.605 445L619.415 384.844H639.82L645.529 445H634.147L633.292 435.293H626.046L625.294 445H613.605ZM626.901 425.688H632.369L629.737 395.098H629.191L626.901 425.688ZM647.12 445V384.844H663.424C667.799 384.844 670.977 385.915 672.96 388.057C674.965 390.176 675.968 393.685 675.968 398.584V401.216C675.968 404.041 675.455 406.331 674.43 408.086C673.427 409.84 671.889 410.991 669.815 411.538C672.527 412.222 674.338 413.828 675.25 416.357C676.184 418.864 676.651 421.929 676.651 425.552C676.651 429.448 676.287 432.855 675.557 435.771C674.828 438.688 673.507 440.955 671.593 442.573C669.679 444.191 666.956 445 663.424 445H647.12ZM658.878 407.505H661.339C662.455 407.505 663.173 407.072 663.492 406.206C663.811 405.34 663.971 404.303 663.971 403.096V397.046C663.971 395.109 663.116 394.141 661.407 394.141H658.878V407.505ZM660.074 434.404C663.196 434.404 664.757 432.923 664.757 429.961V422.441C664.757 420.732 664.495 419.388 663.971 418.408C663.469 417.406 662.512 416.904 661.099 416.904H658.878V434.336C659.379 434.382 659.778 434.404 660.074 434.404ZM677.969 445V384.844H689.59V445H677.969ZM692.275 445V384.844H704.307V434.746H716.68V445H692.275ZM717.451 445V384.844H729.072V445H717.451ZM736.918 445V396.396H729.775V384.844H756.093V396.396H748.949V445H736.918ZM764.623 445V425.21L755.018 384.844H766.947L770.297 405.215L773.646 384.844H785.541L775.971 425.21V445H764.623Z" fill="#1C2541"/>
<path d="M5.71289 352V223.094H39.7705C46.8994 223.094 52.5391 224.681 56.6895 227.854C60.8887 231.028 63.8916 235.545 65.6982 241.404C67.5049 247.264 68.4082 254.246 68.4082 262.352C68.4082 270.164 67.6514 276.976 66.1377 282.786C64.624 288.548 61.9141 293.016 58.0078 296.189C54.1504 299.363 48.6572 300.95 41.5283 300.95H31.0547V352H5.71289ZM31.0547 277.806H32.5195C37.3047 277.806 40.2344 276.463 41.3086 273.777C42.3828 271.092 42.9199 267.137 42.9199 261.912C42.9199 257.029 42.3828 253.27 41.3086 250.633C40.2832 247.947 37.8174 246.604 33.9111 246.604H31.0547V277.806ZM101.921 353.172C91.1787 353.172 83.2686 350.169 78.1904 344.163C73.1123 338.108 70.5732 329.222 70.5732 317.503V223.094H95.6221V316.478C95.6221 318.626 95.7441 320.701 95.9883 322.703C96.2324 324.656 96.7939 326.268 97.6729 327.537C98.5518 328.807 99.9678 329.441 101.921 329.441C103.923 329.441 105.363 328.831 106.242 327.61C107.121 326.341 107.658 324.705 107.854 322.703C108.098 320.701 108.22 318.626 108.22 316.478V223.094H133.269V317.503C133.269 329.222 130.729 338.108 125.651 344.163C120.573 350.169 112.663 353.172 101.921 353.172ZM138.656 352V223.094H173.593C182.968 223.094 189.779 225.389 194.027 229.979C198.324 234.52 200.473 242.039 200.473 252.537V258.177C200.473 264.231 199.374 269.139 197.177 272.898C195.028 276.658 191.732 279.124 187.289 280.296C193.1 281.761 196.981 285.203 198.935 290.623C200.937 295.994 201.938 302.562 201.938 310.325C201.938 318.675 201.156 325.975 199.594 332.225C198.031 338.475 195.199 343.333 191.098 346.8C186.996 350.267 181.161 352 173.593 352H138.656ZM163.852 271.653H169.125C171.518 271.653 173.056 270.726 173.739 268.87C174.423 267.015 174.765 264.793 174.765 262.205V249.241C174.765 245.091 172.934 243.016 169.271 243.016H163.852V271.653ZM166.415 329.295C173.104 329.295 176.449 326.121 176.449 319.773V303.66C176.449 299.998 175.888 297.117 174.765 295.018C173.69 292.869 171.64 291.795 168.612 291.795H163.852V329.148C164.926 329.246 165.78 329.295 166.415 329.295ZM205.934 352V223.094H231.715V330.027H258.229V352H205.934ZM259.881 352V223.094H284.783V352H259.881ZM320.566 353.172C311.24 353.172 303.721 350.267 298.008 344.456C292.344 338.646 289.512 330.516 289.512 320.066V260.594C289.512 248.094 291.978 238.523 296.909 231.883C301.89 225.242 309.971 221.922 321.152 221.922C327.256 221.922 332.676 223.045 337.412 225.291C342.197 227.537 345.957 230.906 348.691 235.398C351.426 239.842 352.793 245.457 352.793 252.244V274.51H327.158V255.467C327.158 251.609 326.67 249.021 325.693 247.703C324.717 246.336 323.203 245.652 321.152 245.652C318.76 245.652 317.148 246.531 316.318 248.289C315.488 249.998 315.073 252.293 315.073 255.174V319.7C315.073 323.265 315.586 325.779 316.611 327.244C317.686 328.709 319.199 329.441 321.152 329.441C323.35 329.441 324.888 328.538 325.767 326.731C326.694 324.925 327.158 322.581 327.158 319.7V296.482H353.086V320.872C353.086 332.2 350.229 340.428 344.517 345.555C338.804 350.633 330.82 353.172 320.566 353.172ZM398.944 352V247.85H383.637V223.094H440.033V247.85H424.726V352H398.944ZM442.711 352V223.094H482.262C488.854 223.094 493.834 224.607 497.203 227.635C500.572 230.613 502.818 234.812 503.941 240.232C505.113 245.604 505.699 251.927 505.699 259.202C505.699 266.233 504.796 271.849 502.989 276.048C501.231 280.247 497.887 283.152 492.955 284.764C497.008 285.594 499.84 287.62 501.451 290.843C503.111 294.017 503.941 298.143 503.941 303.221V352H478.526V301.536C478.526 297.776 477.745 295.457 476.183 294.578C474.669 293.65 472.203 293.187 468.785 293.187V352H442.711ZM468.932 270.848H475.157C478.722 270.848 480.504 266.966 480.504 259.202C480.504 254.173 480.113 250.877 479.332 249.314C478.551 247.752 477.086 246.971 474.938 246.971H468.932V270.848ZM539.505 353.172C528.763 353.172 520.853 350.169 515.774 344.163C510.696 338.108 508.157 329.222 508.157 317.503V223.094H533.206V316.478C533.206 318.626 533.328 320.701 533.572 322.703C533.816 324.656 534.378 326.268 535.257 327.537C536.136 328.807 537.552 329.441 539.505 329.441C541.507 329.441 542.947 328.831 543.826 327.61C544.705 326.341 545.242 324.705 545.438 322.703C545.682 320.701 545.804 318.626 545.804 316.478V223.094H570.853V317.503C570.853 329.222 568.313 338.108 563.235 344.163C558.157 350.169 550.247 353.172 539.505 353.172ZM606.855 353.172C595.088 353.172 586.592 350.242 581.367 344.383C576.191 338.523 573.604 329.197 573.604 316.404V303.807H599.092V319.92C599.092 322.898 599.531 325.242 600.41 326.951C601.338 328.611 602.925 329.441 605.171 329.441C607.515 329.441 609.126 328.758 610.005 327.391C610.933 326.023 611.396 323.777 611.396 320.652C611.396 316.697 611.006 313.401 610.225 310.765C609.443 308.079 608.076 305.54 606.123 303.147C604.219 300.706 601.558 297.874 598.14 294.651L586.567 283.665C577.925 275.511 573.604 266.185 573.604 255.687C573.604 244.7 576.143 236.326 581.221 230.564C586.348 224.803 593.745 221.922 603.413 221.922C615.229 221.922 623.604 225.071 628.535 231.37C633.516 237.669 636.006 247.239 636.006 260.081H609.785V251.219C609.785 249.461 609.272 248.094 608.247 247.117C607.271 246.141 605.928 245.652 604.219 245.652C602.168 245.652 600.654 246.238 599.678 247.41C598.75 248.533 598.286 249.998 598.286 251.805C598.286 253.611 598.774 255.564 599.751 257.664C600.728 259.764 602.656 262.181 605.537 264.915L620.405 279.197C623.384 282.029 626.118 285.032 628.608 288.206C631.099 291.331 633.101 294.993 634.614 299.192C636.128 303.343 636.885 308.421 636.885 314.427C636.885 326.536 634.639 336.033 630.146 342.918C625.703 349.754 617.939 353.172 606.855 353.172ZM652.087 352V247.85H636.779V223.094H693.176V247.85H677.868V352H652.087Z" fill="#018EDD"/>
<path d="M3.16406 28L0.395508 2.21875H5.43457L6.85547 18.4932L8.30566 2.21875H13.1104L14.4873 18.4932L15.8643 2.21875H20.9619L18.1494 28H11.9678L10.6787 15.5928L9.44824 28H3.16406ZM22.5 28V2.21875H32.8125V7.19922H27.7441V12.2236H32.6074V17.0723H27.7441V22.9756H33.1494V28H22.5ZM41.8945 28V2.21875H48.8818C50.7568 2.21875 52.1191 2.67773 52.9688 3.5957C53.8281 4.50391 54.2578 6.00781 54.2578 8.10742V9.23535C54.2578 10.4463 54.0381 11.4277 53.5986 12.1797C53.1689 12.9316 52.5098 13.4248 51.6211 13.6592C52.7832 13.9521 53.5596 14.6406 53.9502 15.7246C54.3506 16.7988 54.5508 18.1123 54.5508 19.665C54.5508 21.335 54.3945 22.7949 54.082 24.0449C53.7695 25.2949 53.2031 26.2666 52.3828 26.96C51.5625 27.6533 50.3955 28 48.8818 28H41.8945ZM46.9336 11.9307H47.9883C48.4668 11.9307 48.7744 11.7451 48.9111 11.374C49.0479 11.0029 49.1162 10.5586 49.1162 10.041V7.44824C49.1162 6.61816 48.75 6.20312 48.0176 6.20312H46.9336V11.9307ZM47.4463 23.459C48.7842 23.459 49.4531 22.8242 49.4531 21.5547V18.332C49.4531 17.5996 49.3408 17.0234 49.1162 16.6035C48.9014 16.1738 48.4912 15.959 47.8857 15.959H46.9336V23.4297C47.1484 23.4492 47.3193 23.459 47.4463 23.459ZM56.25 28V2.21875H66.5625V7.19922H61.4941V12.2236H66.3574V17.0723H61.4941V22.9756H66.8994V28H56.25ZM68.6133 28V2.21875H73.7695V23.6055H79.0723V28H68.6133ZM80.3027 28V2.21875H85.2832V28H80.3027ZM87.334 28V2.21875H97.6465V7.19922H92.5781V12.2236H97.4414V17.0723H92.5781V22.9756H97.9834V28H87.334ZM102.07 28L98.8916 2.2041H103.799L105.688 19.7529L107.373 2.2041H112.28L109.102 28H102.07ZM113.789 28V2.21875H124.102V7.19922H119.033V12.2236H123.896V17.0723H119.033V22.9756H124.438V28H113.789ZM132.949 28V2.21875H137.93V28H132.949ZM139.98 28V2.21875H145.283L147.656 14.5674V2.21875H152.637V28H147.598L145.02 15.1094V28H139.98Z" fill="#018EDD"/>
<rect x="791" y="428" width="17" height="17" fill="#018EDD"/>
</svg>
