<svg width="948" height="466" viewBox="0 0 948 466" fill="none" xmlns="http://www.w3.org/2000/svg">
<path d="M5.71289 194.796V65.8896H57.2754V90.792H31.9336V115.914H56.25V140.157H31.9336V169.674H58.96V194.796H5.71289ZM120.012 208.492L99.5039 195.016C97.1602 195.65 94.7432 195.968 92.2529 195.968C82.1943 195.968 74.5039 192.989 69.1816 187.032C63.9082 181.075 61.2715 172.384 61.2715 160.958V98.6289C61.2715 87.5449 63.9814 79.1221 69.4014 73.3604C74.8701 67.5986 82.7559 64.7178 93.0586 64.7178C103.361 64.7178 111.223 67.5986 116.643 73.3604C122.111 79.1221 124.846 87.5449 124.846 98.6289V160.958C124.846 171.603 122.453 179.977 117.668 186.08L128.728 193.111L120.012 208.492ZM93.0586 172.237C94.9141 172.237 96.2324 171.554 97.0137 170.187C97.8438 168.819 98.3564 167.135 98.5518 165.133C98.7959 163.131 98.918 161.202 98.918 159.347V99.0684C98.918 96.334 98.5273 93.8926 97.7461 91.7441C97.0137 89.5469 95.4023 88.4482 92.9121 88.4482C90.373 88.4482 88.7129 89.5225 87.9316 91.6709C87.1504 93.7705 86.7598 96.2119 86.7598 98.9951V159.859C86.7598 161.568 86.8574 163.399 87.0527 165.353C87.2969 167.257 87.8584 168.893 88.7373 170.26C89.6162 171.578 91.0566 172.237 93.0586 172.237ZM162.46 195.968C151.718 195.968 143.808 192.965 138.729 186.959C133.651 180.904 131.112 172.018 131.112 160.299V65.8896H156.161V159.273C156.161 161.422 156.283 163.497 156.527 165.499C156.771 167.452 157.333 169.063 158.212 170.333C159.091 171.603 160.507 172.237 162.46 172.237C164.462 172.237 165.902 171.627 166.781 170.406C167.66 169.137 168.197 167.501 168.393 165.499C168.637 163.497 168.759 161.422 168.759 159.273V65.8896H193.808V160.299C193.808 172.018 191.269 180.904 186.19 186.959C181.112 192.965 173.202 195.968 162.46 195.968ZM195.68 194.796L208.131 65.8896H251.856L264.088 194.796H239.698L237.867 173.995H222.34L220.729 194.796H195.68ZM224.171 153.414H235.89L230.25 87.8623H229.078L224.171 153.414ZM267.498 194.796V65.8896H293.279V172.823H319.793V194.796H267.498ZM381.838 195.968C376.027 195.968 370.729 194.845 365.944 192.599C361.159 190.353 357.351 187.032 354.519 182.638C351.735 178.194 350.344 172.75 350.344 166.305V134.005H375.832V164.767C375.832 167.013 376.271 168.819 377.15 170.187C378.078 171.554 379.543 172.237 381.545 172.237C385.402 172.237 387.331 169.869 387.331 165.133V65.8896H413.332V162.569C413.332 169.405 411.989 175.338 409.304 180.367C406.618 185.348 402.907 189.205 398.171 191.939C393.435 194.625 387.99 195.968 381.838 195.968ZM448.603 195.968C437.86 195.968 429.95 192.965 424.872 186.959C419.794 180.904 417.255 172.018 417.255 160.299V65.8896H442.304V159.273C442.304 161.422 442.426 163.497 442.67 165.499C442.914 167.452 443.476 169.063 444.354 170.333C445.233 171.603 446.649 172.237 448.603 172.237C450.604 172.237 452.045 171.627 452.924 170.406C453.803 169.137 454.34 167.501 454.535 165.499C454.779 163.497 454.901 161.422 454.901 159.273V65.8896H479.95V160.299C479.95 172.018 477.411 180.904 472.333 186.959C467.255 192.965 459.345 195.968 448.603 195.968ZM515.953 195.968C504.186 195.968 495.689 193.038 490.465 187.179C485.289 181.319 482.701 171.993 482.701 159.2V146.603H508.189V162.716C508.189 165.694 508.629 168.038 509.508 169.747C510.436 171.407 512.022 172.237 514.269 172.237C516.612 172.237 518.224 171.554 519.103 170.187C520.03 168.819 520.494 166.573 520.494 163.448C520.494 159.493 520.104 156.197 519.322 153.561C518.541 150.875 517.174 148.336 515.221 145.943C513.316 143.502 510.655 140.67 507.237 137.447L495.665 126.461C487.022 118.307 482.701 108.98 482.701 98.4824C482.701 87.4961 485.24 79.1221 490.318 73.3604C495.445 67.5986 502.843 64.7178 512.511 64.7178C524.327 64.7178 532.701 67.8672 537.633 74.166C542.613 80.4648 545.104 90.0352 545.104 102.877H518.883V94.0146C518.883 92.2568 518.37 90.8896 517.345 89.9131C516.368 88.9365 515.025 88.4482 513.316 88.4482C511.266 88.4482 509.752 89.0342 508.775 90.2061C507.848 91.3291 507.384 92.7939 507.384 94.6006C507.384 96.4072 507.872 98.3604 508.849 100.46C509.825 102.56 511.754 104.977 514.635 107.711L529.503 121.993C532.481 124.825 535.216 127.828 537.706 131.002C540.196 134.127 542.198 137.789 543.712 141.988C545.226 146.139 545.982 151.217 545.982 157.223C545.982 169.332 543.736 178.829 539.244 185.714C534.801 192.55 527.037 195.968 515.953 195.968ZM561.185 194.796V90.6455H545.877V65.8896H602.273V90.6455H586.966V194.796H561.185ZM603.779 194.796V65.8896H628.682V194.796H603.779ZM664.465 195.968C655.139 195.968 647.619 193.062 641.906 187.252C636.242 181.441 633.41 173.312 633.41 162.862V103.39C633.41 90.8896 635.876 81.3193 640.808 74.6787C645.788 68.0381 653.869 64.7178 665.051 64.7178C671.154 64.7178 676.574 65.8408 681.311 68.0869C686.096 70.333 689.855 73.7021 692.59 78.1943C695.324 82.6377 696.691 88.2529 696.691 95.04V117.306H671.057V98.2627C671.057 94.4053 670.568 91.8174 669.592 90.499C668.615 89.1318 667.102 88.4482 665.051 88.4482C662.658 88.4482 661.047 89.3271 660.217 91.085C659.387 92.7939 658.972 95.0889 658.972 97.9697V162.496C658.972 166.061 659.484 168.575 660.51 170.04C661.584 171.505 663.098 172.237 665.051 172.237C667.248 172.237 668.786 171.334 669.665 169.527C670.593 167.721 671.057 165.377 671.057 162.496V139.278H696.984V163.668C696.984 174.996 694.128 183.224 688.415 188.351C682.702 193.429 674.719 195.968 664.465 195.968ZM701.127 194.796V65.8896H752.689V90.792H727.348V115.914H751.664V140.157H727.348V169.674H754.374V194.796H701.127Z" fill="#1C2541"/>
<path d="M16.6797 451.343C12.3275 451.343 8.81836 449.987 6.15234 447.275C3.50911 444.564 2.1875 440.77 2.1875 435.894V408.14C2.1875 402.306 3.33822 397.84 5.63965 394.741C7.96387 391.642 11.735 390.093 16.9531 390.093C19.8014 390.093 22.3307 390.617 24.541 391.665C26.7741 392.713 28.5286 394.285 29.8047 396.382C31.0807 398.455 31.7188 401.076 31.7188 404.243V414.634H19.7559V405.747C19.7559 403.947 19.528 402.739 19.0723 402.124C18.6165 401.486 17.9102 401.167 16.9531 401.167C15.8366 401.167 15.0846 401.577 14.6973 402.397C14.3099 403.195 14.1162 404.266 14.1162 405.61V435.723C14.1162 437.386 14.3555 438.56 14.834 439.243C15.3353 439.927 16.0417 440.269 16.9531 440.269C17.9785 440.269 18.6963 439.847 19.1064 439.004C19.5394 438.161 19.7559 437.067 19.7559 435.723V424.888H31.8555V436.27C31.8555 441.556 30.5225 445.396 27.8564 447.788C25.1904 450.158 21.4648 451.343 16.6797 451.343ZM48.1441 451.343C43.3362 451.343 39.6562 449.896 37.1041 447.002C34.5748 444.085 33.3102 439.881 33.3102 434.39V405.815C33.3102 400.666 34.5634 396.758 37.0699 394.092C39.5992 391.426 43.2906 390.093 48.1441 390.093C52.9977 390.093 56.6777 391.426 59.1842 394.092C61.7135 396.758 62.9781 400.666 62.9781 405.815V434.39C62.9781 439.881 61.7021 444.085 59.15 447.002C56.6207 449.896 52.9521 451.343 48.1441 451.343ZM48.2467 440.269C50.0696 440.269 50.9811 438.503 50.9811 434.971V405.61C50.9811 402.648 50.0924 401.167 48.315 401.167C46.3098 401.167 45.3072 402.682 45.3072 405.713V435.039C45.3072 436.908 45.5351 438.252 45.9908 439.072C46.4465 439.87 47.1985 440.269 48.2467 440.269ZM65.7316 450.796V390.64H78.1047L83.6418 419.453V390.64H95.2629V450.796H83.5051L77.4895 420.718V450.796H65.7316ZM112.782 451.343C107.29 451.343 103.326 449.976 100.887 447.241C98.4721 444.507 97.2645 440.155 97.2645 434.185V428.306H109.159V435.825C109.159 437.215 109.364 438.309 109.774 439.106C110.207 439.881 110.948 440.269 111.996 440.269C113.09 440.269 113.842 439.95 114.252 439.312C114.685 438.674 114.901 437.625 114.901 436.167C114.901 434.321 114.719 432.783 114.354 431.553C113.99 430.299 113.352 429.115 112.44 427.998C111.552 426.859 110.31 425.537 108.715 424.033L103.314 418.906C99.2811 415.101 97.2645 410.749 97.2645 405.85C97.2645 400.723 98.4493 396.815 100.819 394.126C103.212 391.437 106.664 390.093 111.176 390.093C116.69 390.093 120.598 391.562 122.899 394.502C125.223 397.441 126.386 401.908 126.386 407.9H114.149V403.765C114.149 402.944 113.91 402.306 113.431 401.851C112.976 401.395 112.349 401.167 111.552 401.167C110.595 401.167 109.888 401.44 109.432 401.987C108.999 402.511 108.783 403.195 108.783 404.038C108.783 404.881 109.011 405.793 109.467 406.772C109.922 407.752 110.822 408.88 112.167 410.156L119.105 416.821C120.495 418.143 121.771 419.544 122.933 421.025C124.096 422.484 125.03 424.193 125.736 426.152C126.443 428.089 126.796 430.459 126.796 433.262C126.796 438.913 125.748 443.345 123.651 446.558C121.578 449.748 117.955 451.343 112.782 451.343ZM133.89 450.796V402.192H126.746V390.64H153.065V402.192H145.921V450.796H133.89ZM153.768 450.796V390.64H165.389V450.796H153.768ZM173.235 450.796V402.192H166.091V390.64H192.41V402.192H185.266V450.796H173.235ZM207.571 451.343C202.557 451.343 198.866 449.941 196.496 447.139C194.127 444.313 192.942 440.166 192.942 434.697V390.64H204.631V434.219C204.631 435.221 204.688 436.19 204.802 437.124C204.916 438.035 205.178 438.787 205.588 439.38C205.998 439.972 206.659 440.269 207.571 440.269C208.505 440.269 209.177 439.984 209.587 439.414C209.997 438.822 210.248 438.058 210.339 437.124C210.453 436.19 210.51 435.221 210.51 434.219V390.64H222.199V434.697C222.199 440.166 221.015 444.313 218.645 447.139C216.275 449.941 212.584 451.343 207.571 451.343ZM229.875 450.796V402.192H222.731V390.64H249.05V402.192H241.906V450.796H229.875ZM249.752 450.796V390.64H261.373V450.796H249.752ZM278.414 451.343C273.606 451.343 269.926 449.896 267.374 447.002C264.845 444.085 263.58 439.881 263.58 434.39V405.815C263.58 400.666 264.833 396.758 267.34 394.092C269.869 391.426 273.561 390.093 278.414 390.093C283.268 390.093 286.948 391.426 289.454 394.092C291.983 396.758 293.248 400.666 293.248 405.815V434.39C293.248 439.881 291.972 444.085 289.42 447.002C286.891 449.896 283.222 451.343 278.414 451.343ZM278.517 440.269C280.34 440.269 281.251 438.503 281.251 434.971V405.61C281.251 402.648 280.362 401.167 278.585 401.167C276.58 401.167 275.577 402.682 275.577 405.713V435.039C275.577 436.908 275.805 438.252 276.261 439.072C276.716 439.87 277.468 440.269 278.517 440.269ZM296.002 450.796V390.64H308.375L313.912 419.453V390.64H325.533V450.796H313.775L307.759 420.718V450.796H296.002ZM327.124 450.796L332.935 390.64H353.34L359.048 450.796H347.666L346.812 441.089H339.566L338.814 450.796H327.124ZM340.42 431.484H345.889L343.257 400.894H342.71L340.42 431.484ZM360.639 450.796V390.64H372.671V440.542H385.044V450.796H360.639ZM399.027 450.796L404.838 390.64H425.243L430.951 450.796H419.569L418.715 441.089H411.469L410.717 450.796H399.027ZM412.323 431.484H417.792L415.16 400.894H414.613L412.323 431.484ZM446.556 451.343C442.204 451.343 438.695 449.987 436.029 447.275C433.386 444.564 432.064 440.77 432.064 435.894V408.14C432.064 402.306 433.215 397.84 435.516 394.741C437.84 391.642 441.612 390.093 446.83 390.093C449.678 390.093 452.207 390.617 454.418 391.665C456.651 392.713 458.405 394.285 459.681 396.382C460.957 398.455 461.595 401.076 461.595 404.243V414.634H449.632V405.747C449.632 403.947 449.405 402.739 448.949 402.124C448.493 401.486 447.787 401.167 446.83 401.167C445.713 401.167 444.961 401.577 444.574 402.397C444.186 403.195 443.993 404.266 443.993 405.61V435.723C443.993 437.386 444.232 438.56 444.711 439.243C445.212 439.927 445.918 440.269 446.83 440.269C447.855 440.269 448.573 439.847 448.983 439.004C449.416 438.161 449.632 437.067 449.632 435.723V424.888H461.732V436.27C461.732 441.556 460.399 445.396 457.733 447.788C455.067 450.158 451.341 451.343 446.556 451.343ZM477.679 451.343C473.327 451.343 469.818 449.987 467.152 447.275C464.508 444.564 463.187 440.77 463.187 435.894V408.14C463.187 402.306 464.337 397.84 466.639 394.741C468.963 391.642 472.734 390.093 477.952 390.093C480.801 390.093 483.33 390.617 485.54 391.665C487.773 392.713 489.528 394.285 490.804 396.382C492.08 398.455 492.718 401.076 492.718 404.243V414.634H480.755V405.747C480.755 403.947 480.527 402.739 480.071 402.124C479.616 401.486 478.909 401.167 477.952 401.167C476.836 401.167 476.084 401.577 475.696 402.397C475.309 403.195 475.115 404.266 475.115 405.61V435.723C475.115 437.386 475.355 438.56 475.833 439.243C476.334 439.927 477.041 440.269 477.952 440.269C478.978 440.269 479.695 439.847 480.106 439.004C480.539 438.161 480.755 437.067 480.755 435.723V424.888H492.855V436.27C492.855 441.556 491.522 445.396 488.856 447.788C486.19 450.158 482.464 451.343 477.679 451.343ZM509.143 451.343C504.335 451.343 500.655 449.896 498.103 447.002C495.574 444.085 494.309 439.881 494.309 434.39V405.815C494.309 400.666 495.563 396.758 498.069 394.092C500.598 391.426 504.29 390.093 509.143 390.093C513.997 390.093 517.677 391.426 520.183 394.092C522.713 396.758 523.977 400.666 523.977 405.815V434.39C523.977 439.881 522.701 444.085 520.149 447.002C517.62 449.896 513.951 451.343 509.143 451.343ZM509.246 440.269C511.069 440.269 511.98 438.503 511.98 434.971V405.61C511.98 402.648 511.092 401.167 509.314 401.167C507.309 401.167 506.306 402.682 506.306 405.713V435.039C506.306 436.908 506.534 438.252 506.99 439.072C507.446 439.87 508.198 440.269 509.246 440.269ZM540.642 451.343C535.629 451.343 531.938 449.941 529.568 447.139C527.198 444.313 526.013 440.166 526.013 434.697V390.64H537.703V434.219C537.703 435.221 537.759 436.19 537.873 437.124C537.987 438.035 538.249 438.787 538.66 439.38C539.07 439.972 539.731 440.269 540.642 440.269C541.576 440.269 542.248 439.984 542.659 439.414C543.069 438.822 543.319 438.058 543.411 437.124C543.524 436.19 543.581 435.221 543.581 434.219V390.64H555.271V434.697C555.271 440.166 554.086 444.313 551.716 447.139C549.346 449.941 545.655 451.343 540.642 451.343ZM557.785 450.796V390.64H570.158L575.695 419.453V390.64H587.316V450.796H575.559L569.543 420.718V450.796H557.785ZM595.71 450.796V402.192H588.566V390.64H614.884V402.192H607.741V450.796H595.71ZM613.605 450.796L619.415 390.64H639.82L645.529 450.796H634.147L633.292 441.089H626.046L625.294 450.796H613.605ZM626.901 431.484H632.369L629.737 400.894H629.191L626.901 431.484ZM647.12 450.796V390.64H663.424C667.799 390.64 670.977 391.711 672.96 393.853C674.965 395.972 675.968 399.481 675.968 404.38V407.012C675.968 409.837 675.455 412.127 674.43 413.882C673.427 415.636 671.889 416.787 669.815 417.334C672.527 418.018 674.338 419.624 675.25 422.153C676.184 424.66 676.651 427.725 676.651 431.348C676.651 435.244 676.287 438.651 675.557 441.567C674.828 444.484 673.507 446.751 671.593 448.369C669.679 449.987 666.956 450.796 663.424 450.796H647.12ZM658.878 413.301H661.339C662.455 413.301 663.173 412.868 663.492 412.002C663.811 411.136 663.971 410.099 663.971 408.892V402.842C663.971 400.905 663.116 399.937 661.407 399.937H658.878V413.301ZM660.074 440.2C663.196 440.2 664.757 438.719 664.757 435.757V428.237C664.757 426.528 664.495 425.184 663.971 424.204C663.469 423.201 662.512 422.7 661.099 422.7H658.878V440.132C659.379 440.177 659.778 440.2 660.074 440.2ZM677.969 450.796V390.64H689.59V450.796H677.969ZM692.275 450.796V390.64H704.307V440.542H716.68V450.796H692.275ZM717.451 450.796V390.64H729.072V450.796H717.451ZM736.918 450.796V402.192H729.775V390.64H756.093V402.192H748.949V450.796H736.918ZM764.623 450.796V431.006L755.018 390.64H766.947L770.297 411.011L773.646 390.64H785.541L775.971 431.006V450.796H764.623Z" fill="#1C2541"/>
<path d="M5.71289 357.796V228.89H39.7705C46.8994 228.89 52.5391 230.477 56.6895 233.65C60.8887 236.824 63.8916 241.341 65.6982 247.2C67.5049 253.06 68.4082 260.042 68.4082 268.147C68.4082 275.96 67.6514 282.771 66.1377 288.582C64.624 294.344 61.9141 298.812 58.0078 301.985C54.1504 305.159 48.6572 306.746 41.5283 306.746H31.0547V357.796H5.71289ZM31.0547 283.602H32.5195C37.3047 283.602 40.2344 282.259 41.3086 279.573C42.3828 276.888 42.9199 272.933 42.9199 267.708C42.9199 262.825 42.3828 259.065 41.3086 256.429C40.2832 253.743 37.8174 252.4 33.9111 252.4H31.0547V283.602ZM101.921 358.968C91.1787 358.968 83.2686 355.965 78.1904 349.959C73.1123 343.904 70.5732 335.018 70.5732 323.299V228.89H95.6221V322.273C95.6221 324.422 95.7441 326.497 95.9883 328.499C96.2324 330.452 96.7939 332.063 97.6729 333.333C98.5518 334.603 99.9678 335.237 101.921 335.237C103.923 335.237 105.363 334.627 106.242 333.406C107.121 332.137 107.658 330.501 107.854 328.499C108.098 326.497 108.22 324.422 108.22 322.273V228.89H133.269V323.299C133.269 335.018 130.729 343.904 125.651 349.959C120.573 355.965 112.663 358.968 101.921 358.968ZM138.656 357.796V228.89H173.593C182.968 228.89 189.779 231.185 194.027 235.774C198.324 240.315 200.473 247.835 200.473 258.333V263.973C200.473 270.027 199.374 274.935 197.177 278.694C195.028 282.454 191.732 284.92 187.289 286.092C193.1 287.557 196.981 290.999 198.935 296.419C200.937 301.79 201.938 308.357 201.938 316.121C201.938 324.471 201.156 331.771 199.594 338.021C198.031 344.271 195.199 349.129 191.098 352.596C186.996 356.062 181.161 357.796 173.593 357.796H138.656ZM163.852 277.449H169.125C171.518 277.449 173.056 276.521 173.739 274.666C174.423 272.811 174.765 270.589 174.765 268.001V255.037C174.765 250.887 172.934 248.812 169.271 248.812H163.852V277.449ZM166.415 335.091C173.104 335.091 176.449 331.917 176.449 325.569V309.456C176.449 305.794 175.888 302.913 174.765 300.813C173.69 298.665 171.64 297.591 168.612 297.591H163.852V334.944C164.926 335.042 165.78 335.091 166.415 335.091ZM205.934 357.796V228.89H231.715V335.823H258.229V357.796H205.934ZM259.881 357.796V228.89H284.783V357.796H259.881ZM320.566 358.968C311.24 358.968 303.721 356.062 298.008 350.252C292.344 344.441 289.512 336.312 289.512 325.862V266.39C289.512 253.89 291.978 244.319 296.909 237.679C301.89 231.038 309.971 227.718 321.152 227.718C327.256 227.718 332.676 228.841 337.412 231.087C342.197 233.333 345.957 236.702 348.691 241.194C351.426 245.638 352.793 251.253 352.793 258.04V280.306H327.158V261.263C327.158 257.405 326.67 254.817 325.693 253.499C324.717 252.132 323.203 251.448 321.152 251.448C318.76 251.448 317.148 252.327 316.318 254.085C315.488 255.794 315.073 258.089 315.073 260.97V325.496C315.073 329.061 315.586 331.575 316.611 333.04C317.686 334.505 319.199 335.237 321.152 335.237C323.35 335.237 324.888 334.334 325.767 332.527C326.694 330.721 327.158 328.377 327.158 325.496V302.278H353.086V326.668C353.086 337.996 350.229 346.224 344.517 351.351C338.804 356.429 330.82 358.968 320.566 358.968ZM398.944 357.796V253.646H383.637V228.89H440.033V253.646H424.726V357.796H398.944ZM442.711 357.796V228.89H482.262C488.854 228.89 493.834 230.403 497.203 233.431C500.572 236.409 502.818 240.608 503.941 246.028C505.113 251.399 505.699 257.723 505.699 264.998C505.699 272.029 504.796 277.645 502.989 281.844C501.231 286.043 497.887 288.948 492.955 290.56C497.008 291.39 499.84 293.416 501.451 296.639C503.111 299.812 503.941 303.938 503.941 309.017V357.796H478.526V307.332C478.526 303.572 477.745 301.253 476.183 300.374C474.669 299.446 472.203 298.982 468.785 298.982V357.796H442.711ZM468.932 276.644H475.157C478.722 276.644 480.504 272.762 480.504 264.998C480.504 259.969 480.113 256.673 479.332 255.11C478.551 253.548 477.086 252.767 474.938 252.767H468.932V276.644ZM539.505 358.968C528.763 358.968 520.853 355.965 515.774 349.959C510.696 343.904 508.157 335.018 508.157 323.299V228.89H533.206V322.273C533.206 324.422 533.328 326.497 533.572 328.499C533.816 330.452 534.378 332.063 535.257 333.333C536.136 334.603 537.552 335.237 539.505 335.237C541.507 335.237 542.947 334.627 543.826 333.406C544.705 332.137 545.242 330.501 545.438 328.499C545.682 326.497 545.804 324.422 545.804 322.273V228.89H570.853V323.299C570.853 335.018 568.313 343.904 563.235 349.959C558.157 355.965 550.247 358.968 539.505 358.968ZM606.855 358.968C595.088 358.968 586.592 356.038 581.367 350.179C576.191 344.319 573.604 334.993 573.604 322.2V309.603H599.092V325.716C599.092 328.694 599.531 331.038 600.41 332.747C601.338 334.407 602.925 335.237 605.171 335.237C607.515 335.237 609.126 334.554 610.005 333.187C610.933 331.819 611.396 329.573 611.396 326.448C611.396 322.493 611.006 319.197 610.225 316.561C609.443 313.875 608.076 311.336 606.123 308.943C604.219 306.502 601.558 303.67 598.14 300.447L586.567 289.461C577.925 281.307 573.604 271.98 573.604 261.482C573.604 250.496 576.143 242.122 581.221 236.36C586.348 230.599 593.745 227.718 603.413 227.718C615.229 227.718 623.604 230.867 628.535 237.166C633.516 243.465 636.006 253.035 636.006 265.877H609.785V257.015C609.785 255.257 609.272 253.89 608.247 252.913C607.271 251.937 605.928 251.448 604.219 251.448C602.168 251.448 600.654 252.034 599.678 253.206C598.75 254.329 598.286 255.794 598.286 257.601C598.286 259.407 598.774 261.36 599.751 263.46C600.728 265.56 602.656 267.977 605.537 270.711L620.405 284.993C623.384 287.825 626.118 290.828 628.608 294.002C631.099 297.127 633.101 300.789 634.614 304.988C636.128 309.139 636.885 314.217 636.885 320.223C636.885 332.332 634.639 341.829 630.146 348.714C625.703 355.55 617.939 358.968 606.855 358.968ZM652.087 357.796V253.646H636.779V228.89H693.176V253.646H677.868V357.796H652.087Z" fill="#59BDFF"/>
<path d="M3.16406 25.7959L0.395508 0.0146484H5.43457L6.85547 16.2891L8.30566 0.0146484H13.1104L14.4873 16.2891L15.8643 0.0146484H20.9619L18.1494 25.7959H11.9678L10.6787 13.3887L9.44824 25.7959H3.16406ZM22.5 25.7959V0.0146484H32.8125V4.99512H27.7441V10.0195H32.6074V14.8682H27.7441V20.7715H33.1494V25.7959H22.5ZM41.8945 25.7959V0.0146484H48.8818C50.7568 0.0146484 52.1191 0.473633 52.9688 1.3916C53.8281 2.2998 54.2578 3.80371 54.2578 5.90332V7.03125C54.2578 8.24219 54.0381 9.22363 53.5986 9.97559C53.1689 10.7275 52.5098 11.2207 51.6211 11.4551C52.7832 11.748 53.5596 12.4365 53.9502 13.5205C54.3506 14.5947 54.5508 15.9082 54.5508 17.4609C54.5508 19.1309 54.3945 20.5908 54.082 21.8408C53.7695 23.0908 53.2031 24.0625 52.3828 24.7559C51.5625 25.4492 50.3955 25.7959 48.8818 25.7959H41.8945ZM46.9336 9.72656H47.9883C48.4668 9.72656 48.7744 9.54102 48.9111 9.16992C49.0479 8.79883 49.1162 8.35449 49.1162 7.83691V5.24414C49.1162 4.41406 48.75 3.99902 48.0176 3.99902H46.9336V9.72656ZM47.4463 21.2549C48.7842 21.2549 49.4531 20.6201 49.4531 19.3506V16.1279C49.4531 15.3955 49.3408 14.8193 49.1162 14.3994C48.9014 13.9697 48.4912 13.7549 47.8857 13.7549H46.9336V21.2256C47.1484 21.2451 47.3193 21.2549 47.4463 21.2549ZM56.25 25.7959V0.0146484H66.5625V4.99512H61.4941V10.0195H66.3574V14.8682H61.4941V20.7715H66.8994V25.7959H56.25ZM68.6133 25.7959V0.0146484H73.7695V21.4014H79.0723V25.7959H68.6133ZM80.3027 25.7959V0.0146484H85.2832V25.7959H80.3027ZM87.334 25.7959V0.0146484H97.6465V4.99512H92.5781V10.0195H97.4414V14.8682H92.5781V20.7715H97.9834V25.7959H87.334ZM102.07 25.7959L98.8916 0H103.799L105.688 17.5488L107.373 0H112.28L109.102 25.7959H102.07ZM113.789 25.7959V0.0146484H124.102V4.99512H119.033V10.0195H123.896V14.8682H119.033V20.7715H124.438V25.7959H113.789ZM132.949 25.7959V0.0146484H137.93V25.7959H132.949ZM139.98 25.7959V0.0146484H145.283L147.656 12.3633V0.0146484H152.637V25.7959H147.598L145.02 12.9053V25.7959H139.98Z" fill="#59BDFF"/>
<rect x="791" y="433.796" width="17" height="17" fill="#59BDFF"/>
</svg>
