<svg width="1660" height="911" viewBox="0 0 1660 911" fill="none" xmlns="http://www.w3.org/2000/svg">
<mask id="mask0_69_5448" style="mask-type:alpha" maskUnits="userSpaceOnUse" x="0" y="0" width="1660" height="911">
<rect width="1660" height="911" transform="matrix(-1 0 0 1 1660 0)" fill="#D9D9D9"/>
</mask>
<g mask="url(#mask0_69_5448)">
<rect width="1660" height="1038" transform="matrix(-1 0 0 1 1660 0)" fill="#018EDD"/>
<g opacity="0.2">
<line x1="2694.71" y1="0.353553" x2="1656.71" y2="1038.35" stroke="white"/>
<line x1="2681.04" y1="0.353553" x2="1643.04" y2="1038.35" stroke="white"/>
<line x1="2667.38" y1="0.353553" x2="1629.38" y2="1038.35" stroke="white"/>
<line x1="2653.72" y1="0.353553" x2="1615.72" y2="1038.35" stroke="white"/>
<line x1="2640.06" y1="0.353553" x2="1602.06" y2="1038.35" stroke="white"/>
<line x1="2626.4" y1="0.353553" x2="1588.4" y2="1038.35" stroke="white"/>
<line x1="2612.74" y1="0.353553" x2="1574.74" y2="1038.35" stroke="white"/>
<line x1="2599.08" y1="0.353553" x2="1561.08" y2="1038.35" stroke="white"/>
<line x1="2585.41" y1="0.353553" x2="1547.41" y2="1038.35" stroke="white"/>
<line x1="2571.75" y1="0.353553" x2="1533.75" y2="1038.35" stroke="white"/>
<line x1="2558.09" y1="0.353553" x2="1520.09" y2="1038.35" stroke="white"/>
<line x1="2544.43" y1="0.353553" x2="1506.43" y2="1038.35" stroke="white"/>
<line x1="2530.77" y1="0.353553" x2="1492.77" y2="1038.35" stroke="white"/>
<line x1="2517.11" y1="0.353553" x2="1479.11" y2="1038.35" stroke="white"/>
<line x1="2503.44" y1="0.353553" x2="1465.44" y2="1038.35" stroke="white"/>
<line x1="2489.78" y1="0.353553" x2="1451.78" y2="1038.35" stroke="white"/>
<line x1="2476.12" y1="0.353553" x2="1438.12" y2="1038.35" stroke="white"/>
<line x1="2462.46" y1="0.353553" x2="1424.46" y2="1038.35" stroke="white"/>
<line x1="2448.8" y1="0.353553" x2="1410.8" y2="1038.35" stroke="white"/>
<line x1="2435.13" y1="0.353553" x2="1397.13" y2="1038.35" stroke="white"/>
<line x1="2421.47" y1="0.353553" x2="1383.47" y2="1038.35" stroke="white"/>
<line x1="2407.81" y1="0.353553" x2="1369.81" y2="1038.35" stroke="white"/>
<line x1="2394.15" y1="0.353553" x2="1356.15" y2="1038.35" stroke="white"/>
<line x1="2380.49" y1="0.353553" x2="1342.49" y2="1038.35" stroke="white"/>
<line x1="2366.83" y1="0.353553" x2="1328.83" y2="1038.35" stroke="white"/>
<line x1="2353.17" y1="0.353553" x2="1315.17" y2="1038.35" stroke="white"/>
<line x1="2339.5" y1="0.353553" x2="1301.5" y2="1038.35" stroke="white"/>
<line x1="2325.84" y1="0.353553" x2="1287.84" y2="1038.35" stroke="white"/>
<line x1="2312.18" y1="0.353553" x2="1274.18" y2="1038.35" stroke="white"/>
<line x1="2298.52" y1="0.353553" x2="1260.52" y2="1038.35" stroke="white"/>
<line x1="2284.86" y1="0.353553" x2="1246.86" y2="1038.35" stroke="white"/>
<line x1="2271.2" y1="0.353553" x2="1233.2" y2="1038.35" stroke="white"/>
<line x1="2257.53" y1="0.353553" x2="1219.53" y2="1038.35" stroke="white"/>
<line x1="2243.87" y1="0.353553" x2="1205.87" y2="1038.35" stroke="white"/>
<line x1="2230.21" y1="0.353553" x2="1192.21" y2="1038.35" stroke="white"/>
<line x1="2216.55" y1="0.353553" x2="1178.55" y2="1038.35" stroke="white"/>
<line x1="2202.89" y1="0.353553" x2="1164.89" y2="1038.35" stroke="white"/>
<line x1="2189.22" y1="0.353553" x2="1151.22" y2="1038.35" stroke="white"/>
<line x1="2175.56" y1="0.353553" x2="1137.56" y2="1038.35" stroke="white"/>
<line x1="2161.9" y1="0.353553" x2="1123.9" y2="1038.35" stroke="white"/>
<line x1="2148.24" y1="0.353553" x2="1110.24" y2="1038.35" stroke="white"/>
<line x1="2134.58" y1="0.353553" x2="1096.58" y2="1038.35" stroke="white"/>
<line x1="2120.92" y1="0.353553" x2="1082.92" y2="1038.35" stroke="white"/>
<line x1="2107.25" y1="0.353553" x2="1069.25" y2="1038.35" stroke="white"/>
<line x1="2093.59" y1="0.353553" x2="1055.59" y2="1038.35" stroke="white"/>
<line x1="2079.93" y1="0.353553" x2="1041.93" y2="1038.35" stroke="white"/>
<line x1="2066.27" y1="0.353553" x2="1028.27" y2="1038.35" stroke="white"/>
<line x1="2052.61" y1="0.353553" x2="1014.61" y2="1038.35" stroke="white"/>
<line x1="2038.95" y1="0.353553" x2="1000.95" y2="1038.35" stroke="white"/>
<line x1="2025.28" y1="0.353553" x2="987.284" y2="1038.35" stroke="white"/>
<line x1="2011.62" y1="0.353553" x2="973.623" y2="1038.35" stroke="white"/>
<line x1="1997.96" y1="0.353553" x2="959.961" y2="1038.35" stroke="white"/>
<line x1="1984.3" y1="0.353553" x2="946.3" y2="1038.35" stroke="white"/>
<line x1="1970.64" y1="0.353553" x2="932.638" y2="1038.35" stroke="white"/>
<line x1="1956.98" y1="0.353553" x2="918.977" y2="1038.35" stroke="white"/>
<line x1="1943.31" y1="0.353553" x2="905.314" y2="1038.35" stroke="white"/>
<line x1="1929.65" y1="0.353553" x2="891.652" y2="1038.35" stroke="white"/>
<line x1="1915.99" y1="0.353553" x2="877.991" y2="1038.35" stroke="white"/>
<line x1="1902.33" y1="0.353553" x2="864.329" y2="1038.35" stroke="white"/>
<line x1="1888.67" y1="0.353553" x2="850.668" y2="1038.35" stroke="white"/>
<line x1="1875.01" y1="0.353553" x2="837.006" y2="1038.35" stroke="white"/>
<line x1="1861.34" y1="0.353553" x2="823.345" y2="1038.35" stroke="white"/>
<line x1="1847.68" y1="0.353553" x2="809.683" y2="1038.35" stroke="white"/>
<line x1="1834.02" y1="0.353553" x2="796.021" y2="1038.35" stroke="white"/>
<line x1="1820.36" y1="0.353553" x2="782.359" y2="1038.35" stroke="white"/>
<line x1="1806.7" y1="0.353553" x2="768.697" y2="1038.35" stroke="white"/>
<line x1="1793.04" y1="0.353553" x2="755.036" y2="1038.35" stroke="white"/>
<line x1="1779.37" y1="0.353553" x2="741.374" y2="1038.35" stroke="white"/>
<line x1="1765.71" y1="0.353553" x2="727.713" y2="1038.35" stroke="white"/>
<line x1="1752.05" y1="0.353553" x2="714.051" y2="1038.35" stroke="white"/>
<line x1="1738.39" y1="0.353553" x2="700.389" y2="1038.35" stroke="white"/>
<line x1="1724.73" y1="0.353553" x2="686.728" y2="1038.35" stroke="white"/>
<line x1="1711.07" y1="0.353553" x2="673.066" y2="1038.35" stroke="white"/>
<line x1="1697.4" y1="0.353553" x2="659.404" y2="1038.35" stroke="white"/>
<line x1="1683.74" y1="0.353553" x2="645.742" y2="1038.35" stroke="white"/>
<line x1="1670.08" y1="0.353553" x2="632.081" y2="1038.35" stroke="white"/>
<line x1="1656.42" y1="0.353553" x2="618.419" y2="1038.35" stroke="white"/>
<line x1="1642.76" y1="0.353553" x2="604.758" y2="1038.35" stroke="white"/>
<line x1="1629.1" y1="0.353553" x2="591.096" y2="1038.35" stroke="white"/>
<line x1="1615.43" y1="0.353553" x2="577.434" y2="1038.35" stroke="white"/>
<line x1="1601.77" y1="0.353553" x2="563.772" y2="1038.35" stroke="white"/>
<line x1="1588.11" y1="0.353553" x2="550.111" y2="1038.35" stroke="white"/>
<line x1="1574.45" y1="0.353553" x2="536.449" y2="1038.35" stroke="white"/>
<line x1="1560.79" y1="0.353553" x2="522.787" y2="1038.35" stroke="white"/>
<line x1="1547.13" y1="0.353553" x2="509.126" y2="1038.35" stroke="white"/>
<line x1="1533.46" y1="0.353553" x2="495.464" y2="1038.35" stroke="white"/>
<line x1="1519.8" y1="0.353553" x2="481.803" y2="1038.35" stroke="white"/>
<line x1="1506.14" y1="0.353553" x2="468.141" y2="1038.35" stroke="white"/>
<line x1="1492.48" y1="0.353553" x2="454.479" y2="1038.35" stroke="white"/>
<line x1="1478.82" y1="0.353553" x2="440.817" y2="1038.35" stroke="white"/>
<line x1="1465.16" y1="0.353553" x2="427.156" y2="1038.35" stroke="white"/>
<line x1="1451.49" y1="0.353553" x2="413.494" y2="1038.35" stroke="white"/>
<line x1="1437.83" y1="0.353553" x2="399.832" y2="1038.35" stroke="white"/>
<line x1="1424.17" y1="0.353553" x2="386.171" y2="1038.35" stroke="white"/>
<line x1="1410.51" y1="0.353553" x2="372.509" y2="1038.35" stroke="white"/>
<line x1="1396.85" y1="0.353553" x2="358.848" y2="1038.35" stroke="white"/>
<line x1="1383.19" y1="0.353553" x2="345.186" y2="1038.35" stroke="white"/>
<line x1="1369.52" y1="0.353553" x2="331.523" y2="1038.35" stroke="white"/>
<line x1="1355.86" y1="0.353553" x2="317.862" y2="1038.35" stroke="white"/>
<line x1="1342.2" y1="0.353553" x2="304.2" y2="1038.35" stroke="white"/>
<line x1="1328.54" y1="0.353553" x2="290.539" y2="1038.35" stroke="white"/>
<line x1="1314.88" y1="0.353553" x2="276.877" y2="1038.35" stroke="white"/>
<line x1="1301.22" y1="0.353553" x2="263.216" y2="1038.35" stroke="white"/>
<line x1="1287.55" y1="0.353553" x2="249.554" y2="1038.35" stroke="white"/>
<line x1="1273.89" y1="0.353553" x2="235.893" y2="1038.35" stroke="white"/>
<line x1="1260.23" y1="0.353553" x2="222.23" y2="1038.35" stroke="white"/>
<line x1="1246.57" y1="0.353553" x2="208.568" y2="1038.35" stroke="white"/>
<line x1="1232.91" y1="0.353553" x2="194.907" y2="1038.35" stroke="white"/>
<line x1="1219.25" y1="0.353553" x2="181.245" y2="1038.35" stroke="white"/>
<line x1="1205.58" y1="0.353553" x2="167.584" y2="1038.35" stroke="white"/>
<line x1="1191.92" y1="0.353553" x2="153.922" y2="1038.35" stroke="white"/>
<line x1="1178.26" y1="0.353553" x2="140.261" y2="1038.35" stroke="white"/>
<line x1="1164.6" y1="0.353553" x2="126.599" y2="1038.35" stroke="white"/>
<line x1="1150.94" y1="0.353553" x2="112.938" y2="1038.35" stroke="white"/>
<line x1="1137.28" y1="0.353553" x2="99.2754" y2="1038.35" stroke="white"/>
<line x1="1123.61" y1="0.353553" x2="85.6133" y2="1038.35" stroke="white"/>
<line x1="1109.95" y1="0.353553" x2="71.9522" y2="1038.35" stroke="white"/>
<line x1="1096.29" y1="0.353553" x2="58.2901" y2="1038.35" stroke="white"/>
<line x1="1082.63" y1="0.353553" x2="44.6289" y2="1038.35" stroke="white"/>
<line x1="1068.97" y1="0.353553" x2="30.9668" y2="1038.35" stroke="white"/>
<line x1="1055.3" y1="0.353553" x2="17.3047" y2="1038.35" stroke="white"/>
<line x1="1041.64" y1="0.353553" x2="3.64357" y2="1038.35" stroke="white"/>
<line x1="1027.98" y1="0.353553" x2="-10.0176" y2="1038.35" stroke="white"/>
<line x1="1014.32" y1="0.353553" x2="-23.6797" y2="1038.35" stroke="white"/>
<line x1="1000.66" y1="0.353553" x2="-37.3418" y2="1038.35" stroke="white"/>
<line x1="986.997" y1="0.353553" x2="-51.0029" y2="1038.35" stroke="white"/>
<line x1="973.335" y1="0.353553" x2="-64.665" y2="1038.35" stroke="white"/>
<line x1="959.674" y1="0.353553" x2="-78.3262" y2="1038.35" stroke="white"/>
<line x1="946.012" y1="0.353553" x2="-91.9883" y2="1038.35" stroke="white"/>
<line x1="932.351" y1="0.353553" x2="-105.649" y2="1038.35" stroke="white"/>
<line x1="918.689" y1="0.353553" x2="-119.312" y2="1038.35" stroke="white"/>
<line x1="905.027" y1="0.353553" x2="-132.973" y2="1038.35" stroke="white"/>
<line x1="891.365" y1="0.353553" x2="-146.635" y2="1038.35" stroke="white"/>
<line x1="877.703" y1="0.353553" x2="-160.297" y2="1038.35" stroke="white"/>
<line x1="864.042" y1="0.353553" x2="-173.958" y2="1038.35" stroke="white"/>
<line x1="850.38" y1="0.353553" x2="-187.62" y2="1038.35" stroke="white"/>
<line x1="836.719" y1="0.353553" x2="-201.281" y2="1038.35" stroke="white"/>
<line x1="823.057" y1="0.353553" x2="-214.943" y2="1038.35" stroke="white"/>
<line x1="809.395" y1="0.353553" x2="-228.605" y2="1038.35" stroke="white"/>
<line x1="795.733" y1="0.353553" x2="-242.267" y2="1038.35" stroke="white"/>
<line x1="782.071" y1="0.353553" x2="-255.929" y2="1038.35" stroke="white"/>
<line x1="768.41" y1="0.353553" x2="-269.59" y2="1038.35" stroke="white"/>
<line x1="754.748" y1="0.353553" x2="-283.252" y2="1038.35" stroke="white"/>
<line x1="741.087" y1="0.353553" x2="-296.913" y2="1038.35" stroke="white"/>
<line x1="727.425" y1="0.353553" x2="-310.575" y2="1038.35" stroke="white"/>
<line x1="713.764" y1="0.353553" x2="-324.236" y2="1038.35" stroke="white"/>
<line x1="700.102" y1="0.353553" x2="-337.898" y2="1038.35" stroke="white"/>
<line x1="686.439" y1="0.353553" x2="-351.561" y2="1038.35" stroke="white"/>
<line x1="672.778" y1="0.353553" x2="-365.222" y2="1038.35" stroke="white"/>
<line x1="659.116" y1="0.353553" x2="-378.884" y2="1038.35" stroke="white"/>
<line x1="645.455" y1="0.353553" x2="-392.545" y2="1038.35" stroke="white"/>
<line x1="631.793" y1="0.353553" x2="-406.207" y2="1038.35" stroke="white"/>
<line x1="618.132" y1="0.353553" x2="-419.868" y2="1038.35" stroke="white"/>
<line x1="604.47" y1="0.353553" x2="-433.53" y2="1038.35" stroke="white"/>
<line x1="590.809" y1="0.353553" x2="-447.191" y2="1038.35" stroke="white"/>
<line x1="577.147" y1="0.353553" x2="-460.854" y2="1038.35" stroke="white"/>
<line x1="563.484" y1="0.353553" x2="-474.516" y2="1038.35" stroke="white"/>
<line x1="549.823" y1="0.353553" x2="-488.177" y2="1038.35" stroke="white"/>
<line x1="536.161" y1="0.353553" x2="-501.839" y2="1038.35" stroke="white"/>
<line x1="522.5" y1="0.353553" x2="-515.5" y2="1038.35" stroke="white"/>
<line x1="508.838" y1="0.353553" x2="-529.162" y2="1038.35" stroke="white"/>
<line x1="495.177" y1="0.353553" x2="-542.823" y2="1038.35" stroke="white"/>
<line x1="481.515" y1="0.353553" x2="-556.485" y2="1038.35" stroke="white"/>
<line x1="467.854" y1="0.353553" x2="-570.146" y2="1038.35" stroke="white"/>
<line x1="454.191" y1="0.353553" x2="-583.809" y2="1038.35" stroke="white"/>
<line x1="440.529" y1="0.353553" x2="-597.471" y2="1038.35" stroke="white"/>
<line x1="426.868" y1="0.353553" x2="-611.132" y2="1038.35" stroke="white"/>
<line x1="413.206" y1="0.353553" x2="-624.794" y2="1038.35" stroke="white"/>
<line x1="399.545" y1="0.353553" x2="-638.455" y2="1038.35" stroke="white"/>
<line x1="385.883" y1="0.353553" x2="-652.117" y2="1038.35" stroke="white"/>
<line x1="372.222" y1="0.353553" x2="-665.778" y2="1038.35" stroke="white"/>
<line x1="358.56" y1="0.353553" x2="-679.44" y2="1038.35" stroke="white"/>
<line x1="344.898" y1="0.353553" x2="-693.102" y2="1038.35" stroke="white"/>
<line x1="331.236" y1="0.353553" x2="-706.764" y2="1038.35" stroke="white"/>
<line x1="317.574" y1="0.353553" x2="-720.426" y2="1038.35" stroke="white"/>
<line x1="303.913" y1="0.353553" x2="-734.087" y2="1038.35" stroke="white"/>
<line x1="290.251" y1="0.353553" x2="-747.749" y2="1038.35" stroke="white"/>
<line x1="276.59" y1="0.353553" x2="-761.41" y2="1038.35" stroke="white"/>
<line x1="262.928" y1="0.353553" x2="-775.072" y2="1038.35" stroke="white"/>
<line x1="249.267" y1="0.353553" x2="-788.733" y2="1038.35" stroke="white"/>
<line x1="235.605" y1="0.353553" x2="-802.396" y2="1038.35" stroke="white"/>
<line x1="221.943" y1="0.353553" x2="-816.057" y2="1038.35" stroke="white"/>
<line x1="208.281" y1="0.353553" x2="-829.719" y2="1038.35" stroke="white"/>
<line x1="194.619" y1="0.353553" x2="-843.381" y2="1038.35" stroke="white"/>
<line x1="180.958" y1="0.353553" x2="-857.042" y2="1038.35" stroke="white"/>
<line x1="167.296" y1="0.353553" x2="-870.704" y2="1038.35" stroke="white"/>
<line x1="153.635" y1="0.353553" x2="-884.365" y2="1038.35" stroke="white"/>
<line x1="139.973" y1="0.353553" x2="-898.027" y2="1038.35" stroke="white"/>
<line x1="126.312" y1="0.353553" x2="-911.688" y2="1038.35" stroke="white"/>
<line x1="112.649" y1="0.353553" x2="-925.351" y2="1038.35" stroke="white"/>
<line x1="98.9883" y1="0.353553" x2="-939.012" y2="1038.35" stroke="white"/>
<line x1="85.3262" y1="0.353553" x2="-952.674" y2="1038.35" stroke="white"/>
<line x1="71.6641" y1="0.353553" x2="-966.336" y2="1038.35" stroke="white"/>
<line x1="58.003" y1="0.353553" x2="-979.997" y2="1038.35" stroke="white"/>
<line x1="44.3409" y1="0.353553" x2="-993.659" y2="1038.35" stroke="white"/>
<line x1="30.6797" y1="0.353553" x2="-1007.32" y2="1038.35" stroke="white"/>
<line x1="17.0176" y1="0.353553" x2="-1020.98" y2="1038.35" stroke="white"/>
<line x1="3.35551" y1="0.353553" x2="-1034.64" y2="1038.35" stroke="white"/>
</g>

</g>
</svg>
