<svg width="525" height="76" viewBox="0 0 525 76" fill="none" xmlns="http://www.w3.org/2000/svg">
<path d="M373.954 75.2325V62.8896L367.964 37.7136H375.404L377.493 50.4189L379.582 37.7136H387L381.031 62.8896V75.2325H373.954Z" fill="#59BDFF"/>
<path d="M358.743 75.5733C356.028 75.5733 353.84 74.7277 352.177 73.0365C350.528 71.3454 349.704 68.9791 349.704 65.9378V48.628C349.704 44.9898 350.422 42.2043 351.857 40.2715C353.307 38.3387 355.659 37.3723 358.913 37.3723C360.69 37.3723 362.267 37.6992 363.646 38.3529C365.038 39.0067 366.133 39.9873 366.929 41.2947C367.724 42.588 368.122 44.2223 368.122 46.1978V52.6783H360.661V47.1357C360.661 46.013 360.519 45.2598 360.235 44.8761C359.951 44.4782 359.51 44.2792 358.913 44.2792C358.217 44.2792 357.748 44.535 357.506 45.0466C357.265 45.544 357.144 46.212 357.144 47.0505V65.8312C357.144 66.8687 357.293 67.6006 357.592 68.0269C357.904 68.4533 358.345 68.6665 358.913 68.6665C359.553 68.6665 360 68.4035 360.256 67.8777C360.526 67.3519 360.661 66.6697 360.661 65.8312V59.0736H368.208V66.1723C368.208 69.4694 367.376 71.8641 365.714 73.3563C364.051 74.8343 361.727 75.5733 358.743 75.5733Z" fill="#59BDFF"/>
<path d="M329.1 75.2325L332.724 37.7136H345.45L349.01 75.2325H341.911L341.378 69.1783H336.859L336.39 75.2325H329.1ZM337.392 63.1881H340.803L339.161 44.1089H338.82L337.392 63.1881Z" fill="#59BDFF"/>
<path d="M298.859 75.2325V37.7136H310.286L313.441 60.5873L316.574 37.7136H328.107V75.2325H321.243V48.2018L316.937 75.2325H310.2L305.638 48.2018V75.2325H298.859Z" fill="#59BDFF"/>
<path d="M289.936 75.2325V37.7136H297.183V75.2325H289.936Z" fill="#59BDFF"/>
<path d="M277.539 75.2325V44.9189H273.084V37.7136H289.498V44.9189H285.043V75.2325H277.539Z" fill="#59BDFF"/>
<path d="M265.399 75.2325V37.7136H272.647V75.2325H265.399Z" fill="#59BDFF"/>
<path d="M253.597 75.5733C248.239 75.5733 245.561 71.7362 245.561 64.0619V47.8819C245.561 40.8755 248.63 37.3723 254.77 37.3723C257.299 37.3723 259.239 37.8839 260.589 38.9072C261.939 39.9162 262.87 41.3942 263.382 43.3412C263.894 45.2882 264.149 47.6616 264.149 50.4613H256.816V47.1357C256.816 46.3257 256.702 45.6506 256.475 45.1106C256.262 44.5563 255.807 44.2792 255.111 44.2792C254.244 44.2792 253.668 44.5705 253.384 45.1532C253.114 45.7359 252.979 46.3754 252.979 47.0718V65.2556C252.979 66.2647 253.107 67.089 253.363 67.7285C253.633 68.3538 254.151 68.6665 254.919 68.6665C255.715 68.6665 256.241 68.3538 256.496 67.7285C256.766 67.089 256.901 66.2505 256.901 65.213V59.8623H254.898V53.3818H264.064V75.2323H261.058L259.779 72.0773C258.472 74.408 256.411 75.5733 253.597 75.5733Z" fill="#59BDFF"/>
<path d="M229.178 75.2325V37.7136H244.185V44.9616H236.809V52.2735H243.887V59.3296H236.809V67.9206H244.676V75.2325H229.178Z" fill="#59BDFF"/>
<path d="M213.135 75.2325V37.7136H220.639V68.8372H228.355V75.2325H213.135Z" fill="#59BDFF"/>
<path d="M189.363 75.6799C187.033 75.6799 185.199 74.7775 183.863 72.9726C182.542 71.1677 181.881 68.6807 181.881 65.5115C181.881 63.2518 182.08 61.3759 182.478 59.8836C182.89 58.3914 183.458 57.1479 184.183 56.1531C184.908 55.1582 185.739 54.2913 186.677 53.5523L186.507 53.126C185.91 51.648 185.384 50.241 184.929 48.9051C184.489 47.555 184.268 46.1694 184.268 44.7482C184.268 43.3128 184.574 42.0409 185.185 40.9323C185.796 39.8238 186.642 38.9569 187.722 38.3316C188.816 37.6921 190.067 37.3723 191.474 37.3723C192.866 37.3723 194.131 37.6779 195.268 38.289C196.419 38.8859 197.336 39.7883 198.018 40.9963C198.7 42.2043 199.041 43.732 199.041 45.5796C199.041 47.5834 198.665 49.2604 197.912 50.6105C197.173 51.9606 196.057 53.261 194.565 54.5116L196.611 59.6705C197.45 57.5529 198.658 55.9115 200.235 54.7461L203.198 59.372C201.55 60.6937 200.171 62.8468 199.063 65.8312L202.815 75.2323H195.567L194.735 73.2071C194.181 73.8892 193.435 74.4719 192.497 74.9551C191.573 75.4383 190.529 75.6799 189.363 75.6799ZM190.962 44.0873C190.962 44.4568 191.054 45.004 191.239 45.7288C191.424 46.4394 191.857 47.6758 192.54 49.438C192.81 49.1538 193.051 48.7061 193.264 48.095C193.478 47.4839 193.584 46.6454 193.584 45.5796C193.584 44.4853 193.449 43.7178 193.179 43.2773C192.923 42.8367 192.582 42.6164 192.156 42.6164C191.744 42.6164 191.438 42.7728 191.239 43.0854C191.054 43.3839 190.962 43.7178 190.962 44.0873ZM188.404 66.4281C188.404 68.9578 189.122 70.2226 190.557 70.2226C191.14 70.2226 191.609 70.0095 191.964 69.5831C192.319 69.1425 192.561 68.6878 192.689 68.2188L189.107 59.4999C188.638 60.4947 188.404 62.2357 188.404 64.7227V66.4281Z" fill="#59BDFF"/>
<path d="M161.135 75.2325V44.9189H156.68V37.7136H173.094V44.9189H168.639V75.2325H161.135Z" fill="#59BDFF"/>
<path d="M147.972 75.5733C144.547 75.5733 142.074 74.7206 140.554 73.0152C139.047 71.3098 138.294 68.5954 138.294 64.8719V61.2053H145.712V65.8952C145.712 66.7621 145.84 67.4442 146.096 67.9417C146.366 68.4249 146.828 68.6665 147.482 68.6665C148.164 68.6665 148.633 68.4675 148.889 68.0696C149.159 67.6716 149.294 67.0179 149.294 66.1083C149.294 64.9572 149.18 63.9979 148.953 63.2305C148.725 62.4488 148.327 61.7098 147.759 61.0135C147.205 60.3029 146.43 59.4786 145.435 58.5406L142.067 55.343C139.552 52.9696 138.294 50.2552 138.294 47.1997C138.294 44.0021 139.033 41.5648 140.511 39.8878C142.003 38.2108 144.156 37.3723 146.97 37.3723C150.409 37.3723 152.847 38.289 154.282 40.1223C155.732 41.9556 156.456 44.7411 156.456 48.4787H148.825V45.8993C148.825 45.3877 148.676 44.9898 148.377 44.7055C148.093 44.4213 147.702 44.2792 147.205 44.2792C146.608 44.2792 146.167 44.4497 145.883 44.7908C145.613 45.1177 145.478 45.544 145.478 46.0699C145.478 46.5957 145.62 47.1642 145.904 47.7753C146.189 48.3864 146.75 49.0899 147.588 49.8857L151.916 54.0426C152.783 54.8669 153.579 55.7409 154.303 56.6647C155.028 57.5742 155.611 58.6401 156.051 59.8623C156.492 61.0703 156.712 62.5483 156.712 64.2964C156.712 67.8209 156.059 70.585 154.751 72.5889C153.458 74.5785 151.198 75.5733 147.972 75.5733Z" fill="#59BDFF"/>
<path d="M128.368 75.5736C125.241 75.5736 122.939 74.6995 121.461 72.9515C119.983 71.1893 119.244 68.6027 119.244 65.1919V37.7136H126.535V64.8935C126.535 65.5188 126.57 66.1228 126.641 66.7055C126.712 67.2739 126.876 67.7429 127.132 68.1124C127.387 68.4819 127.8 68.6667 128.368 68.6667C128.951 68.6667 129.37 68.489 129.626 68.1337C129.882 67.7642 130.038 67.2882 130.095 66.7055C130.166 66.1228 130.201 65.5188 130.201 64.8935V37.7136H137.492V65.1919C137.492 68.6027 136.753 71.1893 135.275 72.9515C133.797 74.6995 131.495 75.5736 128.368 75.5736Z" fill="#59BDFF"/>
<path d="M100.196 75.2325V37.7136H111.708C113.626 37.7136 115.076 38.1542 116.056 39.0353C117.037 39.9022 117.691 41.1244 118.018 42.7019C118.359 44.2652 118.529 46.1056 118.529 48.2232C118.529 50.2696 118.266 51.904 117.741 53.1262C117.229 54.3484 116.255 55.194 114.82 55.663C116 55.9046 116.824 56.4944 117.293 57.4323C117.776 58.3561 118.018 59.557 118.018 61.035V75.2325H110.621V60.5447C110.621 59.4504 110.393 58.7753 109.938 58.5195C109.498 58.2495 108.78 58.1145 107.785 58.1145V75.2325H100.196ZM107.828 51.6127H109.64C110.677 51.6127 111.196 50.4828 111.196 48.2232C111.196 46.7594 111.082 45.8001 110.855 45.3453C110.628 44.8905 110.201 44.6631 109.576 44.6631H107.828V51.6127Z" fill="#59BDFF"/>
<path d="M87.4563 75.2325V44.9189H83.001V37.7136H99.4154V44.9189H94.9601V75.2325H87.4563Z" fill="#59BDFF"/>
<path d="M514.224 30.866V6.15214H510.592V0.277832H523.974V6.15214H520.342V30.866H514.224Z" fill="#1C2541"/>
<path d="M494.94 30.866V0.277832H501.232L504.047 14.9288V0.277832H509.956V30.866H503.978L500.919 15.5719V30.866H494.94Z" fill="#1C2541"/>
<path d="M481.341 30.866V0.277832H493.576V6.1869H487.563V12.1481H493.333V17.9008H487.563V24.9047H493.976V30.866H481.341Z" fill="#1C2541"/>
<path d="M455.855 30.866V0.277832H465.171L467.743 18.9262L470.298 0.277832H479.7V30.866H474.104V8.8286L470.593 30.866H465.101L461.382 8.8286V30.866H455.855Z" fill="#1C2541"/>
<path d="M442.253 30.866V0.277832H454.488V6.1869H448.475V12.1481H454.245V17.9008H448.475V24.9047H454.888V30.866H442.253Z" fill="#1C2541"/>
<path d="M433.559 31.1443C431.346 31.1443 429.562 30.4549 428.206 29.0761C426.862 27.6973 426.19 25.7682 426.19 23.2887V9.17644C426.19 6.21032 426.776 3.93938 427.946 2.36363C429.128 0.787876 431.045 0 433.698 0C435.147 0 436.433 0.266487 437.557 0.799462C438.692 1.33244 439.584 2.1319 440.233 3.19785C440.882 4.25221 441.206 5.58465 441.206 7.19516V12.4786H435.124V7.95986C435.124 7.04454 435.008 6.43046 434.776 6.11762C434.544 5.7932 434.185 5.63099 433.698 5.63099C433.131 5.63099 432.748 5.83955 432.551 6.25666C432.354 6.66219 432.256 7.20675 432.256 7.89034V23.2018C432.256 24.0476 432.378 24.6443 432.621 24.9919C432.876 25.3395 433.235 25.5133 433.698 25.5133C434.22 25.5133 434.585 25.2989 434.793 24.8702C435.013 24.4415 435.124 23.8854 435.124 23.2018V17.6924H441.276V23.4799C441.276 26.1679 440.598 28.1202 439.243 29.3368C437.887 30.5418 435.993 31.1443 433.559 31.1443Z" fill="#1C2541"/>
<path d="M410.537 30.866V0.277832H419.922C421.486 0.277832 422.668 0.637011 423.468 1.35537C424.267 2.06214 424.8 3.05857 425.066 4.34466C425.345 5.61917 425.484 7.11961 425.484 8.84598C425.484 10.5144 425.269 11.8469 424.841 12.8433C424.423 13.8397 423.63 14.5291 422.46 14.9115C423.421 15.1084 424.093 15.5893 424.476 16.354C424.87 17.1071 425.066 18.0861 425.066 19.2911V30.866H419.036V18.8914C419.036 17.9992 418.85 17.4489 418.48 17.2403C418.12 17.0202 417.535 16.9101 416.724 16.9101V30.866H410.537ZM416.759 11.6093H418.236C419.082 11.6093 419.505 10.6882 419.505 8.84598C419.505 7.65258 419.412 6.8705 419.227 6.49973C419.042 6.12897 418.694 5.94359 418.184 5.94359H416.759V11.6093Z" fill="#1C2541"/>
<path d="M401.592 31.1443C399.147 31.1443 397.276 30.4085 395.978 28.9371C394.692 27.454 394.049 25.3163 394.049 22.524V7.99462C394.049 5.37609 394.686 3.38902 395.961 2.03341C397.247 0.677805 399.124 0 401.592 0C404.059 0 405.931 0.677805 407.205 2.03341C408.491 3.38902 409.134 5.37609 409.134 7.99462V22.524C409.134 25.3163 408.485 27.454 407.188 28.9371C405.902 30.4085 404.036 31.1443 401.592 31.1443ZM401.644 25.5133C402.571 25.5133 403.034 24.6153 403.034 22.8194V7.89034C403.034 6.38411 402.582 5.63099 401.678 5.63099C400.659 5.63099 400.149 6.40149 400.149 7.94248V22.8542C400.149 23.8043 400.265 24.4879 400.497 24.905C400.728 25.3105 401.111 25.5133 401.644 25.5133Z" fill="#1C2541"/>
<path d="M381.149 30.866V0.277832H393.385V6.23904H387.302V11.1053H393.072V16.997H387.302V30.866H381.149Z" fill="#1C2541"/>
<path d="M364.489 30.866V0.277832H370.781L373.596 14.9288V0.277832H379.505V30.866H373.527L370.468 15.5719V30.866H364.489Z" fill="#1C2541"/>
<path d="M350.89 30.866V0.277832H363.125V6.1869H357.112V12.1481H362.882V17.9008H357.112V24.9047H363.525V30.866H350.89Z" fill="#1C2541"/>
<path d="M321.743 30.866L318.458 0.277832H324.437L326.122 19.5866L327.843 0.277832H333.544L335.177 19.5866L336.811 0.277832H342.859L339.522 30.866H332.188L330.658 16.1454L329.199 30.866H321.743Z" fill="#1C2541"/>
<path d="M302.787 30.866L305.742 0.277832H316.117L319.02 30.866H313.232L312.798 25.9301H309.113L308.731 30.866H302.787ZM309.548 21.0465H312.329L310.99 5.49172H310.712L309.548 21.0465Z" fill="#1C2541"/>
<path d="M290.546 30.866V0.277832H296.664V25.6521H302.955V30.866H290.546Z" fill="#1C2541"/>
<path d="M267.896 30.866L270.85 0.277832H281.226L284.128 30.866H278.341L277.906 25.9301H274.222L273.839 30.866H267.896ZM274.656 21.0465H277.437L276.099 5.49172H275.821L274.656 21.0465Z" fill="#1C2541"/>
<path d="M253.012 30.866V0.277832H259.303L262.119 14.9288V0.277832H268.028V30.866H262.049L258.99 15.5719V30.866H253.012Z" fill="#1C2541"/>
<path d="M245.74 30.866V0.277832H251.649V30.866H245.74Z" fill="#1C2541"/>
<path d="M232.938 30.866V0.277832H239.056V25.6521H245.348V30.866H232.938Z" fill="#1C2541"/>
<path d="M223.996 31.1443C221.551 31.1443 219.68 30.4085 218.382 28.9371C217.096 27.454 216.453 25.3163 216.453 22.524V7.99462C216.453 5.37609 217.09 3.38902 218.365 2.03341C219.651 0.677805 221.528 0 223.996 0C226.464 0 228.335 0.677805 229.609 2.03341C230.896 3.38902 231.539 5.37609 231.539 7.99462V22.524C231.539 25.3163 230.89 27.454 229.592 28.9371C228.306 30.4085 226.441 31.1443 223.996 31.1443ZM224.048 25.5133C224.975 25.5133 225.438 24.6153 225.438 22.8194V7.89034C225.438 6.38411 224.987 5.63099 224.083 5.63099C223.063 5.63099 222.553 6.40149 222.553 7.94248V22.8542C222.553 23.8043 222.669 24.4879 222.901 24.905C223.133 25.3105 223.515 25.5133 224.048 25.5133Z" fill="#1C2541"/>
<path d="M200.806 30.866V0.277832H210.191C211.755 0.277832 212.937 0.637011 213.736 1.35537C214.536 2.06214 215.069 3.05857 215.335 4.34466C215.613 5.61917 215.752 7.11961 215.752 8.84598C215.752 10.5144 215.538 11.8469 215.109 12.8433C214.692 13.8397 213.898 14.5291 212.728 14.9115C213.69 15.1084 214.362 15.5893 214.744 16.354C215.138 17.1071 215.335 18.0861 215.335 19.2911V30.866H209.304V18.8914C209.304 17.9992 209.119 17.4489 208.748 17.2403C208.389 17.0202 207.804 16.9101 206.993 16.9101V30.866H200.806ZM207.028 11.6093H208.505C209.351 11.6093 209.774 10.6882 209.774 8.84598C209.774 7.65258 209.681 6.8705 209.495 6.49973C209.31 6.12897 208.962 5.94359 208.453 5.94359H207.028V11.6093Z" fill="#1C2541"/>
<path d="M183.76 30.866L186.714 0.277832H197.09L199.992 30.866H194.205L193.77 25.9301H190.086L189.704 30.866H183.76ZM190.52 21.0465H193.301L191.963 5.49172H191.685L190.52 21.0465Z" fill="#1C2541"/>
<path d="M175.897 31.1443C173.684 31.1443 171.9 30.4549 170.544 29.0761C169.2 27.6973 168.528 25.7682 168.528 23.2887V9.17644C168.528 6.21032 169.113 3.93938 170.284 2.36363C171.465 0.787876 173.383 0 176.036 0C177.485 0 178.771 0.266487 179.895 0.799462C181.03 1.33244 181.922 2.1319 182.571 3.19785C183.22 4.25221 183.544 5.58465 183.544 7.19516V12.4786H177.461V7.95986C177.461 7.04454 177.346 6.43046 177.114 6.11762C176.882 5.7932 176.523 5.63099 176.036 5.63099C175.469 5.63099 175.086 5.83955 174.889 6.25666C174.692 6.66219 174.594 7.20675 174.594 7.89034V23.2018C174.594 24.0476 174.715 24.6443 174.959 24.9919C175.214 25.3395 175.573 25.5133 176.036 25.5133C176.558 25.5133 176.923 25.2989 177.131 24.8702C177.351 24.4415 177.461 23.8854 177.461 23.2018V17.6924H183.614V23.4799C183.614 26.1679 182.936 28.1202 181.58 29.3368C180.225 30.5418 178.33 31.1443 175.897 31.1443Z" fill="#1C2541"/>
<path d="M144.806 30.866V0.277832H150.889V11.2096H153.774V0.277832H159.856V30.866H153.774V16.997H150.889V30.866H144.806Z" fill="#1C2541"/>
<path d="M134.42 30.866V6.15214H130.788V0.277832H144.17V6.15214H140.538V30.866H134.42Z" fill="#1C2541"/>
<path d="M115.901 30.866V0.277832H125.286C126.851 0.277832 128.032 0.637011 128.832 1.35537C129.631 2.06214 130.164 3.05857 130.431 4.34466C130.709 5.61917 130.848 7.11961 130.848 8.84598C130.848 10.5144 130.633 11.8469 130.205 12.8433C129.788 13.8397 128.994 14.5291 127.824 14.9115C128.785 15.1084 129.457 15.5893 129.84 16.354C130.234 17.1071 130.431 18.0861 130.431 19.2911V30.866H124.4V18.8914C124.4 17.9992 124.215 17.4489 123.844 17.2403C123.485 17.0202 122.9 16.9101 122.089 16.9101V30.866H115.901ZM122.123 11.6093H123.601C124.446 11.6093 124.869 10.6882 124.869 8.84598C124.869 7.65258 124.777 6.8705 124.591 6.49973C124.406 6.12897 124.058 5.94359 123.548 5.94359H122.123V11.6093Z" fill="#1C2541"/>
<path d="M106.962 31.1443C104.517 31.1443 102.646 30.4085 101.348 28.9371C100.062 27.454 99.4189 25.3163 99.4189 22.524V7.99462C99.4189 5.37609 100.056 3.38902 101.331 2.03341C102.617 0.677805 104.494 0 106.962 0C109.43 0 111.301 0.677805 112.575 2.03341C113.861 3.38902 114.504 5.37609 114.504 7.99462V22.524C114.504 25.3163 113.856 27.454 112.558 28.9371C111.272 30.4085 109.406 31.1443 106.962 31.1443ZM107.014 25.5133C107.941 25.5133 108.404 24.6153 108.404 22.8194V7.89034C108.404 6.38411 107.952 5.63099 107.049 5.63099C106.029 5.63099 105.519 6.40149 105.519 7.94248V22.8542C105.519 23.8043 105.635 24.4879 105.867 24.905C106.099 25.3105 106.481 25.5133 107.014 25.5133Z" fill="#1C2541"/>
<path d="M83 30.866V0.277832H89.2914L92.1069 14.9288V0.277832H98.016V30.866H92.0374L88.9786 15.5719V30.866H83Z" fill="#1C2541"/>
<path d="M512.46 75.3401V44.9402H507.992V37.7144H524.454V44.9402H519.985V75.3401H512.46Z" fill="#59BDFF"/>
<path d="M498.53 75.6822C495.808 75.6822 493.613 74.8342 491.946 73.1382C490.292 71.4422 489.466 69.0692 489.466 66.0192V48.6601C489.466 45.0115 490.186 42.2181 491.625 40.2798C493.079 38.3415 495.438 37.3723 498.701 37.3723C500.483 37.3723 502.065 37.7001 503.447 38.3557C504.844 39.0113 505.941 39.9947 506.74 41.3059C507.538 42.6029 507.937 44.2419 507.937 46.2229V52.7219H500.454V47.1636C500.454 46.0376 500.312 45.2823 500.027 44.8975C499.742 44.4984 499.3 44.2989 498.701 44.2989C498.003 44.2989 497.533 44.5554 497.29 45.0685C497.048 45.5673 496.927 46.2372 496.927 47.0781V65.9123C496.927 66.9527 497.077 67.6867 497.376 68.1143C497.689 68.5419 498.131 68.7556 498.701 68.7556C499.343 68.7556 499.792 68.492 500.048 67.9647C500.319 67.4373 500.454 66.7532 500.454 65.9123V59.1354H508.022V66.2544C508.022 69.5609 507.188 71.9624 505.521 73.4589C503.853 74.9411 501.523 75.6822 498.53 75.6822Z" fill="#59BDFF"/>
<path d="M473.035 75.3401V37.7144H488.086V44.983H480.689V52.3157H487.786V59.3919H480.689V68.0074H488.577V75.3401H473.035Z" fill="#59BDFF"/>
<path d="M462.249 75.6822C460.553 75.6822 459.007 75.3544 457.61 74.6988C456.214 74.0432 455.102 73.0741 454.275 71.7914C453.463 70.4944 453.057 68.9053 453.057 67.024V57.5962H460.496V66.5751C460.496 67.2307 460.625 67.758 460.881 68.157C461.152 68.5561 461.579 68.7556 462.164 68.7556C463.29 68.7556 463.853 68.0644 463.853 66.6819V37.7144H471.442V65.9337C471.442 67.929 471.05 69.6607 470.266 71.1286C469.482 72.5824 468.399 73.7083 467.017 74.5064C465.634 75.2903 464.045 75.6822 462.249 75.6822Z" fill="#59BDFF"/>
<path d="M442.911 75.6822C439.904 75.6822 437.602 74.7772 436.006 72.9672C434.424 71.1429 433.633 68.5134 433.633 65.0786V47.2063C433.633 43.9853 434.417 41.5411 435.984 39.8736C437.566 38.2061 439.875 37.3723 442.911 37.3723C445.947 37.3723 448.248 38.2061 449.816 39.8736C451.398 41.5411 452.189 43.9853 452.189 47.2063V65.0786C452.189 68.5134 451.391 71.1429 449.795 72.9672C448.213 74.7772 445.918 75.6822 442.911 75.6822ZM442.975 68.7556C444.115 68.7556 444.685 67.6511 444.685 65.442V47.0781C444.685 45.2253 444.13 44.2989 443.018 44.2989C441.764 44.2989 441.137 45.2467 441.137 47.1422V65.4848C441.137 66.6535 441.279 67.4943 441.564 68.0074C441.849 68.5062 442.32 68.7556 442.975 68.7556Z" fill="#59BDFF"/>
<path d="M414.381 75.3401V37.7144H425.925C427.849 37.7144 429.303 38.1562 430.286 39.0398C431.27 39.9092 431.925 41.1349 432.253 42.7169C432.595 44.2846 432.766 46.1303 432.766 48.2539C432.766 50.3062 432.503 51.9452 431.975 53.1709C431.462 54.3965 430.486 55.2446 429.046 55.7149C430.229 55.9572 431.056 56.5486 431.526 57.4893C432.011 58.4157 432.253 59.62 432.253 61.1022V75.3401H424.835V60.6105C424.835 59.5131 424.607 58.8361 424.151 58.5796C423.709 58.3088 422.989 58.1734 421.992 58.1734V75.3401H414.381ZM422.034 51.653H423.851C424.892 51.653 425.412 50.52 425.412 48.2539C425.412 46.7859 425.298 45.8239 425.07 45.3678C424.842 44.9117 424.414 44.6837 423.787 44.6837H422.034V51.653Z" fill="#59BDFF"/>
<path d="M395 75.3404V37.7146H404.941C407.022 37.7146 408.668 38.1778 409.879 39.1042C411.105 40.0306 411.982 41.3489 412.509 43.0592C413.036 44.7694 413.3 46.8075 413.3 49.1734C413.3 51.4537 413.079 53.4419 412.637 55.1379C412.195 56.8197 411.404 58.1237 410.264 59.0501C409.138 59.9765 407.535 60.4397 405.454 60.4397H402.397V75.3404H395ZM402.397 53.6842H402.824C404.221 53.6842 405.076 53.2922 405.39 52.5084C405.703 51.7245 405.86 50.5701 405.86 49.0451C405.86 47.6199 405.703 46.5225 405.39 45.7528C405.091 44.969 404.371 44.577 403.231 44.577H402.397V53.6842Z" fill="#59BDFF"/>
<mask id="mask0_72_461" style="mask-type:alpha" maskUnits="userSpaceOnUse" x="0" y="0" width="75" height="76">
<rect x="0.5" y="0.872314" width="74" height="73.9997" fill="#D9D9D9" stroke="#59BDFF"/>
</mask>
<g mask="url(#mask0_72_461)">
<line y1="-0.5" x2="1038.76" y2="-0.5" transform="matrix(-0.709713 0.704491 -0.709713 -0.704491 101.666 -166.078)" stroke="#59BDFF"/>
<line y1="-0.5" x2="1038.76" y2="-0.5" transform="matrix(-0.709713 0.704491 -0.709713 -0.704491 96.666 -166.078)" stroke="#59BDFF"/>
<line y1="-0.5" x2="1038.76" y2="-0.5" transform="matrix(-0.709713 0.704491 -0.709713 -0.704491 91.665 -166.078)" stroke="#59BDFF"/>
<line y1="-0.5" x2="1038.76" y2="-0.5" transform="matrix(-0.709713 0.704491 -0.709713 -0.704491 86.6689 -166.078)" stroke="#59BDFF"/>
<line y1="-0.5" x2="1038.76" y2="-0.5" transform="matrix(-0.709713 0.704491 -0.709713 -0.704491 81.6689 -166.078)" stroke="#59BDFF"/>
<line y1="-0.5" x2="1038.76" y2="-0.5" transform="matrix(-0.709713 0.704491 -0.709713 -0.704491 76.668 -166.078)" stroke="#59BDFF"/>
<line y1="-0.5" x2="1038.76" y2="-0.5" transform="matrix(-0.709713 0.704491 -0.709713 -0.704491 71.666 -166.078)" stroke="#59BDFF"/>
<line y1="-0.5" x2="1038.76" y2="-0.5" transform="matrix(-0.709713 0.704491 -0.709713 -0.704491 66.668 -166.078)" stroke="#59BDFF"/>
<line y1="-0.5" x2="1038.76" y2="-0.5" transform="matrix(-0.709713 0.704491 -0.709713 -0.704491 61.667 -166.078)" stroke="#59BDFF"/>
<line y1="-0.5" x2="1038.76" y2="-0.5" transform="matrix(-0.709713 0.704491 -0.709713 -0.704491 56.666 -166.078)" stroke="#59BDFF"/>
<line y1="-0.5" x2="1038.76" y2="-0.5" transform="matrix(-0.709713 0.704491 -0.709713 -0.704491 51.667 -166.078)" stroke="#59BDFF"/>
<line y1="-0.5" x2="1038.76" y2="-0.5" transform="matrix(-0.709713 0.704491 -0.709713 -0.704491 46.666 -166.078)" stroke="#59BDFF"/>
<line y1="-0.5" x2="1038.76" y2="-0.5" transform="matrix(-0.709713 0.704491 -0.709713 -0.704491 41.666 -166.078)" stroke="#59BDFF"/>
<line y1="-0.5" x2="1038.76" y2="-0.5" transform="matrix(-0.709713 0.704491 -0.709713 -0.704491 36.667 -166.078)" stroke="#59BDFF"/>
<line y1="-0.5" x2="1038.76" y2="-0.5" transform="matrix(-0.709713 0.704491 -0.709713 -0.704491 31.666 -166.078)" stroke="#59BDFF"/>
<line y1="-0.5" x2="1038.76" y2="-0.5" transform="matrix(-0.709713 0.704491 -0.709713 -0.704491 26.667 -166.078)" stroke="#59BDFF"/>
<line y1="-0.5" x2="1038.76" y2="-0.5" transform="matrix(-0.709713 0.704491 -0.709713 -0.704491 21.667 -166.078)" stroke="#59BDFF"/>
<line y1="-0.5" x2="1038.76" y2="-0.5" transform="matrix(-0.709713 0.704491 -0.709713 -0.704491 16.668 -166.078)" stroke="#59BDFF"/>
<line y1="-0.5" x2="1038.76" y2="-0.5" transform="matrix(-0.709713 0.704491 -0.709713 -0.704491 11.667 -166.078)" stroke="#59BDFF"/>
<line y1="-0.5" x2="1038.76" y2="-0.5" transform="matrix(-0.709713 0.704491 -0.709713 -0.704491 6.66504 -166.078)" stroke="#59BDFF"/>
<line y1="-0.5" x2="1038.76" y2="-0.5" transform="matrix(-0.709713 0.704491 -0.709713 -0.704491 1.66797 -166.078)" stroke="#59BDFF"/>
<line y1="-0.5" x2="1038.76" y2="-0.5" transform="matrix(-0.709713 0.704491 -0.709713 -0.704491 581.668 -166.078)" stroke="#59BDFF"/>
<line y1="-0.5" x2="1038.76" y2="-0.5" transform="matrix(-0.709713 0.704491 -0.709713 -0.704491 576.665 -166.078)" stroke="#59BDFF"/>
<line y1="-0.5" x2="1038.76" y2="-0.5" transform="matrix(-0.709713 0.704491 -0.709713 -0.704491 571.669 -166.078)" stroke="#59BDFF"/>
<line y1="-0.5" x2="1038.76" y2="-0.5" transform="matrix(-0.709713 0.704491 -0.709713 -0.704491 566.668 -166.078)" stroke="#59BDFF"/>
<line y1="-0.5" x2="1038.76" y2="-0.5" transform="matrix(-0.709713 0.704491 -0.709713 -0.704491 561.667 -166.078)" stroke="#59BDFF"/>
<line y1="-0.5" x2="1038.76" y2="-0.5" transform="matrix(-0.709713 0.704491 -0.709713 -0.704491 556.668 -166.078)" stroke="#59BDFF"/>
<line y1="-0.5" x2="1038.76" y2="-0.5" transform="matrix(-0.709713 0.704491 -0.709713 -0.704491 551.667 -166.078)" stroke="#59BDFF"/>
<line y1="-0.5" x2="1038.76" y2="-0.5" transform="matrix(-0.709713 0.704491 -0.709713 -0.704491 546.664 -166.078)" stroke="#59BDFF"/>
<line y1="-0.5" x2="1038.76" y2="-0.5" transform="matrix(-0.709713 0.704491 -0.709713 -0.704491 541.669 -166.078)" stroke="#59BDFF"/>
<line y1="-0.5" x2="1038.76" y2="-0.5" transform="matrix(-0.709713 0.704491 -0.709713 -0.704491 536.671 -166.078)" stroke="#59BDFF"/>
<line y1="-0.5" x2="1038.76" y2="-0.5" transform="matrix(-0.709713 0.704491 -0.709713 -0.704491 531.668 -166.078)" stroke="#59BDFF"/>
<line y1="-0.5" x2="1038.76" y2="-0.5" transform="matrix(-0.709713 0.704491 -0.709713 -0.704491 526.666 -166.078)" stroke="#59BDFF"/>
<line y1="-0.5" x2="1038.76" y2="-0.5" transform="matrix(-0.709713 0.704491 -0.709713 -0.704491 521.667 -166.078)" stroke="#59BDFF"/>
<line y1="-0.5" x2="1038.76" y2="-0.5" transform="matrix(-0.709713 0.704491 -0.709713 -0.704491 516.668 -166.078)" stroke="#59BDFF"/>
<line y1="-0.5" x2="1038.76" y2="-0.5" transform="matrix(-0.709713 0.704491 -0.709713 -0.704491 511.668 -166.078)" stroke="#59BDFF"/>
<line y1="-0.5" x2="1038.76" y2="-0.5" transform="matrix(-0.709713 0.704491 -0.709713 -0.704491 506.667 -166.078)" stroke="#59BDFF"/>
<line y1="-0.5" x2="1038.76" y2="-0.5" transform="matrix(-0.709713 0.704491 -0.709713 -0.704491 501.667 -166.078)" stroke="#59BDFF"/>
<line y1="-0.5" x2="1038.76" y2="-0.5" transform="matrix(-0.709713 0.704491 -0.709713 -0.704491 496.666 -166.078)" stroke="#59BDFF"/>
<line y1="-0.5" x2="1038.76" y2="-0.5" transform="matrix(-0.709713 0.704491 -0.709713 -0.704491 491.668 -166.078)" stroke="#59BDFF"/>
<line y1="-0.5" x2="1038.76" y2="-0.5" transform="matrix(-0.709713 0.704491 -0.709713 -0.704491 486.667 -166.078)" stroke="#59BDFF"/>
<line y1="-0.5" x2="1038.76" y2="-0.5" transform="matrix(-0.709713 0.704491 -0.709713 -0.704491 481.665 -166.078)" stroke="#59BDFF"/>
<line y1="-0.5" x2="1038.76" y2="-0.5" transform="matrix(-0.709713 0.704491 -0.709713 -0.704491 476.664 -166.078)" stroke="#59BDFF"/>
<line y1="-0.5" x2="1038.76" y2="-0.5" transform="matrix(-0.709713 0.704491 -0.709713 -0.704491 471.667 -166.078)" stroke="#59BDFF"/>
<line y1="-0.5" x2="1038.76" y2="-0.5" transform="matrix(-0.709713 0.704491 -0.709713 -0.704491 466.668 -166.078)" stroke="#59BDFF"/>
<line y1="-0.5" x2="1038.76" y2="-0.5" transform="matrix(-0.709713 0.704491 -0.709713 -0.704491 461.668 -166.078)" stroke="#59BDFF"/>
<line y1="-0.5" x2="1038.76" y2="-0.5" transform="matrix(-0.709713 0.704491 -0.709713 -0.704491 456.669 -166.078)" stroke="#59BDFF"/>
<line y1="-0.5" x2="1038.76" y2="-0.5" transform="matrix(-0.709713 0.704491 -0.709713 -0.704491 451.668 -166.078)" stroke="#59BDFF"/>
<line y1="-0.5" x2="1038.76" y2="-0.5" transform="matrix(-0.709713 0.704491 -0.709713 -0.704491 446.664 -166.078)" stroke="#59BDFF"/>
<line y1="-0.5" x2="1038.76" y2="-0.5" transform="matrix(-0.709713 0.704491 -0.709713 -0.704491 441.665 -166.078)" stroke="#59BDFF"/>
<line y1="-0.5" x2="1038.76" y2="-0.5" transform="matrix(-0.709713 0.704491 -0.709713 -0.704491 436.668 -166.078)" stroke="#59BDFF"/>
<line y1="-0.5" x2="1038.76" y2="-0.5" transform="matrix(-0.709713 0.704491 -0.709713 -0.704491 431.668 -166.078)" stroke="#59BDFF"/>
<line y1="-0.5" x2="1038.76" y2="-0.5" transform="matrix(-0.709713 0.704491 -0.709713 -0.704491 426.67 -166.078)" stroke="#59BDFF"/>
<line y1="-0.5" x2="1038.76" y2="-0.5" transform="matrix(-0.709713 0.704491 -0.709713 -0.704491 421.665 -166.078)" stroke="#59BDFF"/>
<line y1="-0.5" x2="1038.76" y2="-0.5" transform="matrix(-0.709713 0.704491 -0.709713 -0.704491 416.666 -166.078)" stroke="#59BDFF"/>
<line y1="-0.5" x2="1038.76" y2="-0.5" transform="matrix(-0.709713 0.704491 -0.709713 -0.704491 411.666 -166.078)" stroke="#59BDFF"/>
<line y1="-0.5" x2="1038.76" y2="-0.5" transform="matrix(-0.709713 0.704491 -0.709713 -0.704491 406.668 -166.078)" stroke="#59BDFF"/>
<line y1="-0.5" x2="1038.76" y2="-0.5" transform="matrix(-0.709713 0.704491 -0.709713 -0.704491 401.668 -166.078)" stroke="#59BDFF"/>
<line y1="-0.5" x2="1038.76" y2="-0.5" transform="matrix(-0.709713 0.704491 -0.709713 -0.704491 396.666 -166.078)" stroke="#59BDFF"/>
<line y1="-0.5" x2="1038.76" y2="-0.5" transform="matrix(-0.709713 0.704491 -0.709713 -0.704491 391.665 -166.078)" stroke="#59BDFF"/>
<line y1="-0.5" x2="1038.76" y2="-0.5" transform="matrix(-0.709713 0.704491 -0.709713 -0.704491 386.669 -166.078)" stroke="#59BDFF"/>
<line y1="-0.5" x2="1038.76" y2="-0.5" transform="matrix(-0.709713 0.704491 -0.709713 -0.704491 381.667 -166.078)" stroke="#59BDFF"/>
<line y1="-0.5" x2="1038.76" y2="-0.5" transform="matrix(-0.709713 0.704491 -0.709713 -0.704491 376.668 -166.078)" stroke="#59BDFF"/>
<line y1="-0.5" x2="1038.76" y2="-0.5" transform="matrix(-0.709713 0.704491 -0.709713 -0.704491 371.667 -166.078)" stroke="#59BDFF"/>
<line y1="-0.5" x2="1038.76" y2="-0.5" transform="matrix(-0.709713 0.704491 -0.709713 -0.704491 366.666 -166.078)" stroke="#59BDFF"/>
<line y1="-0.5" x2="1038.76" y2="-0.5" transform="matrix(-0.709713 0.704491 -0.709713 -0.704491 361.667 -166.078)" stroke="#59BDFF"/>
<line y1="-0.5" x2="1038.76" y2="-0.5" transform="matrix(-0.709713 0.704491 -0.709713 -0.704491 356.668 -166.078)" stroke="#59BDFF"/>
<line y1="-0.5" x2="1038.76" y2="-0.5" transform="matrix(-0.709713 0.704491 -0.709713 -0.704491 351.669 -166.078)" stroke="#59BDFF"/>
<line y1="-0.5" x2="1038.76" y2="-0.5" transform="matrix(-0.709713 0.704491 -0.709713 -0.704491 346.668 -166.078)" stroke="#59BDFF"/>
<line y1="-0.5" x2="1038.76" y2="-0.5" transform="matrix(-0.709713 0.704491 -0.709713 -0.704491 341.665 -166.078)" stroke="#59BDFF"/>
<line y1="-0.5" x2="1038.76" y2="-0.5" transform="matrix(-0.709713 0.704491 -0.709713 -0.704491 336.665 -166.078)" stroke="#59BDFF"/>
<line y1="-0.5" x2="1038.76" y2="-0.5" transform="matrix(-0.709713 0.704491 -0.709713 -0.704491 331.668 -166.078)" stroke="#59BDFF"/>
<line y1="-0.5" x2="1038.76" y2="-0.5" transform="matrix(-0.709713 0.704491 -0.709713 -0.704491 326.668 -166.078)" stroke="#59BDFF"/>
<line y1="-0.5" x2="1038.76" y2="-0.5" transform="matrix(-0.709713 0.704491 -0.709713 -0.704491 321.67 -166.078)" stroke="#59BDFF"/>
<line y1="-0.5" x2="1038.76" y2="-0.5" transform="matrix(-0.709713 0.704491 -0.709713 -0.704491 316.665 -166.078)" stroke="#59BDFF"/>
<line y1="-0.5" x2="1038.76" y2="-0.5" transform="matrix(-0.709713 0.704491 -0.709713 -0.704491 311.667 -166.078)" stroke="#59BDFF"/>
<line y1="-0.5" x2="1038.76" y2="-0.5" transform="matrix(-0.709713 0.704491 -0.709713 -0.704491 306.668 -166.078)" stroke="#59BDFF"/>
<line y1="-0.5" x2="1038.76" y2="-0.5" transform="matrix(-0.709713 0.704491 -0.709713 -0.704491 301.668 -166.078)" stroke="#59BDFF"/>
<line y1="-0.5" x2="1038.76" y2="-0.5" transform="matrix(-0.709713 0.704491 -0.709713 -0.704491 296.669 -166.078)" stroke="#59BDFF"/>
<line y1="-0.5" x2="1038.76" y2="-0.5" transform="matrix(-0.709713 0.704491 -0.709713 -0.704491 291.668 -166.078)" stroke="#59BDFF"/>
<line y1="-0.5" x2="1038.76" y2="-0.5" transform="matrix(-0.709713 0.704491 -0.709713 -0.704491 286.667 -166.078)" stroke="#59BDFF"/>
<line y1="-0.5" x2="1038.76" y2="-0.5" transform="matrix(-0.709713 0.704491 -0.709713 -0.704491 281.667 -166.078)" stroke="#59BDFF"/>
<line y1="-0.5" x2="1038.76" y2="-0.5" transform="matrix(-0.709713 0.704491 -0.709713 -0.704491 276.667 -166.078)" stroke="#59BDFF"/>
<line y1="-0.5" x2="1038.76" y2="-0.5" transform="matrix(-0.709713 0.704491 -0.709713 -0.704491 271.667 -166.078)" stroke="#59BDFF"/>
<line y1="-0.5" x2="1038.76" y2="-0.5" transform="matrix(-0.709713 0.704491 -0.709713 -0.704491 266.669 -166.078)" stroke="#59BDFF"/>
<line y1="-0.5" x2="1038.76" y2="-0.5" transform="matrix(-0.709713 0.704491 -0.709713 -0.704491 261.666 -166.078)" stroke="#59BDFF"/>
<line y1="-0.5" x2="1038.76" y2="-0.5" transform="matrix(-0.709713 0.704491 -0.709713 -0.704491 256.669 -166.078)" stroke="#59BDFF"/>
<line y1="-0.5" x2="1038.76" y2="-0.5" transform="matrix(-0.709713 0.704491 -0.709713 -0.704491 251.667 -166.078)" stroke="#59BDFF"/>
<line y1="-0.5" x2="1038.76" y2="-0.5" transform="matrix(-0.709713 0.704491 -0.709713 -0.704491 246.667 -166.078)" stroke="#59BDFF"/>
<line y1="-0.5" x2="1038.76" y2="-0.5" transform="matrix(-0.709713 0.704491 -0.709713 -0.704491 241.668 -166.078)" stroke="#59BDFF"/>
<line y1="-0.5" x2="1038.76" y2="-0.5" transform="matrix(-0.709713 0.704491 -0.709713 -0.704491 236.668 -166.078)" stroke="#59BDFF"/>
<line y1="-0.5" x2="1038.76" y2="-0.5" transform="matrix(-0.709713 0.704491 -0.709713 -0.704491 231.666 -166.078)" stroke="#59BDFF"/>
<line y1="-0.5" x2="1038.76" y2="-0.5" transform="matrix(-0.709713 0.704491 -0.709713 -0.704491 226.668 -166.078)" stroke="#59BDFF"/>
<line y1="-0.5" x2="1038.76" y2="-0.5" transform="matrix(-0.709713 0.704491 -0.709713 -0.704491 221.669 -166.078)" stroke="#59BDFF"/>
<line y1="-0.5" x2="1038.76" y2="-0.5" transform="matrix(-0.709713 0.704491 -0.709713 -0.704491 216.668 -166.078)" stroke="#59BDFF"/>
<line y1="-0.5" x2="1038.76" y2="-0.5" transform="matrix(-0.709713 0.704491 -0.709713 -0.704491 211.668 -166.078)" stroke="#59BDFF"/>
<line y1="-0.5" x2="1038.76" y2="-0.5" transform="matrix(-0.709713 0.704491 -0.709713 -0.704491 206.665 -166.078)" stroke="#59BDFF"/>
<line y1="-0.5" x2="1038.76" y2="-0.5" transform="matrix(-0.709713 0.704491 -0.709713 -0.704491 201.668 -166.078)" stroke="#59BDFF"/>
<line y1="-0.5" x2="1038.76" y2="-0.5" transform="matrix(-0.709713 0.704491 -0.709713 -0.704491 196.665 -166.078)" stroke="#59BDFF"/>
<line y1="-0.5" x2="1038.76" y2="-0.5" transform="matrix(-0.709713 0.704491 -0.709713 -0.704491 191.668 -166.078)" stroke="#59BDFF"/>
<line y1="-0.5" x2="1038.76" y2="-0.5" transform="matrix(-0.709713 0.704491 -0.709713 -0.704491 186.668 -166.078)" stroke="#59BDFF"/>
<line y1="-0.5" x2="1038.76" y2="-0.5" transform="matrix(-0.709713 0.704491 -0.709713 -0.704491 181.666 -166.078)" stroke="#59BDFF"/>
<line y1="-0.5" x2="1038.76" y2="-0.5" transform="matrix(-0.709713 0.704491 -0.709713 -0.704491 176.667 -166.078)" stroke="#59BDFF"/>
<line y1="-0.5" x2="1038.76" y2="-0.5" transform="matrix(-0.709713 0.704491 -0.709713 -0.704491 171.666 -166.078)" stroke="#59BDFF"/>
<line y1="-0.5" x2="1038.76" y2="-0.5" transform="matrix(-0.709713 0.704491 -0.709713 -0.704491 166.667 -166.078)" stroke="#59BDFF"/>
<line y1="-0.5" x2="1038.76" y2="-0.5" transform="matrix(-0.709713 0.704491 -0.709713 -0.704491 161.668 -166.078)" stroke="#59BDFF"/>
<line y1="-0.5" x2="1038.76" y2="-0.5" transform="matrix(-0.709713 0.704491 -0.709713 -0.704491 156.668 -166.078)" stroke="#59BDFF"/>
<line y1="-0.5" x2="1038.76" y2="-0.5" transform="matrix(-0.709713 0.704491 -0.709713 -0.704491 151.668 -166.078)" stroke="#59BDFF"/>
<line y1="-0.5" x2="1038.76" y2="-0.5" transform="matrix(-0.709713 0.704491 -0.709713 -0.704491 146.667 -166.078)" stroke="#59BDFF"/>
<line y1="-0.5" x2="1038.76" y2="-0.5" transform="matrix(-0.709713 0.704491 -0.709713 -0.704491 141.668 -166.078)" stroke="#59BDFF"/>
<line y1="-0.5" x2="1038.76" y2="-0.5" transform="matrix(-0.709713 0.704491 -0.709713 -0.704491 136.669 -166.078)" stroke="#59BDFF"/>
<line y1="-0.5" x2="1038.76" y2="-0.5" transform="matrix(-0.709713 0.704491 -0.709713 -0.704491 131.667 -166.078)" stroke="#59BDFF"/>
<line y1="-0.5" x2="1038.76" y2="-0.5" transform="matrix(-0.709713 0.704491 -0.709713 -0.704491 126.665 -166.078)" stroke="#59BDFF"/>
<line y1="-0.5" x2="1038.76" y2="-0.5" transform="matrix(-0.709713 0.704491 -0.709713 -0.704491 121.669 -166.078)" stroke="#59BDFF"/>
<line y1="-0.5" x2="1038.76" y2="-0.5" transform="matrix(-0.709713 0.704491 -0.709713 -0.704491 116.669 -166.078)" stroke="#59BDFF"/>
<line y1="-0.5" x2="1038.76" y2="-0.5" transform="matrix(-0.709713 0.704491 -0.709713 -0.704491 111.667 -166.078)" stroke="#59BDFF"/>
<line y1="-0.5" x2="1038.76" y2="-0.5" transform="matrix(-0.709713 0.704491 -0.709713 -0.704491 106.669 -166.078)" stroke="#59BDFF"/>
</g>
</svg>
