<svg width="120" height="107" viewBox="0 0 120 107" fill="none" xmlns="http://www.w3.org/2000/svg">
<path d="M110.781 53.2703V45.3676L106.945 29.2483H111.709L113.046 37.383L114.384 29.2483H119.134L115.312 45.3676V53.2703H110.781Z" fill="#1C2541"/>
<path d="M101.043 53.4886C99.305 53.4886 97.9037 52.9472 96.8391 51.8644C95.7836 50.7816 95.2559 49.2665 95.2559 47.3193V36.2364C95.2559 33.907 95.7154 32.1235 96.6344 30.886C97.5625 29.6485 99.0684 29.0298 101.152 29.0298C102.29 29.0298 103.3 29.2391 104.182 29.6576C105.074 30.0762 105.775 30.704 106.284 31.5412C106.794 32.3692 107.049 33.4156 107.049 34.6804V38.8297H102.271V35.281C102.271 34.5621 102.18 34.0799 101.998 33.8342C101.816 33.5794 101.534 33.452 101.152 33.452C100.706 33.452 100.406 33.6158 100.251 33.9434C100.097 34.2619 100.019 34.6895 100.019 35.2264V47.2511C100.019 47.9153 100.115 48.3839 100.306 48.6569C100.506 48.9299 100.788 49.0664 101.152 49.0664C101.562 49.0664 101.848 48.898 102.012 48.5613C102.185 48.2247 102.271 47.7879 102.271 47.2511V42.9244H107.103V47.4694C107.103 49.5805 106.571 51.1137 105.506 52.0691C104.442 53.0154 102.954 53.4886 101.043 53.4886Z" fill="#1C2541"/>
<path d="M82.0625 53.2703L84.3828 29.2483H92.5312L94.8106 53.2703H90.2655L89.9243 49.3941H87.0307L86.7304 53.2703H82.0625ZM87.3719 45.5587H89.5557L88.5048 33.343H88.2864L87.3719 45.5587Z" fill="#1C2541"/>
<path d="M62.6992 53.2703V29.2483H70.015L72.0351 43.8936L74.0414 29.2483H81.4255V53.2703H77.0306V35.9635L74.2735 53.2703H69.9604L67.0396 35.9635V53.2703H62.6992Z" fill="#1C2541"/>
<path d="M56.9883 53.2703V29.2483H61.6289V53.2703H56.9883Z" fill="#1C2541"/>
<path d="M49.0499 53.2703V33.8616H46.1973V29.2483H56.7069V33.8616H53.8543V53.2703H49.0499Z" fill="#1C2541"/>
<path d="M41.2764 53.2703V29.2483H45.917V53.2703H41.2764Z" fill="#1C2541"/>
<path d="M33.7218 53.4886C30.2914 53.4886 28.5762 51.0318 28.5762 46.1182V35.7587C28.5762 31.2728 30.5416 29.0298 34.4725 29.0298C36.0922 29.0298 37.3342 29.3574 38.1986 30.0125C39.0631 30.6586 39.6591 31.6049 39.9866 32.8515C40.3142 34.0981 40.478 35.6176 40.478 37.4102H35.7828V35.281C35.7828 34.7623 35.71 34.3301 35.5644 33.9843C35.4279 33.6295 35.1367 33.452 34.6909 33.452C34.1358 33.452 33.7673 33.6386 33.5853 34.0116C33.4124 34.3847 33.326 34.7942 33.326 35.24V46.8825C33.326 47.5286 33.4079 48.0563 33.5717 48.4658C33.7446 48.8662 34.0767 49.0664 34.568 49.0664C35.0776 49.0664 35.4143 48.8662 35.5781 48.4658C35.7509 48.0563 35.8374 47.5195 35.8374 46.8552V43.4294H34.5544V39.2801H40.4234V53.2702H38.4989L37.68 51.2502C36.8428 52.7425 35.5235 53.4886 33.7218 53.4886Z" fill="#1C2541"/>
<path d="M18.0859 53.2703V29.2483H27.6948V33.8889H22.9722V38.5705H27.5037V43.0883H22.9722V48.5888H28.0087V53.2703H18.0859Z" fill="#1C2541"/>
<path d="M7.81445 53.2703V29.2483H12.6189V49.1757H17.5598V53.2703H7.81445Z" fill="#1C2541"/>
<path d="M73.7732 24.5271C72.2809 24.5271 71.1071 23.9493 70.2518 22.7936C69.4055 21.638 68.9824 20.0457 68.9824 18.0165C68.9824 16.5698 69.1098 15.3686 69.3646 14.4132C69.6285 13.4578 69.9924 12.6616 70.4565 12.0247C70.9206 11.3877 71.4529 10.8327 72.0534 10.3595L71.9442 10.0865C71.5621 9.14021 71.2254 8.23938 70.9342 7.38405C70.6521 6.51962 70.5111 5.63244 70.5111 4.72252C70.5111 3.80349 70.7067 2.98911 71.098 2.27936C71.4893 1.56962 72.0307 1.01457 72.7222 0.6142C73.4229 0.204733 74.2236 0 75.1244 0C76.0161 0 76.826 0.195634 77.5539 0.586902C78.291 0.969071 78.8779 1.54687 79.3146 2.32031C79.7514 3.09375 79.9698 4.07192 79.9698 5.25482C79.9698 6.53782 79.7286 7.61153 79.2464 8.47596C78.7732 9.34039 78.0589 10.173 77.1035 10.9737L78.4138 14.2767C78.9507 12.9209 79.7241 11.87 80.7341 11.1238L82.6313 14.0857C81.5758 14.9319 80.6932 16.3104 79.9834 18.2213L82.3856 24.2404H77.745L77.2127 22.9438C76.8578 23.3805 76.3801 23.7536 75.7796 24.063C75.1881 24.3724 74.5193 24.5271 73.7732 24.5271ZM74.7968 4.2994C74.7968 4.53598 74.856 4.8863 74.9743 5.35036C75.0926 5.80533 75.3701 6.59696 75.8069 7.72527C75.9798 7.54329 76.1344 7.25666 76.2709 6.86539C76.4074 6.47412 76.4757 5.93727 76.4757 5.25482C76.4757 4.55418 76.3892 4.06282 76.2163 3.78074C76.0525 3.49867 75.8342 3.35763 75.5612 3.35763C75.2973 3.35763 75.1017 3.45772 74.9743 3.6579C74.856 3.84899 74.7968 4.06282 74.7968 4.2994ZM73.159 18.6034C73.159 20.2231 73.6185 21.0329 74.5375 21.0329C74.9106 21.0329 75.2109 20.8965 75.4383 20.6235C75.6658 20.3414 75.8205 20.0502 75.9024 19.7499L73.6094 14.1675C73.3091 14.8045 73.159 15.9192 73.159 17.5115V18.6034Z" fill="#1C2541"/>
<path d="M55.7013 24.2403V4.83159H52.8486V0.218262H63.3583V4.83159H60.5057V24.2403H55.7013Z" fill="#1C2541"/>
<path d="M47.2708 24.4588C45.0779 24.4588 43.4946 23.9129 42.521 22.8209C41.5565 21.729 41.0742 19.9911 41.0742 17.6071V15.2595H45.824V18.2622C45.824 18.8173 45.9059 19.254 46.0697 19.5725C46.2426 19.8819 46.5383 20.0366 46.9569 20.0366C47.3937 20.0366 47.6939 19.9092 47.8577 19.6544C48.0306 19.3996 48.117 18.9811 48.117 18.3987C48.117 17.6617 48.0443 17.0475 47.8987 16.5561C47.7531 16.0556 47.4983 15.5825 47.1343 15.1366C46.7795 14.6817 46.2835 14.1539 45.6466 13.5533L43.4901 11.506C41.8795 9.98644 41.0742 8.24848 41.0742 6.29214C41.0742 4.2448 41.5474 2.68428 42.4937 1.61057C43.4491 0.536856 44.8277 0 46.6293 0C48.8313 0 50.3919 0.586902 51.3109 1.76071C52.239 2.93451 52.7031 4.71797 52.7031 7.11107H47.8168V5.45956C47.8168 5.13198 47.7212 4.8772 47.5301 4.69522C47.3482 4.51323 47.0979 4.42224 46.7795 4.42224C46.3973 4.42224 46.1152 4.53143 45.9332 4.74981C45.7603 4.9591 45.6739 5.23207 45.6739 5.56875C45.6739 5.90542 45.7649 6.26939 45.9469 6.66066C46.1289 7.05193 46.4883 7.50234 47.0251 8.0119L49.7959 10.6734C50.3509 11.2012 50.8605 11.7608 51.3245 12.3522C51.7886 12.9346 52.1617 13.617 52.4437 14.3996C52.7258 15.173 52.8669 16.1193 52.8669 17.2385C52.8669 19.4952 52.4483 21.265 51.6112 22.548C50.7831 23.8219 49.3363 24.4588 47.2708 24.4588Z" fill="#1C2541"/>
<path d="M34.7197 24.4587C32.7178 24.4587 31.2437 23.8991 30.2974 22.7799C29.3511 21.6516 28.8779 19.9955 28.8779 17.8117V0.218262H33.5458V17.6206C33.5458 18.021 33.5686 18.4077 33.6141 18.7808C33.6596 19.1447 33.7642 19.445 33.928 19.6816C34.0918 19.9182 34.3557 20.0365 34.7197 20.0365C35.0927 20.0365 35.3612 19.9227 35.5249 19.6952C35.6887 19.4586 35.7888 19.1538 35.8252 18.7808C35.8707 18.4077 35.8935 18.021 35.8935 17.6206V0.218262H40.5614V17.8117C40.5614 19.9955 40.0882 21.6516 39.1419 22.7799C38.1956 23.8991 36.7215 24.4587 34.7197 24.4587Z" fill="#1C2541"/>
<path d="M16.6816 24.2403V0.218262H24.052C25.2804 0.218262 26.2086 0.500339 26.8364 1.06449C27.4643 1.61955 27.8828 2.40208 28.0921 3.4121C28.3105 4.41302 28.4197 5.59138 28.4197 6.94716C28.4197 8.25746 28.2514 9.30387 27.9147 10.0864C27.5871 10.8689 26.9638 11.4104 26.0448 11.7106C26.8 11.8653 27.3278 12.2429 27.6281 12.8435C27.9374 13.4349 28.0921 14.2038 28.0921 15.1501V24.2403H23.3559V14.8362C23.3559 14.1356 23.2104 13.7034 22.9192 13.5396C22.6371 13.3667 22.1776 13.2803 21.5406 13.2803V24.2403H16.6816ZM21.5679 9.11734H22.7281C23.3923 9.11734 23.7245 8.39395 23.7245 6.94716C23.7245 6.00994 23.6517 5.39574 23.5061 5.10456C23.3605 4.81339 23.0875 4.6678 22.6872 4.6678H21.5679V9.11734Z" fill="#1C2541"/>
<path d="M8.52547 24.2403V4.83159H5.67285V0.218262H16.1825V4.83159H13.3299V24.2403H8.52547Z" fill="#1C2541"/>
<path d="M115.163 106.887V96.8204H113.684V94.4277H119.134V96.8204H117.655V106.887H115.163Z" fill="#939393"/>
<path d="M107.309 106.887V94.4277H109.871L111.018 100.395V94.4277H113.425V106.887H110.99L109.744 100.657V106.887H107.309Z" fill="#939393"/>
<path d="M101.77 106.887V94.4277H106.753V96.8346H104.304V99.2627H106.654V101.606H104.304V104.459H106.916V106.887H101.77Z" fill="#939393"/>
<path d="M91.3867 106.887V94.4277H95.181L96.2287 102.023L97.2693 94.4277H101.099V106.887H98.8196V97.9106L97.3897 106.887H95.1527L93.6378 97.9106V106.887H91.3867Z" fill="#939393"/>
<path d="M85.8477 106.887V94.4277H90.8312V96.8346H88.3819V99.2627H90.7321V101.606H88.3819V104.459H90.9941V106.887H85.8477Z" fill="#939393"/>
<path d="M82.3042 107C81.4028 107 80.6761 106.719 80.1239 106.158C79.5765 105.596 79.3027 104.81 79.3027 103.8V98.0521C79.3027 96.844 79.5411 95.919 80.0177 95.2772C80.4991 94.6354 81.2801 94.3145 82.3608 94.3145C82.9508 94.3145 83.4746 94.423 83.9324 94.6401C84.3949 94.8572 84.7583 95.1828 85.0225 95.617C85.2868 96.0464 85.419 96.5892 85.419 97.2451V99.3971H82.9413V97.5566C82.9413 97.1838 82.8941 96.9337 82.7997 96.8062C82.7054 96.6741 82.5591 96.608 82.3608 96.608C82.1296 96.608 81.9739 96.693 81.8936 96.8629C81.8134 97.0281 81.7733 97.2499 81.7733 97.5283V103.765C81.7733 104.109 81.8228 104.352 81.9219 104.494C82.0258 104.636 82.1721 104.706 82.3608 104.706C82.5732 104.706 82.7219 104.619 82.8068 104.444C82.8965 104.27 82.9413 104.043 82.9413 103.765V101.521H85.4473V103.878C85.4473 104.973 85.1712 105.768 84.619 106.264C84.0669 106.755 83.2953 107 82.3042 107Z" fill="#939393"/>
<path d="M72.9277 106.887V94.4277H76.7504C77.3875 94.4277 77.8688 94.574 78.1945 94.8666C78.5201 95.1545 78.7372 95.5604 78.8457 96.0842C78.959 96.6033 79.0156 97.2145 79.0156 97.9177C79.0156 98.5972 78.9283 99.14 78.7537 99.5458C78.5838 99.9517 78.2606 100.232 77.7839 100.388C78.1756 100.468 78.4493 100.664 78.6051 100.976C78.7655 101.283 78.8457 101.681 78.8457 102.172V106.887H76.3893V102.009C76.3893 101.646 76.3138 101.422 76.1628 101.337C76.0165 101.247 75.7782 101.202 75.4478 101.202V106.887H72.9277ZM75.462 99.0432H76.0637C76.4082 99.0432 76.5805 98.668 76.5805 97.9177C76.5805 97.4316 76.5427 97.113 76.4672 96.962C76.3917 96.811 76.2501 96.7355 76.0425 96.7355H75.462V99.0432Z" fill="#939393"/>
<path d="M69.2852 107C68.2894 107 67.5272 106.7 66.9987 106.101C66.4748 105.497 66.2129 104.626 66.2129 103.489V97.5708C66.2129 96.5042 66.4725 95.6949 66.9916 95.1427C67.5154 94.5905 68.2799 94.3145 69.2852 94.3145C70.2904 94.3145 71.0525 94.5905 71.5717 95.1427C72.0955 95.6949 72.3574 96.5042 72.3574 97.5708V103.489C72.3574 104.626 72.0931 105.497 71.5646 106.101C71.0407 106.7 70.2809 107 69.2852 107ZM69.3064 104.706C69.6839 104.706 69.8727 104.341 69.8727 103.609V97.5283C69.8727 96.9148 69.6887 96.608 69.3206 96.608C68.9053 96.608 68.6976 96.9219 68.6976 97.5495V103.623C68.6976 104.01 68.7448 104.289 68.8392 104.459C68.9336 104.624 69.0893 104.706 69.3064 104.706Z" fill="#939393"/>
<path d="M60.957 106.887V94.4277H65.9406V96.8558H63.463V98.8379H65.8132V101.238H63.463V106.887H60.957Z" fill="#939393"/>
<path d="M54.1699 106.887V94.4277H56.7325L57.8793 100.395V94.4277H60.2861V106.887H57.851L56.6051 100.657V106.887H54.1699Z" fill="#939393"/>
<path d="M48.6309 106.887V94.4277H53.6144V96.8346H51.1651V99.2627H53.5153V101.606H51.1651V104.459H53.7773V106.887H48.6309Z" fill="#939393"/>
<path d="M36.7588 106.887L35.4209 94.4277H37.8561L38.5427 102.292L39.2435 94.4277H41.5654L42.2309 102.292L42.8963 94.4277H45.3598L44.0006 106.887H41.0133L40.3903 100.891L39.7957 106.887H36.7588Z" fill="#939393"/>
<path d="M29.0381 106.887L30.2415 94.4277H34.4676L35.6498 106.887H33.2925L33.1156 104.876H31.6148L31.4591 106.887H29.0381ZM31.7918 102.887H32.9244L32.3794 96.5514H32.2661L31.7918 102.887Z" fill="#939393"/>
<path d="M24.0508 106.887V94.4277H26.5426V104.763H29.1052V106.887H24.0508Z" fill="#939393"/>
<path d="M16.3501 107C15.4487 107 14.722 106.719 14.1698 106.158C13.6224 105.596 13.3486 104.81 13.3486 103.8V98.0521C13.3486 96.844 13.587 95.919 14.0636 95.2772C14.545 94.6354 15.326 94.3145 16.4067 94.3145C16.9967 94.3145 17.5205 94.423 17.9783 94.6401C18.4408 94.8572 18.8042 95.1828 19.0684 95.617C19.3327 96.0464 19.4649 96.5892 19.4649 97.2451V99.3971H16.9872V97.5566C16.9872 97.1838 16.94 96.9337 16.8456 96.8062C16.7513 96.6741 16.605 96.608 16.4067 96.608C16.1755 96.608 16.0198 96.693 15.9395 96.8629C15.8593 97.0281 15.8192 97.2499 15.8192 97.5283V103.765C15.8192 104.109 15.8687 104.352 15.9678 104.494C16.0717 104.636 16.218 104.706 16.4067 104.706C16.6191 104.706 16.7678 104.619 16.8527 104.444C16.9424 104.27 16.9872 104.043 16.9872 103.765V101.521H19.4932V103.878C19.4932 104.973 19.2171 105.768 18.6649 106.264C18.1128 106.755 17.3412 107 16.3501 107Z" fill="#939393"/>
<path d="M5.67285 106.887V94.4277H8.23543L9.38223 100.395V94.4277H11.7891V106.887H9.35391L8.10801 100.657V106.887H5.67285Z" fill="#939393"/>
<path d="M108.623 89.454V63.6423H104.707V57.5071H119.135V63.6423H115.219V89.454H108.623Z" fill="#59BDFF"/>
<path d="M96.4133 89.7444C94.0274 89.7444 92.1038 89.0244 90.6423 87.5843C89.1933 86.1443 88.4688 84.1295 88.4688 81.5398V66.8006C88.4688 63.7028 89.0996 61.3309 90.3612 59.6852C91.6353 58.0394 93.7027 57.2166 96.5632 57.2166C98.1246 57.2166 99.5112 57.4949 100.723 58.0515C101.947 58.6082 102.909 59.4432 103.608 60.5565C104.308 61.6577 104.658 63.0493 104.658 64.7314V70.2495H98.0996V65.53C98.0996 64.574 97.9747 63.9327 97.7249 63.6059C97.4751 63.2671 97.0878 63.0977 96.5632 63.0977C95.9511 63.0977 95.5389 63.3155 95.3265 63.7512C95.1142 64.1747 95.008 64.7435 95.008 65.4574V81.4491C95.008 82.3324 95.1392 82.9556 95.4015 83.3187C95.6763 83.6817 96.0635 83.8632 96.5632 83.8632C97.1253 83.8632 97.5188 83.6394 97.7436 83.1916C97.981 82.7439 98.0996 82.163 98.0996 81.4491V75.695H104.733V81.7395C104.733 84.5469 104.002 86.586 102.54 87.8566C101.079 89.1151 99.0365 89.7444 96.4133 89.7444Z" fill="#59BDFF"/>
<path d="M74.0684 89.454V57.5071H87.2593V63.6787H80.7763V69.9047H86.997V75.9129H80.7763V83.228H87.6903V89.454H74.0684Z" fill="#59BDFF"/>
<path d="M64.6136 89.7445C63.1271 89.7445 61.7718 89.4661 60.5476 88.9095C59.3235 88.3528 58.3492 87.53 57.6247 86.4409C56.9126 85.3397 56.5566 83.9904 56.5566 82.393V74.3881H63.0772V82.0119C63.0772 82.5685 63.1896 83.0163 63.4144 83.3551C63.6518 83.6939 64.0265 83.8633 64.5387 83.8633C65.5255 83.8633 66.0189 83.2764 66.0189 82.1026V57.5071H72.6706V81.4673C72.6706 83.1615 72.3271 84.6318 71.64 85.8782C70.953 87.1125 70.0037 88.0685 68.792 88.7461C67.5803 89.4117 66.1875 89.7445 64.6136 89.7445Z" fill="#59BDFF"/>
<path d="M47.6661 89.7444C45.0304 89.7444 43.013 88.976 41.614 87.4391C40.2275 85.8902 39.5342 83.6575 39.5342 80.7411V65.5663C39.5342 62.8315 40.2212 60.7561 41.5953 59.3403C42.9818 57.9245 45.0054 57.2166 47.6661 57.2166C50.3268 57.2166 52.3441 57.9245 53.7182 59.3403C55.1047 60.7561 55.798 62.8315 55.798 65.5663V80.7411C55.798 83.6575 55.0985 85.8902 53.6994 87.4391C52.3129 88.976 50.3018 89.7444 47.6661 89.7444ZM47.7223 83.8632C48.7216 83.8632 49.2213 82.9254 49.2213 81.0497V65.4574C49.2213 63.8843 48.7341 63.0977 47.7598 63.0977C46.6605 63.0977 46.1109 63.9024 46.1109 65.5119V81.086C46.1109 82.0783 46.2358 82.7923 46.4857 83.2279C46.7355 83.6515 47.1477 83.8632 47.7223 83.8632Z" fill="#59BDFF"/>
<path d="M22.6592 89.454V57.5071H32.7772C34.4636 57.5071 35.7377 57.8822 36.5996 58.6325C37.4615 59.3707 38.0361 60.4113 38.3234 61.7546C38.6232 63.0857 38.7731 64.6528 38.7731 66.4559C38.7731 68.1984 38.542 69.5901 38.0798 70.6307C37.6301 71.6714 36.7745 72.3915 35.5129 72.7908C36.5496 72.9965 37.2741 73.4987 37.6864 74.2974C38.1111 75.084 38.3234 76.1065 38.3234 77.365V89.454H31.8216V76.9475C31.8216 76.0157 31.6218 75.4409 31.222 75.2231C30.8348 74.9932 30.204 74.8782 29.3296 74.8782V89.454H22.6592ZM29.3671 69.342H30.9597C31.8716 69.342 32.3275 68.3799 32.3275 66.4559C32.3275 65.2094 32.2276 64.3926 32.0277 64.0054C31.8279 63.6181 31.4531 63.4245 30.9035 63.4245H29.3671V69.342Z" fill="#59BDFF"/>
<path d="M5.67285 89.454V57.5071H14.3856C16.2094 57.5071 17.6521 57.9004 18.7139 58.6869C19.7882 59.4735 20.5564 60.5929 21.0186 62.045C21.4807 63.4971 21.7118 65.2276 21.7118 67.2364C21.7118 69.1726 21.5182 70.8607 21.131 72.3007C20.7437 73.7286 20.0505 74.8359 19.0512 75.6225C18.0643 76.409 16.6591 76.8023 14.8353 76.8023H12.1559V89.454H5.67285ZM12.1559 71.0664H12.5306C13.7548 71.0664 14.5043 70.7336 14.7791 70.068C15.0539 69.4025 15.1913 68.4223 15.1913 67.1275C15.1913 65.9174 15.0539 64.9856 14.7791 64.3321C14.5168 63.6666 13.886 63.3338 12.8866 63.3338H12.1559V71.0664Z" fill="#59BDFF"/>
<mask id="mask0_85_2083" style="mask-type:alpha" maskUnits="userSpaceOnUse" x="0" y="17" width="8" height="8">
<rect x="0.5" y="-0.5" width="6.09132" height="6.09132" transform="matrix(1 0 0 -1 0 23.1104)" fill="#D9D9D9" stroke="#59BDFF"/>
</mask>
<g mask="url(#mask0_85_2083)">
<line y1="-0.5" x2="98.216" y2="-0.5" transform="matrix(-0.709711 -0.704493 -0.709711 0.704493 9.6123 39.8484)" stroke="#59BDFF"/>
<line y1="-0.5" x2="98.216" y2="-0.5" transform="matrix(-0.709711 -0.704493 -0.709711 0.704493 9.13965 39.8484)" stroke="#59BDFF"/>
<line y1="-0.5" x2="98.216" y2="-0.5" transform="matrix(-0.709711 -0.704493 -0.709711 0.704493 8.66699 39.8484)" stroke="#59BDFF"/>
<line y1="-0.5" x2="98.216" y2="-0.5" transform="matrix(-0.709711 -0.704493 -0.709711 0.704493 8.19336 39.8484)" stroke="#59BDFF"/>
<line y1="-0.5" x2="98.216" y2="-0.5" transform="matrix(-0.709711 -0.704493 -0.709711 0.704493 7.72168 39.8484)" stroke="#59BDFF"/>
<line y1="-0.5" x2="98.216" y2="-0.5" transform="matrix(-0.709711 -0.704493 -0.709711 0.704493 7.24805 39.8484)" stroke="#59BDFF"/>
<line y1="-0.5" x2="98.216" y2="-0.5" transform="matrix(-0.709711 -0.704493 -0.709711 0.704493 6.77539 39.8484)" stroke="#59BDFF"/>
<line y1="-0.5" x2="98.216" y2="-0.5" transform="matrix(-0.709711 -0.704493 -0.709711 0.704493 6.30371 39.8484)" stroke="#59BDFF"/>
<line y1="-0.5" x2="98.216" y2="-0.5" transform="matrix(-0.709711 -0.704493 -0.709711 0.704493 5.83008 39.8484)" stroke="#59BDFF"/>
<line y1="-0.5" x2="98.216" y2="-0.5" transform="matrix(-0.709711 -0.704493 -0.709711 0.704493 5.35742 39.8484)" stroke="#59BDFF"/>
<line y1="-0.5" x2="98.216" y2="-0.5" transform="matrix(-0.709711 -0.704493 -0.709711 0.704493 4.88477 39.8484)" stroke="#59BDFF"/>
<line y1="-0.5" x2="98.216" y2="-0.5" transform="matrix(-0.709711 -0.704493 -0.709711 0.704493 4.41211 39.8484)" stroke="#59BDFF"/>
<line y1="-0.5" x2="98.216" y2="-0.5" transform="matrix(-0.709711 -0.704493 -0.709711 0.704493 3.93945 39.8484)" stroke="#59BDFF"/>
<line y1="-0.5" x2="98.216" y2="-0.5" transform="matrix(-0.709711 -0.704493 -0.709711 0.704493 3.4668 39.8484)" stroke="#59BDFF"/>
<line y1="-0.5" x2="98.216" y2="-0.5" transform="matrix(-0.709711 -0.704493 -0.709711 0.704493 2.99414 39.8484)" stroke="#59BDFF"/>
<line y1="-0.5" x2="98.216" y2="-0.5" transform="matrix(-0.709711 -0.704493 -0.709711 0.704493 2.52051 39.8484)" stroke="#59BDFF"/>
<line y1="-0.5" x2="98.216" y2="-0.5" transform="matrix(-0.709711 -0.704493 -0.709711 0.704493 2.04883 39.8484)" stroke="#59BDFF"/>
<line y1="-0.5" x2="98.216" y2="-0.5" transform="matrix(-0.709711 -0.704493 -0.709711 0.704493 1.5752 39.8484)" stroke="#59BDFF"/>
<line y1="-0.5" x2="98.216" y2="-0.5" transform="matrix(-0.709711 -0.704493 -0.709711 0.704493 1.10254 39.8484)" stroke="#59BDFF"/>
<line y1="-0.5" x2="98.216" y2="-0.5" transform="matrix(-0.709711 -0.704493 -0.709711 0.704493 0.629883 39.8484)" stroke="#59BDFF"/>
<line y1="-0.5" x2="98.216" y2="-0.5" transform="matrix(-0.709711 -0.704493 -0.709711 0.704493 0.157227 39.8484)" stroke="#59BDFF"/>
<line y1="-0.5" x2="98.216" y2="-0.5" transform="matrix(-0.709711 -0.704493 -0.709711 0.704493 -0.31543 39.8484)" stroke="#59BDFF"/>
<line y1="-0.5" x2="98.216" y2="-0.5" transform="matrix(-0.709711 -0.704493 -0.709711 0.704493 54.9961 39.8484)" stroke="#59BDFF"/>
<line y1="-0.5" x2="98.216" y2="-0.5" transform="matrix(-0.709711 -0.704493 -0.709711 0.704493 54.5234 39.8484)" stroke="#59BDFF"/>
<line y1="-0.5" x2="98.216" y2="-0.5" transform="matrix(-0.709711 -0.704493 -0.709711 0.704493 54.0508 39.8484)" stroke="#59BDFF"/>
<line y1="-0.5" x2="98.216" y2="-0.5" transform="matrix(-0.709711 -0.704493 -0.709711 0.704493 53.5781 39.8484)" stroke="#59BDFF"/>
<line y1="-0.5" x2="98.216" y2="-0.5" transform="matrix(-0.709711 -0.704493 -0.709711 0.704493 53.1055 39.8484)" stroke="#59BDFF"/>
<line y1="-0.5" x2="98.216" y2="-0.5" transform="matrix(-0.709711 -0.704493 -0.709711 0.704493 52.6338 39.8484)" stroke="#59BDFF"/>
<line y1="-0.5" x2="98.216" y2="-0.5" transform="matrix(-0.709711 -0.704493 -0.709711 0.704493 52.1602 39.8484)" stroke="#59BDFF"/>
<line y1="-0.5" x2="98.216" y2="-0.5" transform="matrix(-0.709711 -0.704493 -0.709711 0.704493 51.6875 39.8484)" stroke="#59BDFF"/>
<line y1="-0.5" x2="98.216" y2="-0.5" transform="matrix(-0.709711 -0.704493 -0.709711 0.704493 51.2139 39.8484)" stroke="#59BDFF"/>
<line y1="-0.5" x2="98.216" y2="-0.5" transform="matrix(-0.709711 -0.704493 -0.709711 0.704493 50.7412 39.8484)" stroke="#59BDFF"/>
<line y1="-0.5" x2="98.216" y2="-0.5" transform="matrix(-0.709711 -0.704493 -0.709711 0.704493 50.2695 39.8484)" stroke="#59BDFF"/>
<line y1="-0.5" x2="98.216" y2="-0.5" transform="matrix(-0.709711 -0.704493 -0.709711 0.704493 49.7959 39.8484)" stroke="#59BDFF"/>
<line y1="-0.5" x2="98.216" y2="-0.5" transform="matrix(-0.709711 -0.704493 -0.709711 0.704493 49.3232 39.8484)" stroke="#59BDFF"/>
<line y1="-0.5" x2="98.216" y2="-0.5" transform="matrix(-0.709711 -0.704493 -0.709711 0.704493 48.8516 39.8484)" stroke="#59BDFF"/>
<line y1="-0.5" x2="98.216" y2="-0.5" transform="matrix(-0.709711 -0.704493 -0.709711 0.704493 48.3789 39.8484)" stroke="#59BDFF"/>
<line y1="-0.5" x2="98.216" y2="-0.5" transform="matrix(-0.709711 -0.704493 -0.709711 0.704493 47.9053 39.8484)" stroke="#59BDFF"/>
<line y1="-0.5" x2="98.216" y2="-0.5" transform="matrix(-0.709711 -0.704493 -0.709711 0.704493 47.4326 39.8484)" stroke="#59BDFF"/>
<line y1="-0.5" x2="98.216" y2="-0.5" transform="matrix(-0.709711 -0.704493 -0.709711 0.704493 46.959 39.8484)" stroke="#59BDFF"/>
<line y1="-0.5" x2="98.216" y2="-0.5" transform="matrix(-0.709711 -0.704493 -0.709711 0.704493 46.4873 39.8484)" stroke="#59BDFF"/>
<line y1="-0.5" x2="98.216" y2="-0.5" transform="matrix(-0.709711 -0.704493 -0.709711 0.704493 46.0146 39.8484)" stroke="#59BDFF"/>
<line y1="-0.5" x2="98.216" y2="-0.5" transform="matrix(-0.709711 -0.704493 -0.709711 0.704493 45.542 39.8484)" stroke="#59BDFF"/>
<line y1="-0.5" x2="98.216" y2="-0.5" transform="matrix(-0.709711 -0.704493 -0.709711 0.704493 45.0684 39.8484)" stroke="#59BDFF"/>
<line y1="-0.5" x2="98.216" y2="-0.5" transform="matrix(-0.709711 -0.704493 -0.709711 0.704493 44.5967 39.8484)" stroke="#59BDFF"/>
<line y1="-0.5" x2="98.216" y2="-0.5" transform="matrix(-0.709711 -0.704493 -0.709711 0.704493 44.123 39.8484)" stroke="#59BDFF"/>
<line y1="-0.5" x2="98.216" y2="-0.5" transform="matrix(-0.709711 -0.704493 -0.709711 0.704493 43.6504 39.8484)" stroke="#59BDFF"/>
<line y1="-0.5" x2="98.216" y2="-0.5" transform="matrix(-0.709711 -0.704493 -0.709711 0.704493 43.1777 39.8484)" stroke="#59BDFF"/>
<line y1="-0.5" x2="98.216" y2="-0.5" transform="matrix(-0.709711 -0.704493 -0.709711 0.704493 42.7041 39.8484)" stroke="#59BDFF"/>
<line y1="-0.5" x2="98.216" y2="-0.5" transform="matrix(-0.709711 -0.704493 -0.709711 0.704493 42.2324 39.8484)" stroke="#59BDFF"/>
<line y1="-0.5" x2="98.216" y2="-0.5" transform="matrix(-0.709711 -0.704493 -0.709711 0.704493 41.7598 39.8484)" stroke="#59BDFF"/>
<line y1="-0.5" x2="98.216" y2="-0.5" transform="matrix(-0.709711 -0.704493 -0.709711 0.704493 41.2871 39.8484)" stroke="#59BDFF"/>
<line y1="-0.5" x2="98.216" y2="-0.5" transform="matrix(-0.709711 -0.704493 -0.709711 0.704493 40.8135 39.8484)" stroke="#59BDFF"/>
<line y1="-0.5" x2="98.216" y2="-0.5" transform="matrix(-0.709711 -0.704493 -0.709711 0.704493 40.3418 39.8484)" stroke="#59BDFF"/>
<line y1="-0.5" x2="98.216" y2="-0.5" transform="matrix(-0.709711 -0.704493 -0.709711 0.704493 39.8682 39.8484)" stroke="#59BDFF"/>
<line y1="-0.5" x2="98.216" y2="-0.5" transform="matrix(-0.709711 -0.704493 -0.709711 0.704493 39.3955 39.8484)" stroke="#59BDFF"/>
<line y1="-0.5" x2="98.216" y2="-0.5" transform="matrix(-0.709711 -0.704493 -0.709711 0.704493 38.9229 39.8484)" stroke="#59BDFF"/>
<line y1="-0.5" x2="98.216" y2="-0.5" transform="matrix(-0.709711 -0.704493 -0.709711 0.704493 38.4512 39.8484)" stroke="#59BDFF"/>
<line y1="-0.5" x2="98.216" y2="-0.5" transform="matrix(-0.709711 -0.704493 -0.709711 0.704493 37.9775 39.8484)" stroke="#59BDFF"/>
<line y1="-0.5" x2="98.216" y2="-0.5" transform="matrix(-0.709711 -0.704493 -0.709711 0.704493 37.5049 39.8484)" stroke="#59BDFF"/>
<line y1="-0.5" x2="98.216" y2="-0.5" transform="matrix(-0.709711 -0.704493 -0.709711 0.704493 37.0322 39.8484)" stroke="#59BDFF"/>
<line y1="-0.5" x2="98.216" y2="-0.5" transform="matrix(-0.709711 -0.704493 -0.709711 0.704493 36.5586 39.8484)" stroke="#59BDFF"/>
<line y1="-0.5" x2="98.216" y2="-0.5" transform="matrix(-0.709711 -0.704493 -0.709711 0.704493 36.0869 39.8484)" stroke="#59BDFF"/>
<line y1="-0.5" x2="98.216" y2="-0.5" transform="matrix(-0.709711 -0.704493 -0.709711 0.704493 35.6143 39.8484)" stroke="#59BDFF"/>
<line y1="-0.5" x2="98.216" y2="-0.5" transform="matrix(-0.709711 -0.704493 -0.709711 0.704493 35.1406 39.8484)" stroke="#59BDFF"/>
<line y1="-0.5" x2="98.216" y2="-0.5" transform="matrix(-0.709711 -0.704493 -0.709711 0.704493 34.6689 39.8484)" stroke="#59BDFF"/>
<line y1="-0.5" x2="98.216" y2="-0.5" transform="matrix(-0.709711 -0.704493 -0.709711 0.704493 34.1953 39.8484)" stroke="#59BDFF"/>
<line y1="-0.5" x2="98.216" y2="-0.5" transform="matrix(-0.709711 -0.704493 -0.709711 0.704493 33.7227 39.8484)" stroke="#59BDFF"/>
<line y1="-0.5" x2="98.216" y2="-0.5" transform="matrix(-0.709711 -0.704493 -0.709711 0.704493 33.25 39.8484)" stroke="#59BDFF"/>
<line y1="-0.5" x2="98.216" y2="-0.5" transform="matrix(-0.709711 -0.704493 -0.709711 0.704493 32.7773 39.8484)" stroke="#59BDFF"/>
<line y1="-0.5" x2="98.216" y2="-0.5" transform="matrix(-0.709711 -0.704493 -0.709711 0.704493 32.3047 39.8484)" stroke="#59BDFF"/>
<line y1="-0.5" x2="98.216" y2="-0.5" transform="matrix(-0.709711 -0.704493 -0.709711 0.704493 31.832 39.8484)" stroke="#59BDFF"/>
<line y1="-0.5" x2="98.216" y2="-0.5" transform="matrix(-0.709711 -0.704493 -0.709711 0.704493 31.3594 39.8484)" stroke="#59BDFF"/>
<line y1="-0.5" x2="98.216" y2="-0.5" transform="matrix(-0.709711 -0.704493 -0.709711 0.704493 30.8857 39.8484)" stroke="#59BDFF"/>
<line y1="-0.5" x2="98.216" y2="-0.5" transform="matrix(-0.709711 -0.704493 -0.709711 0.704493 30.4141 39.8484)" stroke="#59BDFF"/>
<line y1="-0.5" x2="98.216" y2="-0.5" transform="matrix(-0.709711 -0.704493 -0.709711 0.704493 29.9404 39.8484)" stroke="#59BDFF"/>
<line y1="-0.5" x2="98.216" y2="-0.5" transform="matrix(-0.709711 -0.704493 -0.709711 0.704493 29.4678 39.8484)" stroke="#59BDFF"/>
<line y1="-0.5" x2="98.216" y2="-0.5" transform="matrix(-0.709711 -0.704493 -0.709711 0.704493 28.9951 39.8484)" stroke="#59BDFF"/>
<line y1="-0.5" x2="98.216" y2="-0.5" transform="matrix(-0.709711 -0.704493 -0.709711 0.704493 28.5225 39.8484)" stroke="#59BDFF"/>
<line y1="-0.5" x2="98.216" y2="-0.5" transform="matrix(-0.709711 -0.704493 -0.709711 0.704493 28.0498 39.8484)" stroke="#59BDFF"/>
<line y1="-0.5" x2="98.216" y2="-0.5" transform="matrix(-0.709711 -0.704493 -0.709711 0.704493 27.5771 39.8484)" stroke="#59BDFF"/>
<line y1="-0.5" x2="98.216" y2="-0.5" transform="matrix(-0.709711 -0.704493 -0.709711 0.704493 27.1045 39.8484)" stroke="#59BDFF"/>
<line y1="-0.5" x2="98.216" y2="-0.5" transform="matrix(-0.709711 -0.704493 -0.709711 0.704493 26.6309 39.8484)" stroke="#59BDFF"/>
<line y1="-0.5" x2="98.216" y2="-0.5" transform="matrix(-0.709711 -0.704493 -0.709711 0.704493 26.1582 39.8484)" stroke="#59BDFF"/>
<line y1="-0.5" x2="98.216" y2="-0.5" transform="matrix(-0.709711 -0.704493 -0.709711 0.704493 25.6855 39.8484)" stroke="#59BDFF"/>
<line y1="-0.5" x2="98.216" y2="-0.5" transform="matrix(-0.709711 -0.704493 -0.709711 0.704493 25.2129 39.8484)" stroke="#59BDFF"/>
<line y1="-0.5" x2="98.216" y2="-0.5" transform="matrix(-0.709711 -0.704493 -0.709711 0.704493 24.7402 39.8484)" stroke="#59BDFF"/>
<line y1="-0.5" x2="98.216" y2="-0.5" transform="matrix(-0.709711 -0.704493 -0.709711 0.704493 24.2676 39.8484)" stroke="#59BDFF"/>
<line y1="-0.5" x2="98.216" y2="-0.5" transform="matrix(-0.709711 -0.704493 -0.709711 0.704493 23.7949 39.8484)" stroke="#59BDFF"/>
<line y1="-0.5" x2="98.216" y2="-0.5" transform="matrix(-0.709711 -0.704493 -0.709711 0.704493 23.3223 39.8484)" stroke="#59BDFF"/>
<line y1="-0.5" x2="98.216" y2="-0.5" transform="matrix(-0.709711 -0.704493 -0.709711 0.704493 22.8496 39.8484)" stroke="#59BDFF"/>
<line y1="-0.5" x2="98.216" y2="-0.5" transform="matrix(-0.709711 -0.704493 -0.709711 0.704493 22.376 39.8484)" stroke="#59BDFF"/>
<line y1="-0.5" x2="98.216" y2="-0.5" transform="matrix(-0.709711 -0.704493 -0.709711 0.704493 21.9043 39.8484)" stroke="#59BDFF"/>
<line y1="-0.5" x2="98.216" y2="-0.5" transform="matrix(-0.709711 -0.704493 -0.709711 0.704493 21.4307 39.8484)" stroke="#59BDFF"/>
<line y1="-0.5" x2="98.216" y2="-0.5" transform="matrix(-0.709711 -0.704493 -0.709711 0.704493 20.958 39.8484)" stroke="#59BDFF"/>
<line y1="-0.5" x2="98.216" y2="-0.5" transform="matrix(-0.709711 -0.704493 -0.709711 0.704493 20.4863 39.8484)" stroke="#59BDFF"/>
<line y1="-0.5" x2="98.216" y2="-0.5" transform="matrix(-0.709711 -0.704493 -0.709711 0.704493 20.0127 39.8484)" stroke="#59BDFF"/>
<line y1="-0.5" x2="98.216" y2="-0.5" transform="matrix(-0.709711 -0.704493 -0.709711 0.704493 19.54 39.8484)" stroke="#59BDFF"/>
<line y1="-0.5" x2="98.216" y2="-0.5" transform="matrix(-0.709711 -0.704493 -0.709711 0.704493 19.0674 39.8484)" stroke="#59BDFF"/>
<line y1="-0.5" x2="98.216" y2="-0.5" transform="matrix(-0.709711 -0.704493 -0.709711 0.704493 18.5947 39.8484)" stroke="#59BDFF"/>
<line y1="-0.5" x2="98.216" y2="-0.5" transform="matrix(-0.709711 -0.704493 -0.709711 0.704493 18.1221 39.8484)" stroke="#59BDFF"/>
<line y1="-0.5" x2="98.216" y2="-0.5" transform="matrix(-0.709711 -0.704493 -0.709711 0.704493 17.6494 39.8484)" stroke="#59BDFF"/>
<line y1="-0.5" x2="98.216" y2="-0.5" transform="matrix(-0.709711 -0.704493 -0.709711 0.704493 17.1768 39.8484)" stroke="#59BDFF"/>
<line y1="-0.5" x2="98.216" y2="-0.5" transform="matrix(-0.709711 -0.704493 -0.709711 0.704493 16.7031 39.8484)" stroke="#59BDFF"/>
<line y1="-0.5" x2="98.216" y2="-0.5" transform="matrix(-0.709711 -0.704493 -0.709711 0.704493 16.2314 39.8484)" stroke="#59BDFF"/>
<line y1="-0.5" x2="98.216" y2="-0.5" transform="matrix(-0.709711 -0.704493 -0.709711 0.704493 15.7578 39.8484)" stroke="#59BDFF"/>
<line y1="-0.5" x2="98.216" y2="-0.5" transform="matrix(-0.709711 -0.704493 -0.709711 0.704493 15.2852 39.8484)" stroke="#59BDFF"/>
<line y1="-0.5" x2="98.216" y2="-0.5" transform="matrix(-0.709711 -0.704493 -0.709711 0.704493 14.8125 39.8484)" stroke="#59BDFF"/>
<line y1="-0.5" x2="98.216" y2="-0.5" transform="matrix(-0.709711 -0.704493 -0.709711 0.704493 14.3398 39.8484)" stroke="#59BDFF"/>
<line y1="-0.5" x2="98.216" y2="-0.5" transform="matrix(-0.709711 -0.704493 -0.709711 0.704493 13.8672 39.8484)" stroke="#59BDFF"/>
<line y1="-0.5" x2="98.216" y2="-0.5" transform="matrix(-0.709711 -0.704493 -0.709711 0.704493 13.3945 39.8484)" stroke="#59BDFF"/>
<line y1="-0.5" x2="98.216" y2="-0.5" transform="matrix(-0.709711 -0.704493 -0.709711 0.704493 12.9219 39.8484)" stroke="#59BDFF"/>
<line y1="-0.5" x2="98.216" y2="-0.5" transform="matrix(-0.709711 -0.704493 -0.709711 0.704493 12.4482 39.8484)" stroke="#59BDFF"/>
<line y1="-0.5" x2="98.216" y2="-0.5" transform="matrix(-0.709711 -0.704493 -0.709711 0.704493 11.9756 39.8484)" stroke="#59BDFF"/>
<line y1="-0.5" x2="98.216" y2="-0.5" transform="matrix(-0.709711 -0.704493 -0.709711 0.704493 11.5029 39.8484)" stroke="#59BDFF"/>
<line y1="-0.5" x2="98.216" y2="-0.5" transform="matrix(-0.709711 -0.704493 -0.709711 0.704493 11.0303 39.8484)" stroke="#59BDFF"/>
<line y1="-0.5" x2="98.216" y2="-0.5" transform="matrix(-0.709711 -0.704493 -0.709711 0.704493 10.5576 39.8484)" stroke="#59BDFF"/>
<line y1="-0.5" x2="98.216" y2="-0.5" transform="matrix(-0.709711 -0.704493 -0.709711 0.704493 10.085 39.8484)" stroke="#59BDFF"/>
</g>
</svg>
